<?xml version="1.0" encoding="UTF-8"?>
<svg width="24px" height="24px" viewBox="0 0 24 24" version="1.1" xmlns="http://www.w3.org/2000/svg" xmlns:xlink="http://www.w3.org/1999/xlink">
    <!-- Generator: Sketch 53.2 (72643) - https://sketchapp.com -->
    <title>aliceblue</title>
    <desc>Created with Sketch.</desc>
    <g id="aliceblue" stroke="none" stroke-width="1" fill="none" fill-rule="evenodd">
        <path d="M15.668629,4.45033791 C12.3106073,4.9300553 8.35293877,6.48913684 5.59456374,8.40800643 C4.63512895,9.12758252 4.5151996,9.00765317 6.31413983,9.48737057 L7.03371593,9.72722927 L7.63336267,9.36744122 C7.99315072,9.12758252 8.47286811,8.88772383 8.71272682,8.64786512 C9.07251487,8.52793578 9.43230292,8.40800643 9.55223226,8.28807707 C10.5116671,7.68843034 13.7497594,6.60906619 15.308841,6.3692075 C20.5857324,5.6496314 22.86439,8.04821838 20.106015,11.5261695 L19.8661563,11.8859576 L20.106015,11.8859576 C20.8255911,12.0058869 22.3846726,12.2457456 22.504602,12.2457456 C22.504602,12.2457456 22.6245313,12.0058869 22.86439,11.7660282 C25.9825531,7.08878358 22.3846726,3.49090312 15.668629,4.45033791" id="Path" fill="#286B93" fill-rule="nonzero"></path>
        <path d="M14.7091943,7.44857163 C12.550466,7.80835968 9.19244421,9.24751188 7.75329203,10.4468054 C7.63336267,10.5667347 7.39350398,10.6866641 7.27357462,10.8065934 C7.03371593,10.9265228 6.91378659,11.1663815 7.03371593,11.1663815 C7.63336267,11.1663815 8.71272682,11.2863108 8.83265616,11.4062402 C8.95258551,11.4062402 8.95258551,11.4062402 8.95258551,11.4062402 C8.95258551,11.4062402 9.07251487,11.1663815 9.67216161,10.8065934 C13.5099007,8.16814773 18.1871454,8.52793578 16.7479932,11.2863108 C15.668629,13.4450391 11.3511725,15.483838 8.95258551,15.12405 L8.59279747,15.0041206 L7.75329203,15.7236967 L7.03371593,16.5632022 L7.99315072,16.5632022 C13.8696889,16.6831315 21.7850259,10.4468054 18.9067215,7.92828903 C18.1871454,7.44857163 16.3882052,7.20871294 14.7091943,7.44857163" id="Path" fill="#7E927D" fill-rule="nonzero"></path>
        <path d="M2.83618872,10.6866641 C-1.3613385,15.0041206 -0.881621105,18.9617892 4.15541155,19.8012946 C5.2347757,20.0411532 5.2347757,20.0411532 5.95435179,18.9617892 C6.67392788,17.882425 6.67392788,17.7624956 6.19421049,17.7624956 C5.71449309,17.7624956 4.5151996,17.4027076 4.15541155,17.1628489 C2.23654196,15.9635554 2.95611806,13.2051804 5.83442244,10.8065934 C6.07428114,10.6866641 6.19421049,10.4468054 6.19421049,10.4468054 C6.19421049,10.4468054 5.2347757,10.0870173 4.5151996,9.96708796 C4.2753409,9.84715862 4.03548221,9.84715862 3.91555285,9.84715862 C3.7956235,9.72722927 3.55576481,9.84715862 2.83618872,10.6866641" id="Path" fill="#7E927D" fill-rule="nonzero"></path>
        <path d="M6.79385723,11.2863108 C6.07428114,11.7660282 5.11484634,13.2051804 4.75505829,14.1646152 C4.5151996,15.0041206 4.994917,15.9635554 6.07428114,16.3233434 C6.91378659,16.6831315 6.91378659,16.6831315 7.75329203,15.7236967 C8.11308007,15.2439793 9.07251487,14.2845445 9.67216161,13.5649684 C11.1113138,12.0058869 11.5910312,11.5261695 11.5910312,11.4062402 C11.5910312,11.4062402 10.9913844,11.2863108 10.2718084,11.2863108 C9.55223226,11.1663815 8.83265616,11.1663815 8.71272682,11.1663815 C7.99315072,11.1663815 6.91378659,11.1663815 6.79385723,11.2863108" id="Path" fill="#286B93" fill-rule="nonzero"></path>
        <path d="M18.5469334,13.2051804 C16.0284171,15.3639087 11.4711018,17.5226369 8.47286811,17.7624956 C8.11308007,17.7624956 7.87322138,17.882425 7.87322138,17.882425 C7.75329203,17.882425 6.79385723,19.5614359 6.55399854,19.9212239 C6.43406918,20.0411532 7.87322138,20.0411532 8.95258551,19.8012946 C13.3899714,19.0817185 18.0672161,16.6831315 20.9455204,13.9247565 C21.7850259,13.2051804 21.7850259,13.085251 21.0654497,12.9653217 C20.8255911,12.9653217 20.465803,12.8453923 20.2259443,12.8453923 C19.1465802,12.6055336 19.2665095,12.4856043 18.5469334,13.2051804" id="Path" fill="#286B93" fill-rule="nonzero"></path>
    </g>
</svg>