<svg width="24" height="27" xmlns="http://www.w3.org/2000/svg"><path d="M20.445 19.551H19.24c-1.057 4.078-4.691 7.11-8.992 7.11h-.936C4.19 26.661 0 22.37 0 17.122V8.436c0-.025.002-.05.004-.073A2.356 2.356 0 0 1 0 8.25c0-.086.013-.17.025-.254h19.51c.011.084.025.168.025.254 0 .037-.002.074-.004.112a.976.976 0 0 1 .004.073v2.228h.885A3.555 3.555 0 0 1 24 14.219v1.777a3.555 3.555 0 0 1-3.555 3.555zm1.777-5.332c0-.982-.795-1.778-1.777-1.778h-.885v4.681c0 .22-.018.436-.033.652h.918c.982 0 1.777-.796 1.777-1.778V14.22zM10.451 6.207c-1.061.143-2.421-1.13-3.036-2.84C6.8 1.658 7.162.155 8.223.012c1.062-.143 2.42 1.128 3.036 2.839.616 1.71.254 3.213-.808 3.357z" fill="#27BC94" fill-rule="evenodd"/></svg>