<svg xmlns="http://www.w3.org/2000/svg" width="86" height="119" fill="none" viewBox="0 0 86 119">
    <g clip-path="url(#clip0)">
        <path fill="url(#paint0_linear)" d="M51.39 21.168l3.09 9.265c.863-.398 2.424-1.361 3.686-3.453 1.793-3.023 1.926-8.27.265-13.318l-7.04 7.506z"/>
        <path fill="#E8B497" d="M54.147 18.245c.698 4.616.332 12.188.332 12.188l-1.627-6.841.498-4.55.797-.797z" opacity=".14"/>
        <path fill="url(#paint1_linear)" d="M61.62 13.928c-.399-.698-.864-1.395-1.428-2.16l-1.76 1.894c.963 2.989 1.328 6.044 1.062 8.668.399-.266.764-.565 1.063-.863 2.06-1.96 2.458-5.082 1.063-7.54z"/>
        <path fill="url(#paint2_linear)" d="M10.94 119.539c14.878-8.601 38.923-8.601 53.702 0 14.779 8.602 14.713 22.518-.166 31.119l-1.295.698 2.823 2.524-1.827 5.147-9.1-4.383c-9.1 2.723-19.727 3.188-29.292 1.361l-.033 1.827-2.857.432-4.516-2.06-2.69-3.155c-1.727-.697-3.355-1.494-4.883-2.391-14.812-8.601-14.745-22.517.133-31.119z" opacity=".31"/>
        <path fill="#D9E6F2" d="M30.102 100.576c7.44-4.45 19.628-4.55 27.267-.266 4.25 2.391 6.177 5.646 5.779 8.834v-.099c-.764 7.04-2.193 12.155-2.724 14.081-.033.067-.033.133-.066.199.033-.066.033-.132.066-.199-.63 2.192-1.229 4.384-1.86 6.609-.465 1.661-1.793 3.288-3.985 4.583-5.68 3.388-15.045 3.487-20.923.2-2.358-1.329-3.786-2.989-4.284-4.716-.332-1.096-.631-2.192-.963-3.288-.333-1.096-.631-2.192-.964-3.288.034.066.034.133.067.232-.033-.066-.067-.133-.067-.232-1.926-6.709-2.557-12.056-2.823-14.082 0 .1.034.233.067.332-.465-3.188 1.295-6.443 5.413-8.9z"/>
        <ellipse fill="#1F7AE0" rx="8.402" ry="14.513" transform="scale(-1 1) rotate(-89.838 13.116 56.908)"/>
        <path fill="#8AD1FA" d="M63.214 108.945c.1-1.096.299-2.889.431-5.414.133-2.59.1-4.45.1-5.446 0-1.528-.1-5.58-.73-10.362-.598-4.75-1.429-8.502-2.026-10.827-.532-2.092-1.495-5.347-3.023-9.033 1.13 2.723-.1 5.712-3.686 7.87-5.58 3.355-14.78 3.421-20.525.2-3.819-2.126-5.147-5.181-3.985-7.97-.465 1.128-1.86 4.582-2.989 9.066-.565 2.325-1.395 6.078-1.96 10.827-.597 4.782-.664 8.867-.664 10.362 0 1.527-.033 5.612.598 10.893.299 2.657 2.259 5.247 5.812 7.24 7.639 4.284 19.86 4.151 27.267-.266 3.287-2.026 5.08-4.55 5.38-7.14z"/>
        <path fill="#8AD1FA" d="M63.214 108.945c.1-1.096.299-2.889.431-5.414.133-2.59.1-4.45.1-5.446 0-1.528-.1-5.58-.73-10.362-.598-4.75-1.429-8.502-2.026-10.827-.532-2.092-1.495-5.347-3.023-9.033 1.13 2.723-.1 5.712-3.686 7.87-5.58 3.355-14.78 3.421-20.525.2-3.819-2.126-5.147-5.181-3.985-7.97-.465 1.128-1.86 4.582-2.989 9.066-.565 2.325-1.395 6.078-1.96 10.827-.597 4.782-.664 8.867-.664 10.362 0 1.527-.033 5.612.598 10.893.299 2.657 2.259 5.247 5.812 7.24 7.639 4.284 19.86 4.151 27.267-.266 3.287-2.026 5.08-4.55 5.38-7.14z"/>
        <path fill="#6AC3EF" d="M30.8 107.55l-2.624.166.664-2.491 2.292 1.727-.332.598z"/>
        <path fill="#BDC1C6" d="M24.689 109.078c.299 2.491 2.026 4.948 5.214 6.908.465 2.856 1.229 6.908 2.624 11.557.033.067.066.166.066.233-.033-.067-.066-.166-.066-.233.332 1.129.664 2.259 1.03 3.388.331 1.129.663 2.258 1.029 3.387.066.266.2.532.332.797l-1.196-.597c-2.358-1.329-3.786-2.989-4.284-4.716-.332-1.096-.63-2.192-.963-3.288-.332-1.096-.631-2.192-.963-3.288.033.066.033.133.066.232-.033-.066-.066-.133-.066-.232-1.926-6.709-2.557-12.056-2.823-14.082 0 .1.033.233.066.332-.033-.099-.033-.199-.033-.299 0-.033-.033-.066-.033-.099v-.133.133z"/>
        <path fill="#6AC3EF" d="M24.689 109.078v-.133c-.598-5.214-.598-9.233-.565-10.76v-1.13c0-.299 0-.63.033-.963v-.033c.067-2.026.233-4.948.631-8.236.366-2.923.797-5.447 1.23-7.506.066-.3.132-.598.165-.864.2-.93.399-1.76.565-2.457.2-.764.398-1.495.598-2.159.133-.399.232-.797.365-1.196.266-.896.531-1.693.797-2.424.133-.399.266-.764.399-1.096.066-.166.133-.332.166-.498.299-.764.531-1.362.664-1.694-.066.166-.133.332-.166.498-.033.067-.033.1-.033.166-.034.1-.067.233-.067.332 0 .067-.033.133-.033.2 0 .1-.033.199-.033.299 0 .066 0 .132-.033.232v.498c0 .067 0 .166.033.233 0 .1 0 .166.033.265 0 .067.033.1.033.166.033.233.1.465.166.698 0 .033 0 .066.034.066.033.133.1.233.132.366.034.033.034.066.067.133.066.132.1.232.166.365.033.033.033.066.066.1.067.132.133.232.233.365 0 .033.033.066.066.066.465.698 1.096 1.362 1.926 1.993-.265.897-.498 1.826-.763 2.856-.598 2.524-1.462 6.642-2.06 11.823-.365 3.255-.465 4.783-.564 6.941-.1 2.292 1.063 4.982 2.856 6.344 0 0-2.391-.897-2.956-1.395v2.391c0 .432.033.864.033 1.362v.166c0 .199.034.365.034.564v.233c0 .166.033.365.033.531 0 .1 0 .199.033.299 0 .166.033.365.033.531 0 .1 0 .2.034.333 0 .166.033.365.033.531 0 .1.033.232.033.332 0 .199.033.365.033.565 0 .133.033.232.033.365.034.199.034.399.067.598 0 .133.033.232.033.365.033.199.033.432.066.664 0 .1.034.233.034.332l.1.997c0 .066.032.099.032.166 0 .099.034.166.034.266-.034-.133-.034-.233-.067-.366 0 .067.033.166.033.266v.033c0 .1.034.199.034.299v.033c.033.233.066.465.1.731.066.398.132.863.198 1.362.034.166.067.332.067.531-3.188-1.993-4.915-4.45-5.214-6.941z"/>
        <path fill="#8AD1FA" d="M29.405 68.892c.033-.1.033-.232.066-.332 0 .133-.033.233-.066.332zM29.338 69.39c0-.1.034-.199.034-.299 0 .1 0 .2-.034.3zM29.338 70.353c0-.066-.033-.166-.033-.232.033.066.033.166.033.233zM29.704 67.896c-.133.365-.399.93-.665 1.694.3-.731.532-1.329.665-1.694zM28.873 70.088c-.133.332-.265.697-.398 1.096.133-.399.265-.764.398-1.096zM29.405 70.785c0-.066-.034-.1-.034-.166 0 .067.034.133.034.166zM30.036 72.479c-.033-.033-.033-.067-.067-.1.034.033.034.067.067.1zM30.302 72.91c-.034-.032-.034-.032-.067-.066.033 0 .067.034.067.067zM29.604 71.55c0-.034 0-.067-.033-.067.033 0 .033.033.033.066zM29.803 72.014c-.033-.033-.033-.066-.066-.133.033.067.033.1.066.133zM28.475 71.184c-.266.73-.532 1.527-.797 2.424.265-.897.531-1.694.797-2.424z"/>
        <path fill="#8AD1FA" d="M29.538 68.394c.066-.166.1-.332.166-.498-.067.166-.1.332-.166.498zM26.183 79.42c.2-.93.399-1.76.565-2.457.2-.764.398-1.495.598-2.16-.2.698-.399 1.429-.598 2.16-.2.697-.365 1.527-.565 2.457z"/>
        <path fill="#8AA1AD" d="M29.604 71.483c-.066-.233-.133-.465-.166-.698.033.233.066.465.166.698zM29.737 71.914c-.067-.133-.1-.232-.133-.365.033.133.1.232.133.365zM29.97 72.38c-.067-.1-.133-.233-.167-.366.067.133.1.233.166.365zM30.268 72.844c-.066-.132-.166-.232-.232-.365.066.133.133.233.232.365zM27.678 73.608c-.133.365-.233.764-.366 1.196.133-.432.233-.83.366-1.196zM26.183 79.42c-.066.266-.133.565-.166.864.034-.3.1-.598.166-.864zM29.372 69.091c0-.066.033-.132.033-.199 0 .067 0 .133-.034.2zM29.372 70.62c0-.1-.034-.167-.034-.267.034.1.034.2.034.266zM29.504 68.56c0-.066.034-.1.034-.166 0 .066-.034.133-.034.166zM29.338 69.623c0-.067 0-.133.034-.233-.034.067-.034.133-.034.233z"/>
        <path fill="#C7D1E0" d="M59.328 117.048l8.9 16.34c.599 1.063.898 2.292.898 3.521v19.329l-4.949 2.789v-18.432c0-1.893-.498-3.786-1.428-5.446l-8.602-15.344c1.296-.465 2.524-1.03 3.654-1.694.53-.365 1.062-.697 1.527-1.063z"/>
        <path fill="#9DA8BA" d="M28.11 117.048l-8.901 16.34c-.598 1.063-.897 2.292-.897 3.521v19.329l4.949 2.789v-18.432c0-1.893.498-3.786 1.428-5.446l8.602-15.344c-1.296-.465-2.524-1.03-3.654-1.694-.531-.365-1.063-.697-1.527-1.063z"/>
        <path fill="#7E8B9E" d="M24.755 109.443c-.033-.1-.033-.232-.066-.332.199 1.661.664 5.613 1.926 10.694l-1.494 2.723c-1.993.432-3.488 2.225-3.488 4.351v2.059l-2.424 4.45c-.033.067-.067.133-.1.233V113.86c0-1.129.532-2.225 1.428-2.922l4.019-3.189c.033.399.066.797.133 1.196 0 .166.033.332.066.498z"/>
        <path fill="#9DA8BA" d="M63.114 109.543c.033-.1.033-.233.067-.332-.2 1.66-.764 6.144-2.026 11.225l1.262 2.358c1.992.432 3.553 2.358 3.553 4.484v2.059s2.491 4.682 2.524 4.749l.233-20.126c0-1.129-.532-2.225-1.428-2.923l-4.019-3.188c-.033.398-.066.797-.133 1.196.034.132 0 .298-.033.498z"/>
        <path fill="#A9DDFB" d="M27.479 92.671c-.499.532-.83 1.362-.798 2.458.034 2.823 2.026 6.177 4.384 7.439.233.133.432.2.665.266-.764.465-1.794.432-2.99-.232-2.258-1.296-4.118-4.484-4.084-7.108 0-2.059 1.195-3.155 2.823-2.823z"/>
        <path fill="#A9DDFB" d="M27.611 98.75c.797 1.66 2.06 3.121 3.454 3.852.233.132.432.199.665.265-.764.465-1.794.432-2.99-.232-1.095-.631-2.059-1.694-2.79-2.923l1.661-.963z"/>
        <path fill="#FDFEFF" fill-rule="evenodd" d="M36.38 102.303c.032-4.816-3.388-10.76-7.606-13.185-4.218-2.425-7.639-.465-7.672 4.384-.033 4.815 3.387 10.76 7.605 13.185 4.218 2.424 7.672.465 7.672-4.384zm-3.521-2.026c0 2.623-1.86 3.653-4.118 2.358-2.259-1.295-4.119-4.484-4.085-7.107 0-2.624 1.86-3.654 4.118-2.358 2.258 1.328 4.085 4.516 4.085 7.107z" clip-rule="evenodd"/>
        <path fill="#fff" fill-opacity=".43" fill-rule="evenodd" d="M28.74 102.635c2.259 1.295 4.119.265 4.119-2.358 0-2.59-1.827-5.779-4.085-7.107-2.259-1.296-4.119-.266-4.119 2.358-.033 2.623 1.827 5.812 4.085 7.107z" clip-rule="evenodd"/>
        <path fill="#BBE4FC" d="M60.989 76.863c-.266-.996-.598-2.258-1.063-3.72 3.487 2.823 6.11 7.904 6.11 12.156 0 2.39-.863 4.084-2.224 4.882l-.465.265c-.1-.897-.2-1.793-.3-2.756-.663-4.75-1.494-8.502-2.058-10.827zM27.412 86.228c4.118-.597 13.417 6.045 13.417 13.517 0 2.392-.863 4.085-2.225 4.882l-4.45 2.591c1.361-.797 2.225-2.491 2.225-4.882 0-4.849-3.387-10.76-7.605-13.185-2.126-1.229-4.052-1.328-5.447-.531l4.085-2.392z"/>
        <path fill="#00588F" d="M52.786 63.213c3.254 6.675-29.26 14.214-22.086 3.089.299-.399.664-.764 1.096-1.13.033-.033.1-.066.133-.1.066-.066.133-.132.232-.165.067-.067.133-.1.2-.166.066-.034.133-.1.199-.133.1-.067.166-.133.266-.2.066-.033.1-.066.166-.099.166-.1.299-.2.465-.299 5.18-3.122 13.55-3.42 19.329-.797z" opacity=".5"/>
        <path fill="#EDC1A4" d="M30.401 41.825c.997 1.262 2.823 1.561 4.085.565 1.13-.864 1.428-2.425.797-3.62-.598-1.096-1.229-2.292-1.793-3.488h-4.185l-.398 4.584c.498.664.996 1.328 1.494 1.959z"/>
        <path fill="#E0A98D" d="M35.316 38.77c-.598-1.096-1.229-2.292-1.793-3.488h-1.196c.532 1.661 1.927 4.783 1.66 6.377-.099.664.765-.299 1.03.266.698-.897.83-2.126.3-3.155z"/>
        <path fill="url(#paint3_linear)" d="M53.35 19.009l-6.144 6.576c.498 4.516.565 6.542.565 6.542s-4.816.764-8.204 1.096c-1.428.133-2.49 1.329-2.49 2.757 0 1.461 1.162 2.657 2.623 2.756 4.019.233 7.273-.1 9.665-.564 3.022-.565 5.18-3.222 5.18-6.277-.066-3.155-.331-8.004-1.195-12.886z"/>
        <path fill="#E8B497" d="M47.24 25.618L48.5 24.29l3.322 8.634c1.261 3.421.332 3.953.332 3.953l-2.16-2.292-2.756-8.967z" opacity=".14"/>
        <path fill="url(#paint4_linear)" d="M57.435 54.777c-3.62-5.114-6.21-7.705-7.406-9-.1-.133-.232-.232-.332-.365l-.133-.133c-.033-.033-.033-.067-.066-.067l-.133-.132-.133-.133c-.033-.033-.033-.067-.066-.067l-.133-.132c-.1-.133-.233-.233-.332-.366l.033.034-.067-.067-.199-.2-.1-.099-.199-.2-.2-.198c-.032-.034-.066-.067-.099-.1l-.199-.2-.2-.199-.099-.1-.2-.198-.198-.2-.1-.1-.2-.199c-.464-.431-.464-.431-1.328-1.262-.232-.199-.431-.398-.664-.597-.232-.2-.432-.399-.664-.598 0 0-.399-.366-.996-.897-.864-.764-1.661-1.395-2.026-1.727-1.03-.863-1.196-.963-1.296-1.03-.299-.199-.83-.431-1.494-.498-.73-.066-1.229.166-1.395.233-.996.498-1.428 1.362-1.528 1.627-.1.2-.431 1.196-.63 1.794-.2.564-.366 1.096-.532 1.66-.166.565-.332 1.096-.498 1.66 0 .034-.366 1.196-.897 3.422V46.142c-.033.067-.033.166-.066.266 0 .033-.034.1-.034.133-.033.066-.033.166-.066.266-.033.066-.033.166-.067.265 0 .034-.033.1-.033.133-.033.067-.033.166-.066.266-.033.066-.033.166-.066.266 0 .033-.034.1-.034.132-.033.067-.033.166-.066.266-.033.067-.033.166-.067.266 0 .033-.033.1-.033.133-.033.066-.033.166-.066.265v.067-.033c-.133.63-.233 1.262-.366 1.86-1.129 5.845-1.361 10.395-1.46 12.122-.034.797 1.062 1.328 3.32 1.394 5.115.2 10.263-.597 15.078-2.358 2.225-.797 4.75-1.727 6.642-3.221.83-.598 3.023-2.624 2.16-3.853z"/>
        <path fill="#F5B700" d="M42.955 38.969l.066.066c.598.532.997.897.997.897.232.2.431.398.664.598.232.199.432.398.664.598.864.83.864.83 1.329 1.262l.199.199.1.1.199.199.2.199.099.1.199.199.2.2.099.099.2.2.198.198.1.1.2.2.066.066-.034-.033c.1.132.233.232.333.365l.133.133c.033.033.033.066.066.066l.133.133.133.133c.033.033.033.066.066.066l.133.133c.1.133.232.233.332.365.332.366.797.864 1.362 1.462-.233 0-3.355 1.56-3.355 1.56l-5.081-9.863z"/>
        <path fill="#E6AC00" d="M30.301 62.815c.3-6.244 1.063-9.831 1.395-11.591l.1-.498c0-.067.033-.133.033-.2 0-.033 0-.066.033-.1 0-.066.034-.132.034-.199 0-.066.033-.132.033-.199 0-.033 0-.066.033-.1 0-.066.033-.132.033-.199l.1-.498v-.034c.033-.066.033-.198.066-.265 0-.033.033-.1.033-.133.034-.066.034-.199.067-.265.033-.067.033-.2.066-.266 0-.033.034-.1.034-.133.033-.066.033-.2.066-.265.033-.067.033-.2.066-.266 0-.033.034-.1.034-.133.033-.066.033-.2.066-.266s.033-.199.066-.265c0-.034.034-.1.034-.133.033-.067.033-.2.066-.266.133-.598.133-.598.432-1.793.066-.3.166-.598.232-.864.067-.299.166-.565.233-.863 0 0 .133-.532.365-1.296.332-1.129.631-2.092.797-2.557.432-1.295.498-1.461.532-1.56.166-.333.465-.831.963-1.23.597-.465 1.129-.531 1.328-.564-3.022.564-3.72 19.163-3.288 28.429-1.56 0-4.118-.2-4.052-1.428z"/>
        <path fill="#EDC1A4" d="M47.24 25.618l12.985-13.85c-1.495-1.959-3.653-4.15-7.14-6.84C46.142-.387 37.076-6.565 37.076-6.598c0 0-26.968-26.635-43.574-45.068l-34.705 4.484C-3.01-6.996 2.138-5.003 13.098 12.267c10.96 17.27 7.406 15.178 13.55 24.377.764 1.13 1.495 2.159 2.225 3.155l4.617-4.55c-1.428-2.956-2.391-5.945-.864-7.472 1.993-1.927 5.646 1.594 8.868 4.981.365.399.697.764 1.03 1.096 2.324 2.558 3.852 5.713 4.416 9.133.266 1.628.565 3.388.797 4.916.2 1.195 1.23 2.092 2.425 2.092 1.229 0 2.291-.93 2.458-2.159.298-2.291.398-4.782.464-6.675.067-2.06-.332-4.085-1.162-5.978-1.494-3.288-3.089-6.775-4.683-9.565z"/>
        <path fill="#E0A98D" d="M32.593 36.146l.897-.897c-1.428-2.956-2.391-5.945-.864-7.472.399-.399.897-.565 1.428-.532-3.62-.166-3.055 4.318-1.46 8.9z"/>
        <path fill="url(#paint5_linear)" d="M58.431 12.3s1.03-.266 1.993.332c.465.3.897.864 1.196 1.329 0-.033-.034-.033-.034-.067-.398-.697-.863-1.395-1.428-2.158-1.428-1.927-3.587-4.119-7.074-6.809-6.94-5.313-16.008-11.49-16.008-11.524 0 0-26.967-26.635-43.573-45.068l-3.752.499L36.313-6.265C44.948.012 57.435 7.086 58.43 12.3z"/>
    </g>
    <defs>
        <linearGradient id="paint0_linear" x1="53.072" x2="51.702" y1="27.659" y2="17.054" gradientUnits="userSpaceOnUse">
            <stop stop-color="#DBA78D"/>
            <stop offset="1" stop-color="#EDC1A4"/>
        </linearGradient>
        <linearGradient id="paint1_linear" x1="60.013" x2="56.548" y1="21.762" y2="20.407" gradientUnits="userSpaceOnUse">
            <stop stop-color="#DBA78D"/>
            <stop offset="1" stop-color="#EDC1A4"/>
        </linearGradient>
        <linearGradient id="paint2_linear" x1="69.123" x2="-71.811" y1="287.168" y2="80.325" gradientUnits="userSpaceOnUse">
            <stop stop-color="#A7AAB3"/>
            <stop offset=".353" stop-color="#D1D4DF"/>
            <stop offset="1" stop-color="#fff" stop-opacity=".01"/>
        </linearGradient>
        <linearGradient id="paint3_linear" x1="42.531" x2="39.397" y1="35.728" y2="26.056" gradientUnits="userSpaceOnUse">
            <stop stop-color="#E8B497"/>
            <stop offset="1" stop-color="#EDC1A4"/>
        </linearGradient>
        <linearGradient id="paint4_linear" x1="30.476" x2="98.872" y1="14.433" y2="14.412" gradientUnits="userSpaceOnUse">
            <stop stop-color="#FFD036"/>
            <stop offset="1" stop-color="#FFC20C"/>
        </linearGradient>
        <linearGradient id="paint5_linear" x1="3.351" x2="128.047" y1="-174.199" y2="-29.692" gradientUnits="userSpaceOnUse">
            <stop stop-color="#DBA78D"/>
            <stop offset="1" stop-color="#EDC1A4"/>
        </linearGradient>
        <clipPath id="clip0">
            <rect width="86" height="118" y=".536" fill="#fff" rx="4"/>
        </clipPath>
    </defs>
</svg>
