<svg width="22" height="24" xmlns="http://www.w3.org/2000/svg"><g fill="none" fill-rule="evenodd"><path d="M6.177 19.469l-4.46-2.159a.414.414 0 0 1-.166-.602L3.784 13.4a.421.421 0 0 1 .737.075l2.234 5.463a.414.414 0 0 1-.578.53z" fill="#624BFF"/><path d="M21.505 18.487a.414.414 0 0 1-.222.367l-9.915 5.099a.419.419 0 0 1-.612-.369V12.4c0-.155.087-.297.225-.367l9.912-5.099a.419.419 0 0 1 .612.368v11.186zm-2.9-4.318c0-1.593-1.108-2.317-2.475-1.613a5.099 5.099 0 0 0-2.482 4.16c0 1.595 1.109 2.316 2.476 1.613a5.099 5.099 0 0 0 2.481-4.16z" fill="#71BBE3"/><path d="M10.35 10.545a.423.423 0 0 1-.373 0L.233 5.811a.414.414 0 0 1-.008-.74L10.049.044a.423.423 0 0 1 .377 0l9.74 4.733a.414.414 0 0 1 .008.74l-9.824 5.028zm-.03-7.658v-.001a.424.424 0 0 0-.378 0L5.916 4.949a.414.414 0 0 0 .007.74l4.151 2.016a.426.426 0 0 0 .378 0l4.027-2.061a.414.414 0 0 0-.008-.74l-4.15-2.016z" fill="#F5CE5A"/></g></svg>