<svg xmlns="http://www.w3.org/2000/svg" width="86" height="119" fill="none" viewBox="0 0 86 119">
    <g clip-path="url(#clip0)">
        <path fill="url(#paint0_linear)" d="M-73.114 52.7l40.784 23.714 44.478-25.828-40.463-24.038-44.8 26.152z"/>
        <path fill="#CFEEFF" d="M12.19 51.456l.254 50.856L57 76.565l-.088-50.824L12.19 51.456z" opacity=".24"/>
        <path fill="#C5EBFF" d="M12.265.107l.087 50.497L57 76.565l-.088-50.824L12.265.107z" opacity=".6"/>
        <path fill="#fff" d="M-32.2 25.794l.162 50.451 44.39-25.64L12.265.106-32.2 25.794z"/>
        <path fill="url(#paint1_linear)" d="M17.18 66.148l-5.522 6.29 24.888 15.895 9.432-5.313L17.18 66.148z"/>
        <path fill="url(#paint2_linear)" d="M17.08 63.977l-8.896 5.177 15.186 9.585 9.641-5.544-15.932-9.218z"/>
        <path fill="url(#paint3_linear)" d="M33.033 73.162l-15.809.39v-9.464l15.81 9.074z"/>
        <path fill="url(#paint4_linear)" d="M33.078 73.173v2.06l-10.009 5.6v-1.971l10.009-5.69z"/>
        <path fill="url(#paint5_linear)" d="M-11.149 78.034L25.87 61.802.485 46.895l-32.197 18.392 20.563 12.747z"/>
        <path fill="#E29B6A" fill-rule="evenodd" d="M8.947 49.958c0-.056-.01-.112-.01-.167 0-.034-.012-.067-.012-.09 0-.044-.011-.089-.011-.133 0-.034-.011-.067-.011-.1-.011-.045-.011-.078-.023-.123-.01-.033-.01-.067-.022-.111-.011-.034-.011-.067-.022-.111-.011-.045-.022-.078-.033-.123-.012-.033-.023-.067-.023-.09-.01-.044-.033-.1-.044-.144-.011-.022-.023-.055-.023-.078l-.1-.233c-.022-.056-.055-.112-.089-.167-.033-.056-.055-.1-.089-.156-.044-.067-.1-.134-.145-.2-.01-.012-.022-.034-.033-.045-.045-.056-.1-.112-.156-.167l-.011-.011c-.056-.056-.122-.112-.178-.156-.011-.011-.034-.023-.045-.034l-.2-.133 24.003 13.96.2.134c.011.011.034.023.045.034.067.044.122.1.178.155l.011.012c.056.055.1.111.156.167.011.01.022.033.033.044.056.067.1.134.145.2v.012c.033.044.056.1.09.144.033.056.055.1.077.156v.011c.034.078.067.145.1.234 0 .011.011.011.011.023.012.022.012.033.023.055.01.045.033.09.044.145 0 .011.011.022.011.033 0 .023.012.034.012.056.01.044.022.078.033.122 0 .023.011.034.011.056s.011.033.011.056c.011.033.011.066.022.111 0 .022.012.034.012.056s.01.044.01.066c0 .034.012.067.012.1 0 .023 0 .034.011.045 0 .034.011.056.011.09 0 .033.011.066.011.088v.034c0 .044 0 .089.011.122v.312l.023 8.962-24.026-13.96-.022-8.963c0-.089 0-.167-.011-.245.022-.011.022-.033.022-.055z" clip-rule="evenodd"/>
        <path fill="#FFB19E" fill-rule="evenodd" d="M40.331 40.216L16.306 26.255 4.383 24.251l24.025 13.961 11.923 2.004z" clip-rule="evenodd"/>
        <path fill="#ED3D17" fill-rule="evenodd" d="M8.157 71.389l-24.025-13.961.055 17.802L8.201 89.19 8.157 71.39z" clip-rule="evenodd"/>
        <path fill="#FF785B" fill-rule="evenodd" d="M16.551 62.048l-24.025-13.96-8.394 9.34 24.025 13.96 8.394-9.34z" clip-rule="evenodd"/>
        <path fill="#F7C9A9" fill-rule="evenodd" d="M28.408 38.214L16.529 53.968l.022 8.082-8.383 9.341.045 17.757 15.809-8.784-.023-10.932c-.01-2.85 2.004-6.335 4.487-7.76 2.483-1.436 4.509-.278 4.509 2.572l.022 8.962 7.404-4.275-.078-28.713-11.935-2.004z" clip-rule="evenodd"/>
        <g opacity=".651">
            <path fill="url(#paint6_linear)" fill-rule="evenodd" d="M28.515 48.36c-1.347.78-2.427 2.65-2.427 4.198 0 1.547 1.091 2.17 2.438 1.392 1.348-.78 2.439-2.65 2.427-4.198 0-1.547-1.09-2.17-2.438-1.391z" clip-rule="evenodd"/>
            <path fill="url(#paint7_linear)" d="M28.515 48.36c-1.347.78-2.427 2.65-2.427 4.198 0 1.547 1.091 2.17 2.438 1.392 1.348-.78 2.439-2.65 2.427-4.198 0-1.547-1.09-2.17-2.438-1.391z"/>
        </g>
        <path fill="#ED3D17" fill-rule="evenodd" d="M16.529 53.965l-24.025-13.96.022 8.071 24.025 13.972-.022-8.083z" clip-rule="evenodd"/>
        <path fill="#FF785B" fill-rule="evenodd" d="M28.41 38.212L4.387 24.252l-11.88 15.752 24.015 13.961 11.89-15.753z" clip-rule="evenodd"/>
        <path fill="url(#paint8_linear)" d="M29.087 60.722l6.958 1.58c3.195.736 5.61 3.374 6.045 6.625l.267 2.037-.623.078c-.835.112-1.681-.078-2.394-.523l-.69-.423s-6.112.434-7.704-1.648c-.936-1.224-2.372-3.429-3.563-5.31-.701-1.102.134-2.472 1.336-2.472.123.011.245.034.367.056z"/>
        <path fill="#CC7265" fill-rule="evenodd" d="M40.12 64.43c-.012-.29.178-.58.556-.802.735-.423 1.937-.423 2.672 0 .367.211.546.49.546.768l.01 5.956c0 .278-.189.568-.556.78-.735.422-1.937.422-2.672 0-.367-.212-.545-.49-.545-.769l-.011-5.956v.022z" clip-rule="evenodd"/>
        <path fill="#BA685C" fill-rule="evenodd" d="M40.12 64.43c-.012-.29.178-.58.556-.802.09-.045.178-.09.278-.134l.813 4.765c.111.668-.078 1.358-.523 1.87-.178.212-.29.48-.29.746v.39c-.1-.033-.189-.078-.267-.134-.367-.211-.545-.49-.545-.768l-.011-5.956c-.012 0-.012.011-.012.022z" clip-rule="evenodd"/>
        <path fill="#70E0AD" fill-rule="evenodd" d="M36.123 64.552c0-.067.01-.134.022-.2 0-.012 0-.023.011-.034l.034-.167c0-.022.01-.033.01-.056.012-.055.034-.111.056-.178 0-.011.011-.022.011-.033.023-.067.056-.134.09-.2 0-.012 0-.012.01-.023 1.993-3.696 3.552-6.279 5.612-10.02.133.256 4.631 7.983 5.678 9.987.01.01.01.022.01.033.023.045.045.1.067.156.012.022.012.033.023.056.022.055.044.111.055.178 0 .01 0 .01.012.022.022.067.033.134.044.2 0 .023 0 .034.011.056.011.056.011.1.011.156v.267c0 .067-.01.123-.022.19 0 .022-.011.033-.011.055l-.033.156c0 .022-.012.033-.012.056l-.066.2c0 .011-.012.022-.012.033-.022.056-.044.112-.077.167-.011.023-.023.034-.034.056-.022.056-.055.1-.089.156-.011.011-.022.033-.022.044-.045.067-.09.123-.134.19-.01.01-.022.033-.033.044-.045.045-.078.1-.123.145-.01.022-.033.033-.055.056-.045.055-.1.1-.156.156-.011.01-.022.022-.034.022l-.2.167c-.022.01-.044.033-.056.044-.055.045-.11.09-.167.123-.022.01-.044.033-.066.044-.078.056-.167.112-.245.156-2.272 1.358-5.99 1.392-8.328.09-.089-.056-.178-.101-.256-.157-.022-.01-.044-.033-.067-.044-.067-.045-.122-.09-.189-.134-.022-.01-.033-.022-.056-.033-.078-.056-.144-.111-.211-.167-.011-.011-.034-.022-.045-.034-.055-.044-.1-.1-.156-.144l-.055-.056c-.056-.056-.112-.111-.156-.178l-.011-.011c-.056-.067-.1-.123-.145-.19-.011-.022-.022-.033-.033-.055-.034-.056-.067-.1-.1-.156-.012-.011-.023-.033-.023-.044l-.1-.2c-.011-.012-.011-.023-.011-.045-.023-.056-.045-.112-.056-.167-.011-.023-.011-.034-.022-.056-.022-.056-.033-.123-.045-.178v-.022c-.01-.067-.022-.134-.022-.2v-.057-.156c-.033-.033-.033-.044-.033-.066z" clip-rule="evenodd"/>
        <path fill="#2BC092" fill-rule="evenodd" d="M37.392 66.756c-.022-.011-.034-.022-.056-.033-.078-.056-.145-.112-.211-.167-.011-.011-.034-.023-.045-.034-.055-.044-.1-.1-.156-.144l-.055-.056c-.056-.056-.112-.111-.156-.178l-.011-.011c-.056-.067-.1-.123-.145-.19-.011-.022-.022-.033-.034-.055-.033-.056-.066-.1-.1-.156-.01-.011-.022-.034-.022-.045l-.1-.2c-.011-.011-.011-.022-.011-.045-.023-.055-.045-.11-.056-.167-.011-.022-.011-.033-.022-.055-.023-.056-.034-.123-.045-.178v-.023c-.01-.067-.022-.133-.022-.2v-.056-.156-.055c0-.067.011-.134.022-.2 0-.012 0-.023.011-.034l.034-.167c0-.022.01-.033.01-.056.012-.055.034-.111.057-.178 0-.011.01-.022.01-.033.023-.067.056-.134.09-.2 0-.012 0-.012.01-.023 1.994-3.696 3.552-6.279 5.612-10.02l-4.453 13.193c-.067-.022-.112-.056-.156-.078z" clip-rule="evenodd"/>
        <path fill="#70E0AD" fill-rule="evenodd" d="M37.48 58.106c0-.056.012-.1.012-.156v-.023c.011-.044.011-.088.022-.133 0-.011.011-.033.011-.045.011-.044.023-.089.045-.133 0-.011 0-.011.011-.023.022-.055.045-.1.067-.155 0 0 0-.011.011-.011 1.536-2.84 2.728-4.832 4.32-7.716.1.2 3.562 6.146 4.364 7.693 0 .011.01.023.01.023.023.033.034.078.057.11.01.012.01.034.022.045.022.045.033.09.044.134 0 .011 0 .011.011.022.012.056.023.1.034.156 0 .011 0 .034.011.045.011.033.011.078.011.111V58.261c0 .045-.01.1-.022.145 0 .011 0 .034-.011.045-.011.044-.011.078-.023.122 0 .011-.01.023-.01.045-.012.055-.034.1-.056.156 0 .01-.011.022-.011.022-.023.044-.034.089-.056.122-.011.011-.011.034-.022.045-.023.044-.045.078-.067.111-.011.011-.011.023-.022.034-.034.044-.067.1-.1.144-.012.011-.023.023-.023.034-.033.033-.067.078-.1.111-.011.011-.022.034-.033.045-.034.044-.078.078-.123.122l-.022.022c-.045.045-.1.09-.156.134-.011.011-.033.022-.045.033l-.133.1c-.022.012-.034.023-.056.034l-.19.122c-1.747 1.047-4.608 1.07-6.412.067-.067-.044-.133-.078-.2-.122-.022-.011-.034-.023-.056-.034-.044-.033-.1-.066-.145-.1-.01-.011-.022-.022-.044-.033l-.167-.134-.033-.033c-.045-.034-.078-.078-.123-.112l-.044-.044c-.045-.045-.09-.09-.123-.134l-.011-.01c-.045-.045-.078-.101-.111-.145-.012-.012-.023-.023-.034-.045-.022-.034-.056-.078-.078-.123-.01-.01-.01-.022-.022-.033-.022-.044-.056-.1-.078-.156 0-.01-.011-.022-.011-.033-.022-.045-.034-.09-.045-.123 0-.01-.01-.033-.01-.044-.012-.045-.023-.09-.034-.145v-.011c-.011-.056-.011-.1-.022-.156v-.044-.123c.022-.011.022-.022.022-.033z" clip-rule="evenodd"/>
        <path fill="#2BC092" fill-rule="evenodd" d="M38.45 59.798c-.012-.011-.023-.022-.045-.034l-.167-.133-.033-.034c-.045-.033-.078-.077-.123-.11-.01-.012-.022-.023-.044-.045-.045-.045-.09-.09-.123-.134l-.01-.011c-.045-.045-.079-.1-.112-.145-.011-.01-.023-.022-.034-.044-.022-.034-.055-.078-.078-.123-.01-.01-.01-.022-.022-.033-.022-.045-.056-.1-.078-.156 0-.011-.01-.022-.01-.033-.023-.045-.034-.09-.045-.123 0-.011-.012-.033-.012-.044-.01-.045-.022-.09-.033-.145v-.011c-.011-.056-.022-.1-.022-.156v-.045-.122-.045c0-.055.01-.1.01-.156v-.022c.012-.044.012-.089.023-.133 0-.012.011-.034.011-.045.011-.044.023-.09.045-.134 0-.01 0-.01.011-.022.022-.056.044-.1.067-.156 0 0 0-.01.01-.01 1.537-2.84 2.728-4.833 4.32-7.716L38.529 59.83c-.012.011-.045-.01-.078-.033z" clip-rule="evenodd"/>
        <path fill="#86EBBC" fill-rule="evenodd" d="M41.934 53.853c.023-.523.702-.69.958-.245.612 1.069 1.358 2.382 1.625 2.883 0 0 0 .011.011.011l.034.067c0 .011.01.023.01.023.012.022.023.055.023.078v.01c.011.034.011.056.022.09v.022c0 .022.011.044.011.067V56.97c0 .033 0 .055-.01.088v.022c0 .023-.012.045-.012.067 0 .011 0 .011-.011.022-.011.034-.022.056-.033.09 0 0 0 .01-.011.01-.012.023-.023.045-.034.079 0 .01-.011.022-.011.022-.011.022-.022.044-.045.067 0 .01-.01.01-.01.022-.023.033-.034.056-.056.078 0 .011-.012.011-.012.022-.022.022-.033.045-.055.067l-.022.022-.067.067-.011.011c-.034.022-.056.056-.09.078-.01.011-.022.011-.022.022-.022.023-.044.034-.078.056-.01.011-.022.011-.033.022-.033.023-.067.045-.111.067l-.023.011c-.913.535-2.07-.167-2.037-1.224.033-.891.067-1.993.1-2.906z" clip-rule="evenodd"/>
        <path fill="#2BC092" fill-rule="evenodd" d="M46.231 61.067s-2.204.868-4.987.868c-1.024 0-2.038-.178-3.006-.49l-.479-.155 1.102-1.225s4.955.813 6.658-.223l.712 1.225z" clip-rule="evenodd"/>
        <path fill="#70E0AD" fill-rule="evenodd" d="M-9.189 80.934c0-.056.012-.123.023-.178 0-.011 0-.023.01-.034.012-.055.023-.1.034-.156 0-.022.011-.033.011-.055.011-.056.034-.1.056-.156 0-.011.011-.022.011-.022.022-.056.056-.123.078-.178 0-.012 0-.012.011-.023 1.781-3.329 3.184-5.666 5.043-9.029.123.234 4.175 7.192 5.11 9.007 0 .011.012.022.012.033l.067.134c.01.022.01.033.022.056.022.055.033.1.055.156 0 .01 0 .01.012.022.01.055.033.122.044.178 0 .011 0 .033.011.044.011.045.011.09.011.134v.244c0 .057-.01.112-.022.168 0 .022-.011.033-.011.056l-.033.133c0 .011-.012.034-.012.045-.022.055-.033.122-.055.178 0 .011-.011.022-.011.033-.023.045-.045.1-.067.145-.011.022-.022.033-.022.056-.023.044-.056.089-.078.133-.011.011-.011.022-.023.034-.033.055-.078.111-.122.167l-.033.033c-.034.045-.078.09-.112.134l-.044.044c-.045.045-.09.09-.145.134l-.022.022c-.056.056-.123.1-.178.156-.023.011-.034.022-.056.044-.045.034-.1.078-.156.112-.022.01-.045.033-.067.044-.067.045-.145.1-.222.145-2.038 1.225-5.4 1.258-7.504.078-.078-.045-.156-.09-.234-.145-.022-.01-.045-.022-.067-.044-.055-.034-.111-.078-.167-.123-.01-.01-.033-.022-.044-.033-.067-.056-.134-.1-.19-.156l-.033-.033-.134-.134-.044-.045c-.056-.055-.1-.1-.145-.155l-.011-.012-.134-.167c-.01-.01-.022-.033-.033-.044-.033-.045-.056-.09-.089-.134-.011-.01-.022-.033-.022-.044-.034-.056-.067-.123-.09-.178 0-.011-.01-.023-.01-.034-.023-.044-.034-.1-.056-.145-.011-.022-.011-.033-.011-.055-.011-.056-.034-.112-.045-.167v-.022c-.011-.056-.022-.123-.022-.178v-.045-.145c-.045 0-.045-.022-.045-.033z" clip-rule="evenodd"/>
        <path fill="#BEE9FF" d="M-32.2 25.794l.166 50.451 44.478 26.067-.253-50.856-44.39-25.662z" opacity=".2"/>
        <path fill="#EDF9FF" d="M-32.2 25.794l44.39 25.663L56.913 25.74 12.265.107-32.2 25.794z" opacity=".502"/>
        <path fill="url(#paint9_linear)" d="M-28.585 115.327l19.303 11.225 21.053-12.225-19.152-11.378-21.204 12.378z"/>
        <path fill="#CFEEFF" d="M11.79 114.739l.12 24.071L33 126.623l-.042-24.056-21.167 12.172z" opacity=".24"/>
        <path fill="#C5EBFF" d="M11.826 90.434l.041 23.902L33 126.623l-.042-24.056-21.132-12.133z" opacity=".6"/>
        <path fill="#fff" d="M-9.22 102.592l.077 23.88 21.01-12.136-.041-23.902-21.046 12.158z"/>
        <path fill="#CC7265" d="M11.123 113.991c-.014-.334.2-.67.642-.926.854-.495 2.234-.495 3.082 0 .423.247.633.567.633.889l.014 7.389c0 .325-.214.65-.643.898-.855.495-2.235.495-3.083 0-.42-.247-.632-.565-.633-.885l-.013-7.389v.024z"/>
        <path fill="#BA685C" d="M11.123 116.468c-.014-.334.2-.67.642-.926.101-.058.207-.108.316-.15l1.227 5.478c-.31-.042-.622.051-.857.256-.235.205-.37.502-.37.814v.448c-.107-.042-.212-.092-.313-.149-.42-.247-.632-.566-.633-.886l-.013-4.912v.027z"/>
        <path fill="#2BC092" d="M19.686 114.71l-6.378 3.683-6.379-3.682 6.379-9.97 6.378 9.969z"/>
        <path fill="#87EEBF" d="M13.308 118.393v-13.652l6.378 9.969-6.378 3.683z"/>
        <ellipse fill="#FFD7E2" rx="2.434" ry="4.202" transform="scale(-1 1) rotate(-89.84 56.42 60.42)"/>
        <path fill="#FFB3C3" d="M7.132 128.428c.833-.478 1.243-1.106 1.242-1.733l-.015-10.033c0 .627-.412 1.256-1.242 1.734-1.645.95-4.307.95-5.943 0-.813-.472-1.22-1.09-1.221-1.71l.015 10.034c0 .619.408 1.237 1.22 1.709 1.642.95 4.297.95 5.944 0v-.001z"/>
        <path fill="#FF8297" d="M2.473 118.907c-.455-.109-.892-.281-1.299-.511-.813-.472-1.22-1.09-1.221-1.71l.015 10.034c0 .619.408 1.237 1.22 1.709.407.23.844.402 1.298.513l-.013-10.035z"/>
        <path fill="#F47F64" d="M22.757 119.474l4.84-2.793-4.808-5.273-4.84 2.794 4.808 5.272z"/>
        <path fill="#E56955" d="M17.965 126.452l4.807 2.794-.015-9.772-4.807-5.272.015 12.25z"/>
        <path fill="#FEA084" d="M22.772 129.246l4.84-2.794-.016-9.771-4.839 2.793.015 9.772z"/>
        <circle r="3.174" fill="#FFD036" transform="matrix(-1 0 0 1 13.738 121.04)"/>
        <path fill="#FFC20C" d="M12.033 118.362c-1.034.901-.985 2.588.169 3.794 1.197 1.257 3.086 1.47 4.14.453.141-.135.264-.289.363-.457-.485 1.294-1.75 2.126-3.13 2.057-1.38-.069-2.558-1.022-2.911-2.358-.354-1.336.197-2.747 1.362-3.489h.007z"/>
        <ellipse fill="#F9E4AA" rx=".923" ry=".707" transform="scale(-1 1) rotate(-48.33 125.87 76.439)"/>
        <path fill="#BEE9FF" d="M-9.22 102.592l.079 23.88L11.91 138.81l-.12-24.071-21.01-12.147z" opacity=".303"/>
        <path fill="#EDF9FF" d="M-9.22 102.592l21.011 12.147 21.167-12.172-21.132-12.133-21.046 12.158z" opacity=".523"/>
        <path fill="url(#paint10_linear)" d="M23.236 101.565l17.162 9.978 18.715-10.868L42.088 90.56l-18.85 11.005z"/>
        <path fill="#CFEEFF" d="M59.131 101.041l.107 21.4 18.749-10.834-.038-21.386-18.818 10.82z" opacity=".24"/>
        <path fill="#C5EBFF" d="M59.163 79.434l.036 21.249 18.788 10.924-.038-21.386-18.786-10.787z" opacity=".6"/>
        <path fill="#fff" d="M40.453 90.243l.068 21.229 18.678-10.789-.036-21.249-18.71 10.809z"/>
        <path fill="url(#paint11_linear)" d="M40.503 105.001v6.592l18.748 10.803L78 111.593v-6.614L59.213 94.192l-18.71 10.809z"/>
        <path fill="url(#paint12_linear)" d="M40.503 105.001L59.182 115.8 78 104.979 59.213 94.192l-18.71 10.809z"/>
        <path fill="url(#paint13_linear)" d="M58.555 99.11c7.031 0 12.69 2.565 12.79 5.76l-.033.551c-.517 3.083-6.176 5.512-13.027 5.512-6.85 0-12.397-2.441-12.78-5.512-.01-.18-.01-.371-.01-.551.258-3.195 6.04-5.76 13.06-5.76z"/>
        <path fill="#B3B3B3" d="M51.513 96.107l-1.339.73c-.337.18-.55.575-.562 1.137-.011 1.125.844 2.509 1.901 3.071l1.35-.742c-1.057-.563-1.912-1.935-1.912-3.06.01-.563.225-.945.562-1.136z"/>
        <path fill="#B2AAAA" d="M52.886 101.158l1.35-.743c-.35.191-.833.169-1.362-.112l-1.35.742c.53.281 1.013.304 1.362.113z"/>
        <path fill="#CEC2C2" d="M49.95 96.478l.213.371c-.337.191-.54.574-.55 1.125-.012 1.125.843 2.509 1.9 3.071.439.236.855.293 1.17.191l.214.383c-.383.124-.866.056-1.395-.225-1.237-.664-2.239-2.273-2.227-3.6.022-.641.27-1.102.675-1.316z"/>
        <path fill="#999" d="M54.123 104.105l-1.361-.731c.349.191.563.585.563 1.158.01 1.159-.856 2.588-1.924 3.184l1.383.743c1.07-.597 1.924-2.037 1.913-3.195-.011-.563-.225-.968-.574-1.159z"/>
        <path fill="#B2AAAA" d="M50.017 107.862l1.384.754c.36.191.843.158 1.383-.146l-1.383-.743c-.54.293-1.035.327-1.384.135z"/>
        <path fill="#F2EDED" d="M52.773 108.47c1.069-.596 1.924-2.036 1.913-3.195-.012-.574-.225-.979-.574-1.159l.225-.382c.405.213.664.686.664 1.361.01 1.361-.99 3.037-2.239 3.735-.63.36-1.204.393-1.62.169l.236-.383c.371.18.867.146 1.395-.146z"/>
        <path fill="#999" d="M63.831 100.291l1.362.72c.348.192.82.158 1.338-.135l-1.36-.72c-.507.293-.99.327-1.34.135z"/>
        <path fill="#B2AAAA" d="M67.713 96.703l-1.35-.709c.337.18.562.563.585 1.114.045 1.114-.754 2.486-1.767 3.048l1.362.72c1.023-.573 1.81-1.946 1.766-3.06-.034-.54-.259-.933-.596-1.113z"/>
        <path fill="#F2EDED" d="M66.531 100.888c1.024-.574 1.811-1.947 1.766-3.06-.022-.484-.202-.844-.472-1.046l.225-.36c.326.236.54.652.562 1.237.057 1.305-.866 2.914-2.058 3.589-.608.337-1.159.371-1.564.157l.225-.371c.337.169.81.135 1.316-.146z"/>
        <path fill="#B2AAAA" d="M65.204 103.284l-1.328.753c-.337.192-.54.597-.528 1.17.022 1.159.922 2.565 2.002 3.139l1.328-.765c-1.08-.574-1.97-1.98-2.003-3.127-.011-.574.191-.979.529-1.17z"/>
        <path fill="#CEC2C2" d="M63.876 103.565l.203.382c-.461.124-.754.574-.731 1.249.022 1.159.922 2.565 2.002 3.139.428.225.821.292 1.136.214l.203.393c-.371.102-.833.023-1.339-.247-1.26-.675-2.306-2.329-2.34-3.679-.011-.787.326-1.305.866-1.451z"/>
        <path fill="#B2AAAA" d="M66.723 108.459l1.327-.765c-.337.202-.821.18-1.361-.113l-1.328.765c.53.281 1.013.304 1.362.113z"/>
        <path fill="#CCC" fill-rule="evenodd" d="M46.687 102.485c0 .101 0 .191.011.27.012.101.023.191.09.338.012.112.034.225.057.337.032.164.071.304.099.403l.024.092c.012.056.18.585.372.922.01 0 .01.012.01.012.195.369.373.63.461.759l.035.051c.09.123.202.27.292.382 0 .011.012.023.023.034.101.135.225.27.326.371l.158.158c.023.015.04.036.057.054l.021.024c.135.135.315.293.45.405.068.068.158.135.248.203.079.067.157.124.236.18.011.005.023.014.034.022.011.009.022.017.033.023.034.034.08.067.113.09.169.112.405.27.585.371.03.017.06.036.09.055.05.031.102.063.157.091l.08.045.078.045c.259.147.63.338.911.45h.011c.034.023.08.045.113.057.216.094.433.18.63.258l.112.045c.023.012.057.023.09.034.014 0 .023.004.03.007.006.002.01.004.015.004.006 0 .012.003.017.006.006.003.011.006.017.006.383.134.653.213.653.213.326.101.63.18.9.248.247.067.495.123.742.168h.011c.075.015.16.03.245.045l.127.023c.112.024.23.042.337.059l.124.02h.011c.259.045.596.09.844.112h.011c.023 0 .045.003.068.006.022.003.045.005.067.005h.011c.214.023.461.045.664.057.127.014.245.019.352.024.063.003.122.005.177.009.146.012.28.012.393.012.784.02 1.401-.015 1.67-.03l.074-.004c.259-.011.506-.034.788-.068l.32-.042.613-.081c.011 0 .27-.045.653-.113.022-.005.042-.008.062-.011.02-.003.039-.006.061-.011.012-.012.023-.012.034-.012.017-.005.034-.008.05-.011.018-.003.035-.005.051-.011.012 0 .023-.003.034-.006.011-.002.023-.005.034-.005.011 0 .022-.003.034-.006.01-.003.022-.006.033-.006.017-.005.034-.008.051-.011.017-.003.034-.005.05-.011.006 0 .015-.003.023-.006.009-.002.017-.005.023-.005.033 0 .078-.012.123-.023.012-.011.023-.011.034-.011l.135-.034c.011-.011.023-.011.034-.011l.062-.017.062-.017c.013 0 .022-.004.03-.007.005-.002.01-.004.015-.004h.033c0-.011.012-.011.023-.011.034-.012.067-.023.112-.034.034 0 .068-.011.102-.023.013 0 .022-.003.03-.007.005-.002.01-.004.015-.004.045-.011.078-.022.112-.034l.056-.016.057-.017h.01c.09-.023.17-.045.248-.068.007-.006.01-.009.013-.01l.01-.001c.325-.103.566-.186.707-.235l.103-.035c.214-.079.472-.18.675-.27.034-.022.056-.034.09-.045.213-.09.484-.214.709-.326.236-.113.54-.281.764-.416l.097-.058c.155-.092.339-.201.477-.302.011 0 .023-.012.023-.012l.092-.059c.069-.044.134-.085.189-.132.529-.405.799-.652 1.069-.934.043-.049.087-.095.13-.14.044-.048.088-.094.128-.141.135-.157.304-.36.45-.574.026-.041.055-.081.082-.118.032-.045.063-.087.087-.129 0-.006.003-.009.006-.011.003-.003.005-.006.005-.012.057-.09.113-.18.158-.258.112-.203.202-.383.281-.552.011 0 .011-.011.011-.011.028-.048.05-.108.075-.171.016-.04.031-.082.05-.121 0-.006.002-.012.005-.017.002-.006.005-.011.005-.017 0-.006.003-.014.006-.023.003-.008.006-.016.006-.022.005-.011.008-.02.01-.028.004-.009.006-.017.012-.028 0-.006.003-.014.006-.023.002-.008.005-.017.005-.022 0-.006.003-.012.006-.017.003-.006.006-.011.006-.017.022-.079.044-.146.067-.214.01-.037.02-.077.032-.117.017-.057.034-.116.047-.175v-.011c.022-.09.045-.192.056-.282l.011-.081c.008-.055.015-.11.023-.155v-.056c.011-.079.022-.158.022-.225.011-.18.023-.416.011-.596-.01-.214-.033-.484-.078-.687-.006-.018-.01-.036-.012-.056-.003-.017-.005-.035-.01-.056 0-.011-.004-.025-.006-.04-.003-.014-.006-.028-.006-.039-.045-.202-.112-.472-.191-.664-.006-.005-.009-.014-.011-.022-.003-.009-.006-.017-.012-.023l-.19-.45c-.057-.123-.113-.247-.17-.348-.005-.006-.008-.012-.01-.017-.004-.006-.006-.011-.012-.017-.011 0-.011-.011-.011-.011-.013-.02-.025-.042-.037-.065-.023-.04-.047-.083-.076-.127-.034-.044-.067-.1-.101-.157-.006-.006-.011-.014-.017-.022-.006-.009-.011-.017-.017-.023-.006-.006-.008-.011-.011-.017l-.011-.017c-.08-.112-.158-.225-.237-.326l-.022-.022c-.011-.023-.023-.034-.034-.046-.18-.236-.439-.528-.641-.73-.191-.192-.473-.44-.686-.608-.044-.032-.088-.066-.134-.103-.036-.029-.074-.059-.114-.088-.028-.023-.056-.043-.084-.062l-.085-.062c-.053-.04-.107-.077-.158-.111-.035-.024-.069-.047-.1-.07-.075-.043-.146-.09-.214-.135-.055-.036-.107-.07-.157-.1-.178-.11-.407-.233-.614-.344l-.197-.106c-.382-.192-.832-.405-1.507-.653-.028-.011-.053-.02-.079-.028l-.078-.028c-.007-.007-.01-.01-.013-.01l-.01-.001c-.022-.006-.042-.014-.062-.023-.02-.008-.04-.017-.062-.022-.005 0-.014-.003-.022-.006-.009-.003-.017-.006-.023-.006-.022 0-.056-.01-.078-.022-.023 0-.057-.011-.08-.023-.005 0-.01-.002-.016-.005s-.011-.006-.017-.006c-.236-.079-.45-.146-.619-.191-.01 0-.02-.003-.028-.006s-.017-.005-.028-.005h-.011c-.146-.045-.259-.08-.326-.09-.034-.012-.057-.012-.057-.012-.043-.014-.087-.024-.136-.035l-.089-.02c-.19-.046-.382-.09-.54-.125-.016-.005-.036-.008-.056-.01-.02-.004-.04-.006-.056-.012-.248-.056-.506-.101-.731-.135l-.263-.038c-.19-.029-.392-.06-.559-.075-.123-.01-.267-.025-.41-.039l-.41-.04c-.212-.018-.476-.029-.707-.038l-.149-.006c-.258-.012-.596-.012-.843-.012-.147 0-.327 0-.495.012-.058 0-.119.003-.178.005-.056.003-.11.006-.16.006h-.101l-.32.022c-.11.009-.22.017-.321.023-.034.011-.068.011-.101.011-.102.011-.203.023-.316.034h-.022c-.017 0-.031.003-.045.005-.014.003-.028.006-.045.006h-.045c-.023.011-.045.011-.067.011-.023.012-.034.012-.057.012-.011.01-.033.01-.045.01-.011 0-.022.004-.034.007-.01.002-.022.005-.033.005h-.034c-.011 0-.023.003-.034.006-.011.003-.022.005-.033.005h-.045c-.124.014-.278.04-.43.067-.096.016-.192.033-.28.046-.016 0-.03.003-.044.005-.014.003-.028.006-.045.006 0 0-.034 0-.079.011l-.02.004c-.198.037-.733.137-1.33.3h-.011l-.056.017-.057.017c-.005 0-.01.003-.017.005-.005.003-.01.006-.016.006h-.045c-.093.029-.178.054-.257.077-.171.051-.317.094-.463.148l-.102.034c-.135.056-.292.112-.45.169-.067.022-.135.045-.213.078-.012 0-.642.237-1.35.62-.048.02-.092.044-.134.068-.027.016-.054.03-.08.044-.042.02-.084.046-.129.073l-.085.05c-.083.049-.162.097-.236.143l-.135.082c-.169.102-.383.248-.54.372-.011.005-.022.014-.034.022-.01.008-.022.017-.033.023l-.05.034c-.028.018-.053.034-.074.055-.259.203-.585.484-.821.72l-.068.068-.13.14c-.086.09-.175.184-.241.265-.011.023-.023.034-.034.045-.157.191-.337.439-.472.63-.023.045-.057.101-.09.146-.069.108-.146.25-.21.367l-.027.05c-.01.028-.025.056-.039.084-.014.028-.028.056-.04.084-.067.124-.123.248-.168.36-.034.079-.068.158-.09.236-.045.124-.09.27-.124.394-.006.007-.009.009-.01.013l-.001.01c-.068.258-.101.438-.101.45-.012.056-.023.112-.034.18v.033c0 .012-.003.026-.006.04-.003.014-.005.028-.005.039 0 .03-.003.056-.006.081-.003.023-.006.044-.006.065 0 .034-.002.065-.005.096s-.006.062-.006.096V102.485zm5.31-.169v-.022c0-.011 0-.023.011 0V102.181c.011 0 .011-.011.011-.022.007-.007.01-.009.01-.013.002-.002.002-.005.002-.01s.002-.011.005-.017c.003-.005.006-.011.006-.016.011-.057.034-.113.067-.169l.021-.035c.03-.05.065-.109.092-.145.044-.062.115-.144.176-.214l.049-.056.045-.045c.056-.045.124-.101.169-.146.045-.034.1-.079.157-.124l.048-.039c.03-.025.062-.052.098-.074.113-.077.252-.162.377-.238l.107-.065.085-.048c.085-.048.18-.102.264-.144.006-.005.014-.008.022-.011.009-.003.017-.005.023-.011l.124-.058c.116-.055.241-.115.348-.156.007-.006.017-.009.028-.012.009-.003.019-.005.029-.01.28-.102.663-.237.956-.327.011-.01.011-.01.022-.01.102-.035.315-.09.597-.158.022-.006.047-.012.073-.017l.073-.017.019-.004c.01-.004.024-.007.037-.007l.141-.028c.24-.046.465-.09.691-.119.029-.005.06-.008.09-.01.031-.004.062-.006.09-.012h.034l.06-.008c.135-.02.262-.038.39-.048l.304-.023c.107-.008.214-.017.304-.022.157-.011.37-.023.54-.023h.078c.122-.007.274-.005.419-.002l.2.002c.043 0 .088.003.135.005.053.003.11.007.169.007.052 0 .107.002.16.005.05.003.1.006.144.006.026 0 .056.002.087.005.033.003.069.006.104.006.083.006.166.016.245.026l.171.019c.09.011.194.025.298.04l.298.039c.169.022.394.067.563.1.011.012.022.012.034.012.202.034.393.079.55.124.111.034.255.075.386.112l.12.034c.023 0 .035 0 .057.011.06.023.13.045.2.068l.104.034c.056.011.112.033.169.056.022.011.056.022.09.034.247.101.573.247.81.36.033.022.078.045.123.067.064.032.128.07.188.105l.071.041c.113.068.236.147.326.214.08.056.18.135.26.203.078.067.157.135.224.202.054.045.108.111.156.17l.035.044c.034.056.079.124.124.191l.011.011.034.068c.011 0 .011 0 .011.011.011.023.023.056.034.09.011 0 .011.011.011.023.011.011.011.022.011.033v.012c.012.011.012.022.012.033v.158c-.011.011-.011.022-.011.034 0 .011-.003.019-.006.028-.003.008-.006.017-.006.028v.011c0 .034-.011.056-.022.079 0 .016-.006.027-.014.04l-.009.016c-.017.017-.028.041-.037.061-.002.007-.005.012-.008.018 0 .011-.011.034-.022.045-.023.045-.056.09-.09.135 0 .011-.011.022-.023.034l-.017.022c-.005.008-.01.017-.016.023 0 .005-.003.008-.006.011-.003.003-.006.005-.006.011-.01.023-.033.045-.056.068l-.112.112-.023.023c-.124.112-.292.258-.427.36l-.192.123-.19.124c-.115.073-.249.146-.366.209l-.029.016c-.033.025-.072.044-.118.065l-.05.025c-.09.045-.18.09-.26.124-.016.005-.03.011-.044.017l-.045.016c-.086.036-.195.077-.301.116l-.172.064c-.05.013-.109.033-.17.054-.047.016-.096.033-.145.048-.078.022-.157.045-.225.067l-.113.033c-.138.041-.296.087-.426.113-.136.029-.245.054-.337.075-.091.021-.164.038-.226.049-.011.011-.023.011-.034.011-.092.019-.204.037-.316.056-.093.015-.187.03-.269.046l-.067.01c-.12.019-.233.036-.338.046-.032.005-.064.008-.096.011-.033.003-.066.006-.095.011l-.283.021c-.115.009-.233.018-.336.024-.029 0-.097.003-.198.008-.095.004-.218.01-.364.015h-.529c-.048 0-.096-.003-.146-.005-.056-.003-.115-.006-.18-.006-.158 0-.338-.012-.473-.023-.09-.005-.197-.017-.303-.028-.107-.011-.214-.022-.304-.028h-.011l-.304-.039-.304-.04-.298-.056-.298-.056c-.191-.034-.383-.079-.563-.124-.01-.006-.022-.008-.033-.011-.011-.003-.023-.006-.034-.012-.304-.078-.697-.191-.99-.303-.05-.021-.094-.038-.135-.053l-.067-.026c-.147-.056-.304-.124-.473-.203-.079-.033-.157-.067-.236-.112-.006-.006-.011-.008-.017-.011-.006-.003-.011-.006-.017-.012l-.067-.033c-.023-.023-.045-.034-.068-.045-.064-.032-.127-.07-.187-.105l-.072-.041c-.012-.009-.026-.017-.041-.026-.026-.015-.054-.032-.082-.053l-.01-.001c-.004-.001-.006-.004-.013-.01-.022-.017-.048-.034-.073-.051l-.073-.051c-.006 0-.008-.003-.011-.005-.003-.003-.006-.006-.012-.006-.033-.034-.067-.056-.1-.079-.046-.045-.102-.09-.147-.123-.023-.012-.045-.034-.056-.045l-.023-.023-.135-.135c-.045-.045-.09-.09-.124-.135l-.022-.022-.023-.023c0-.011-.01-.022-.022-.034l-.011-.011c-.006-.006-.012-.014-.017-.022-.006-.009-.011-.017-.017-.023 0-.006-.003-.008-.006-.011-.002-.003-.005-.006-.005-.011-.006-.006-.009-.012-.012-.017-.002-.006-.005-.012-.01-.017-.012 0-.012-.011-.012-.011-.008-.024-.021-.048-.032-.067l-.013-.023-.034-.068-.01-.001-.001-.01c-.011-.023-.023-.056-.034-.09 0-.011-.003-.023-.005-.034-.003-.011-.006-.022-.006-.034v-.045z" clip-rule="evenodd"/>
        <path fill="#B3B3B3" fill-rule="evenodd" d="M46.687 102.485c0 .101 0 .191.011.27.012.101.023.191.09.338.012.112.034.225.057.337.032.164.071.304.099.403l.024.092c.012.056.18.585.372.922.01 0 .01.012.01.012.195.369.373.63.461.759l.035.051c.09.123.202.27.292.382 0 .011.012.023.023.034.101.135.225.27.326.371l.158.158c.023.015.04.036.057.054l.021.024c.135.135.315.293.45.405.068.068.158.135.248.203.079.067.157.124.236.18.011.005.023.014.034.022.011.009.022.017.033.023.034.034.08.067.113.09.169.112.405.27.585.371.03.017.06.036.09.055.05.031.102.063.157.091l.08.045.078.045c.259.147.63.338.911.45h.011c.034.023.08.045.113.057.216.094.433.18.63.258l.112.045c.023.012.057.023.09.034.014 0 .023.004.03.007.006.002.01.004.015.004.006 0 .012.003.017.006.006.003.011.006.017.006.383.134.653.213.653.213.326.101.63.18.9.248.247.067.495.123.742.168h.011c.075.015.16.03.245.045l.127.023c.112.024.23.042.337.059l.124.02h.011c.259.045.596.09.844.112h.011c.023 0 .045.003.068.006.022.003.045.005.067.005h.011c.214.023.461.045.664.057.127.014.245.019.352.024.063.003.122.005.177.009.146.012.28.012.393.012.784.02 1.401-.015 1.67-.03l.074-.004c.259-.011.506-.034.788-.068l.32-.042.613-.081c.011 0 .27-.045.653-.113.022-.005.042-.008.062-.011.02-.003.039-.006.061-.011.012-.012.023-.012.034-.012.017-.005.034-.008.05-.011.018-.003.035-.005.051-.011.012 0 .023-.003.034-.006.011-.002.023-.005.034-.005.011 0 .022-.003.034-.006.01-.003.022-.006.033-.006.017-.005.034-.008.051-.011.017-.003.034-.005.05-.011.006 0 .015-.003.023-.006.009-.002.017-.005.023-.005.033 0 .078-.012.123-.023.012-.011.023-.011.034-.011l.135-.034c.011-.011.023-.011.034-.011l.062-.017.062-.017c.013 0 .022-.004.03-.007.005-.002.01-.004.015-.004h.033c0-.011.012-.011.023-.011.034-.012.067-.023.112-.034.034 0 .068-.011.102-.023.013 0 .022-.003.03-.007.005-.002.01-.004.015-.004.045-.011.078-.022.112-.034l.056-.016.057-.017h.01c.09-.023.17-.045.248-.068.007-.006.01-.009.013-.01l.01-.001c.325-.103.566-.186.707-.235l.103-.035c.214-.079.472-.18.675-.27.034-.022.056-.034.09-.045.213-.09.484-.214.709-.326.236-.113.54-.281.764-.416l.097-.058c.155-.092.339-.201.477-.302.011 0 .023-.012.023-.012l.092-.059c.069-.044.134-.085.189-.132.529-.405.799-.652 1.069-.934.043-.049.087-.095.13-.14.044-.048.088-.094.128-.141.135-.157.304-.36.45-.574.026-.041.055-.081.082-.118.032-.045.063-.087.087-.129 0-.006.003-.009.006-.011.003-.003.005-.006.005-.012.057-.09.113-.18.158-.258.112-.203.202-.383.281-.552.011 0 .011-.011.011-.011.028-.048.05-.108.075-.171.016-.04.031-.082.05-.121 0-.006.002-.012.005-.017.002-.006.005-.011.005-.017 0-.006.003-.014.006-.023.003-.008.006-.016.006-.022.005-.011.008-.02.01-.028.004-.009.006-.017.012-.028 0-.006.003-.014.006-.023.002-.008.005-.017.005-.022 0-.006.003-.012.006-.017.003-.006.006-.011.006-.017.022-.079.044-.146.067-.214.01-.037.02-.077.032-.117.017-.057.034-.116.047-.175v-.011c.022-.09.045-.192.056-.282l.011-.081c.008-.055.015-.11.023-.155v-.056c.011-.079.022-.158.022-.225.011-.18.023-.416.011-.596-.01-.214-.033-.484-.078-.687-.006-.018-.01-.036-.012-.056-.003-.017-.005-.035-.01-.056 0-.011-.004-.025-.006-.04-.003-.014-.006-.028-.006-.039-.045-.202-.112-.472-.191-.664-.006-.005-.009-.014-.011-.022-.003-.009-.006-.017-.012-.023l-.19-.45c-.057-.123-.113-.247-.17-.348-.005-.006-.008-.012-.01-.017-.004-.006-.006-.011-.012-.017-.011 0-.011-.011-.011-.011-.013-.02-.025-.042-.037-.065-.023-.04-.047-.083-.076-.127-.034-.044-.067-.1-.101-.157-.006-.006-.011-.014-.017-.022-.006-.009-.011-.017-.017-.023-.006-.006-.008-.011-.011-.017l-.011-.017c-.08-.112-.158-.225-.237-.326l-.022-.022c-.011-.023-.023-.034-.034-.046-.18-.236-.439-.528-.641-.73-.191-.192-.473-.44-.686-.608-.044-.032-.088-.066-.134-.103-.036-.029-.074-.059-.114-.088-.028-.023-.056-.043-.084-.062l-.085-.062c-.053-.04-.107-.077-.158-.111-.035-.024-.069-.047-.1-.07-.075-.043-.146-.09-.214-.135-.055-.036-.107-.07-.157-.1-.178-.11-.407-.233-.614-.344l-.197-.106c-.382-.192-.832-.405-1.507-.653-.028-.011-.053-.02-.079-.028l-.078-.028c-.007-.007-.01-.01-.013-.01l-.01-.001c-.022-.006-.042-.014-.062-.023-.02-.008-.04-.017-.062-.022-.005 0-.014-.003-.022-.006-.009-.003-.017-.006-.023-.006-.022 0-.056-.01-.078-.022-.023 0-.057-.011-.08-.023-.005 0-.01-.002-.016-.005s-.011-.006-.017-.006c-.236-.079-.45-.146-.619-.191-.01 0-.02-.003-.028-.006s-.017-.005-.028-.005h-.011c-.146-.045-.259-.08-.326-.09-.034-.012-.057-.012-.057-.012-.043-.014-.087-.024-.136-.035l-.089-.02c-.19-.046-.382-.09-.54-.125-.016-.005-.036-.008-.056-.01-.02-.004-.04-.006-.056-.012-.248-.056-.506-.101-.731-.135l-.263-.038c-.19-.029-.392-.06-.559-.075-.123-.01-.267-.025-.41-.039l-.41-.04c-.212-.018-.476-.029-.707-.038l-.149-.006c-.258-.012-.596-.012-.843-.012-.147 0-.327 0-.495.012-.058 0-.119.003-.178.005-.056.003-.11.006-.16.006h-.101l-.32.022c-.11.009-.22.017-.321.023-.034.011-.068.011-.101.011-.102.011-.203.023-.316.034h-.022c-.017 0-.031.003-.045.005-.014.003-.028.006-.045.006h-.045c-.023.011-.045.011-.067.011-.023.012-.034.012-.057.012-.011.01-.033.01-.045.01-.011 0-.022.004-.034.007-.01.002-.022.005-.033.005h-.034c-.011 0-.023.003-.034.006-.011.003-.022.005-.033.005h-.045c-.124.014-.278.04-.43.067-.096.016-.192.033-.28.046-.016 0-.03.003-.044.005-.014.003-.028.006-.045.006 0 0-.034 0-.079.011l-.02.004c-.198.037-.733.137-1.33.3h-.011l-.056.017-.057.017c-.005 0-.01.003-.017.005-.005.003-.01.006-.016.006h-.045c-.093.029-.178.054-.257.077-.171.051-.317.094-.463.148l-.102.034c-.135.056-.292.112-.45.169-.067.022-.135.045-.213.078-.012 0-.642.237-1.35.62-.048.02-.092.044-.134.068-.027.016-.054.03-.08.044-.042.02-.084.046-.129.073l-.085.05c-.083.049-.162.097-.236.143l-.135.082c-.169.102-.383.248-.54.372-.011.005-.022.014-.034.022-.01.008-.022.017-.033.023l-.05.034c-.028.018-.053.034-.074.055-.259.203-.585.484-.821.72l-.068.068-.13.14c-.086.09-.175.184-.241.265-.011.023-.023.034-.034.045-.157.191-.337.439-.472.63-.023.045-.057.101-.09.146-.069.108-.146.25-.21.367l-.027.05c-.01.028-.025.056-.039.084-.014.028-.028.056-.04.084-.067.124-.123.248-.168.36-.034.079-.068.158-.09.236-.045.124-.09.27-.124.394-.006.007-.009.009-.01.013l-.001.01c-.068.258-.101.438-.101.45-.012.056-.023.112-.034.18v.033c0 .012-.003.026-.006.04-.003.014-.005.028-.005.039 0 .03-.003.056-.006.081-.003.023-.006.044-.006.065 0 .034-.002.065-.005.096s-.006.062-.006.096V102.485zm5.31-.169v-.022c0-.011 0-.023.011 0V102.181c.011 0 .011-.011.011-.022.007-.007.01-.009.01-.013.002-.002.002-.005.002-.01s.002-.011.005-.017c.003-.005.006-.011.006-.016.011-.057.034-.113.067-.169l.021-.035c.03-.05.065-.109.092-.145.044-.062.115-.144.176-.214l.049-.056.045-.045c.056-.045.124-.101.169-.146.045-.034.1-.079.157-.124l.048-.039c.03-.025.062-.052.098-.074.113-.077.252-.162.377-.238l.107-.065.085-.048c.085-.048.18-.102.264-.144.006-.005.014-.008.022-.011.009-.003.017-.005.023-.011l.124-.058c.116-.055.241-.115.348-.156.007-.006.017-.009.028-.012.009-.003.019-.005.029-.01.28-.102.663-.237.956-.327.011-.01.011-.01.022-.01.102-.035.315-.09.597-.158.022-.006.047-.012.073-.017l.073-.017.019-.004c.01-.004.024-.007.037-.007l.141-.028c.24-.046.465-.09.691-.119.029-.005.06-.008.09-.01.031-.004.062-.006.09-.012h.034l.06-.008c.135-.02.262-.038.39-.048l.304-.023c.107-.008.214-.017.304-.022.157-.011.37-.023.54-.023h.078c.122-.007.274-.005.419-.002l.2.002c.043 0 .088.003.135.005.053.003.11.007.169.007.052 0 .107.002.16.005.05.003.1.006.144.006.026 0 .056.002.087.005.033.003.069.006.104.006.083.006.166.016.245.026l.171.019c.09.011.194.025.298.04l.298.039c.169.022.394.067.563.1.011.012.022.012.034.012.202.034.393.079.55.124.111.034.255.075.386.112l.12.034c.023 0 .035 0 .057.011.06.023.13.045.2.068l.104.034c.056.011.112.033.169.056.022.011.056.022.09.034.247.101.573.247.81.36.033.022.078.045.123.067.064.032.128.07.188.105l.071.041c.113.068.236.147.326.214.08.056.18.135.26.203.078.067.157.135.224.202.054.045.108.111.156.17l.035.044c.034.056.079.124.124.191l.011.011.034.068c.011 0 .011 0 .011.011.011.023.023.056.034.09.011 0 .011.011.011.023.011.011.011.022.011.033v.012c.012.011.012.022.012.033v.158c-.011.011-.011.022-.011.034 0 .011-.003.019-.006.028-.003.008-.006.017-.006.028v.011c0 .034-.011.056-.022.079 0 .016-.006.027-.014.04l-.009.016c-.017.017-.028.041-.037.061-.002.007-.005.012-.008.018 0 .011-.011.034-.022.045-.023.045-.056.09-.09.135 0 .011-.011.022-.023.034l-.017.022c-.005.008-.01.017-.016.023 0 .005-.003.008-.006.011-.003.003-.006.005-.006.011-.01.023-.033.045-.056.068l-.112.112-.023.023c-.124.112-.292.258-.427.36l-.192.123-.19.124c-.115.073-.249.146-.366.209l-.029.016c-.033.025-.072.044-.118.065l-.05.025c-.09.045-.18.09-.26.124-.016.005-.03.011-.044.017l-.045.016c-.086.036-.195.077-.301.116l-.172.064c-.05.013-.109.033-.17.054-.047.016-.096.033-.145.048-.078.022-.157.045-.225.067l-.113.033c-.138.041-.296.087-.426.113-.136.029-.245.054-.337.075-.091.021-.164.038-.226.049-.011.011-.023.011-.034.011-.092.019-.204.037-.316.056-.093.015-.187.03-.269.046l-.067.01c-.12.019-.233.036-.338.046-.032.005-.064.008-.096.011-.033.003-.066.006-.095.011l-.283.021c-.115.009-.233.018-.336.024-.029 0-.097.003-.198.008-.095.004-.218.01-.364.015h-.529c-.048 0-.096-.003-.146-.005-.056-.003-.115-.006-.18-.006-.158 0-.338-.012-.473-.023-.09-.005-.197-.017-.303-.028-.107-.011-.214-.022-.304-.028h-.011l-.304-.039-.304-.04-.298-.056-.298-.056c-.191-.034-.383-.079-.563-.124-.01-.006-.022-.008-.033-.011-.011-.003-.023-.006-.034-.012-.304-.078-.697-.191-.99-.303-.05-.021-.094-.038-.135-.053l-.067-.026c-.147-.056-.304-.124-.473-.203-.079-.033-.157-.067-.236-.112-.006-.006-.011-.008-.017-.011-.006-.003-.011-.006-.017-.012l-.067-.033c-.023-.023-.045-.034-.068-.045-.064-.032-.127-.07-.187-.105l-.072-.041c-.012-.009-.026-.017-.041-.026-.026-.015-.054-.032-.082-.053l-.01-.001c-.004-.001-.006-.004-.013-.01-.022-.017-.048-.034-.073-.051l-.073-.051c-.006 0-.008-.003-.011-.005-.003-.003-.006-.006-.012-.006-.033-.034-.067-.056-.1-.079-.046-.045-.102-.09-.147-.123-.023-.012-.045-.034-.056-.045l-.023-.023-.135-.135c-.045-.045-.09-.09-.124-.135l-.022-.022-.023-.023c0-.011-.01-.022-.022-.034l-.011-.011c-.006-.006-.012-.014-.017-.022-.006-.009-.011-.017-.017-.023 0-.006-.003-.008-.006-.011-.002-.003-.005-.006-.005-.011-.006-.006-.009-.012-.012-.017-.002-.006-.005-.012-.01-.017-.012 0-.012-.011-.012-.011-.008-.024-.021-.048-.032-.067l-.013-.023-.034-.068-.01-.001-.001-.01c-.011-.023-.023-.056-.034-.09 0-.011-.003-.023-.005-.034-.003-.011-.006-.022-.006-.034v-.045z" clip-rule="evenodd"/>
        <path fill="#FFAA5C" fill-rule="evenodd" d="M46.687 102.485c0 .101 0 .191.011.27.012.101.023.191.09.338.012.112.034.225.057.337.032.164.071.304.099.403l.024.092c.012.056.18.585.372.922.01 0 .01.012.01.012.195.369.373.63.461.759l.035.051c.09.123.202.27.292.382 0 .011.012.023.023.034.101.135.225.27.326.371l.158.158c.023.015.04.036.057.054l.021.024c.135.135.315.293.45.405.068.068.158.135.248.203.079.067.157.124.236.18.011.005.023.014.034.022.011.009.022.017.033.023.034.034.08.067.113.09.169.112.405.27.585.371.03.017.06.036.09.055.05.031.102.063.157.091l.08.045.078.045c.259.147.63.338.911.45h.011c.034.023.08.045.113.057.216.094.433.18.63.258l.112.045c.023.012.057.023.09.034.014 0 .023.004.03.007.006.002.01.004.015.004.006 0 .012.003.017.006.006.003.011.006.017.006.383.134.653.213.653.213.326.101.63.18.9.248.247.067.495.123.742.168h.011c.075.015.16.03.245.045l.127.023c.112.024.23.042.337.059l.124.02h.011c.259.045.596.09.844.112h.011c.023 0 .045.003.068.006.022.003.045.005.067.005h.011c.214.023.461.045.664.057.127.014.245.019.352.024.063.003.122.005.177.009.146.012.28.012.393.012.784.02 1.401-.015 1.67-.03l.074-.004c.259-.011.506-.034.788-.068l.32-.042.613-.081c.011 0 .27-.045.653-.113.022-.005.042-.008.062-.011.02-.003.039-.006.061-.011.012-.012.023-.012.034-.012.017-.005.034-.008.05-.011.018-.003.035-.005.051-.011.012 0 .023-.003.034-.006.011-.002.023-.005.034-.005.011 0 .022-.003.034-.006.01-.003.022-.006.033-.006.017-.005.034-.008.051-.011.017-.003.034-.005.05-.011.006 0 .015-.003.023-.006.009-.002.017-.005.023-.005.033 0 .078-.012.123-.023.012-.011.023-.011.034-.011l.135-.034c.011-.011.023-.011.034-.011l.062-.017.062-.017c.013 0 .022-.004.03-.007.005-.002.01-.004.015-.004h.033c0-.011.012-.011.023-.011.034-.012.067-.023.112-.034.034 0 .068-.011.102-.023.013 0 .022-.003.03-.007.005-.002.01-.004.015-.004.045-.011.078-.022.112-.034l.056-.016.057-.017h.01c.09-.023.17-.045.248-.068.007-.006.01-.009.013-.01l.01-.001c.325-.103.566-.186.707-.235l.103-.035c.214-.079.472-.18.675-.27.034-.022.056-.034.09-.045.213-.09.484-.214.709-.326.236-.113.54-.281.764-.416l.097-.058c.155-.092.339-.201.477-.302.011 0 .023-.012.023-.012l.092-.059c.069-.044.134-.085.189-.132.529-.405.799-.652 1.069-.934.043-.049.087-.095.13-.14.044-.048.088-.094.128-.141.135-.157.304-.36.45-.574.026-.041.055-.081.082-.118.032-.045.063-.087.087-.129 0-.006.003-.009.006-.011.003-.003.005-.006.005-.012.057-.09.113-.18.158-.258.112-.203.202-.383.281-.552.011 0 .011-.011.011-.011.028-.048.05-.108.075-.171.016-.04.031-.082.05-.121 0-.006.002-.012.005-.017.002-.006.005-.011.005-.017 0-.006.003-.014.006-.023.003-.008.006-.016.006-.022.005-.011.008-.02.01-.028.004-.009.006-.017.012-.028 0-.006.003-.014.006-.023.002-.008.005-.017.005-.022 0-.006.003-.012.006-.017.003-.006.006-.011.006-.017.022-.079.044-.146.067-.214.01-.037.02-.077.032-.117.017-.057.034-.116.047-.175v-.011c.022-.09.045-.192.056-.282l.011-.081c.008-.055.015-.11.023-.155v-.056c.011-.079.022-.158.022-.225.011-.18.023-.416.011-.596-.01-.214-.033-.484-.078-.687-.006-.018-.01-.036-.012-.056-.003-.017-.005-.035-.01-.056 0-.011-.004-.025-.006-.04-.003-.014-.006-.028-.006-.039-.045-.202-.112-.472-.191-.664-.006-.005-.009-.014-.011-.022-.003-.009-.006-.017-.012-.023l-.19-.45c-.057-.123-.113-.247-.17-.348-.005-.006-.008-.012-.01-.017-.004-.006-.006-.011-.012-.017-.011 0-.011-.011-.011-.011-.013-.02-.025-.042-.037-.065-.023-.04-.047-.083-.076-.127-.034-.044-.067-.1-.101-.157-.006-.006-.011-.014-.017-.022-.006-.009-.011-.017-.017-.023-.006-.006-.008-.011-.011-.017l-.011-.017c-.08-.112-.158-.225-.237-.326l-.022-.022c-.011-.023-.023-.034-.034-.046-.18-.236-.439-.528-.641-.73-.191-.192-.473-.44-.686-.608-.044-.032-.088-.066-.134-.103-.036-.029-.074-.059-.114-.088-.028-.023-.056-.043-.084-.062l-.085-.062c-.053-.04-.107-.077-.158-.111-.035-.024-.069-.047-.1-.07-.075-.043-.146-.09-.214-.135-.055-.036-.107-.07-.157-.1-.178-.11-.407-.233-.614-.344l-.197-.106c-.382-.192-.832-.405-1.507-.653-.028-.011-.053-.02-.079-.028l-.078-.028c-.007-.007-.01-.01-.013-.01l-.01-.001c-.022-.006-.042-.014-.062-.023-.02-.008-.04-.017-.062-.022-.005 0-.014-.003-.022-.006-.009-.003-.017-.006-.023-.006-.022 0-.056-.01-.078-.022-.023 0-.057-.011-.08-.023-.005 0-.01-.002-.016-.005s-.011-.006-.017-.006c-.236-.079-.45-.146-.619-.191-.01 0-.02-.003-.028-.006s-.017-.005-.028-.005h-.011c-.146-.045-.259-.08-.326-.09-.034-.012-.057-.012-.057-.012-.043-.014-.087-.024-.136-.035l-.089-.02c-.19-.046-.382-.09-.54-.125-.016-.005-.036-.008-.056-.01-.02-.004-.04-.006-.056-.012-.248-.056-.506-.101-.731-.135l-.263-.038c-.19-.029-.392-.06-.559-.075-.123-.01-.267-.025-.41-.039l-.41-.04c-.212-.018-.476-.029-.707-.038l-.149-.006c-.258-.012-.596-.012-.843-.012-.147 0-.327 0-.495.012-.058 0-.119.003-.178.005-.056.003-.11.006-.16.006h-.101l-.32.022c-.11.009-.22.017-.321.023-.034.011-.068.011-.101.011-.102.011-.203.023-.316.034h-.022c-.017 0-.031.003-.045.005-.014.003-.028.006-.045.006h-.045c-.023.011-.045.011-.067.011-.023.012-.034.012-.057.012-.011.01-.033.01-.045.01-.011 0-.022.004-.034.007-.01.002-.022.005-.033.005h-.034c-.011 0-.023.003-.034.006-.011.003-.022.005-.033.005h-.045c-.124.014-.278.04-.43.067-.096.016-.192.033-.28.046-.016 0-.03.003-.044.005-.014.003-.028.006-.045.006 0 0-.034 0-.079.011l-.02.004c-.198.037-.733.137-1.33.3h-.011l-.056.017-.057.017c-.005 0-.01.003-.017.005-.005.003-.01.006-.016.006h-.045c-.093.029-.178.054-.257.077-.171.051-.317.094-.463.148l-.102.034c-.135.056-.292.112-.45.169-.067.022-.135.045-.213.078-.012 0-.642.237-1.35.62-.048.02-.092.044-.134.068-.027.016-.054.03-.08.044-.042.02-.084.046-.129.073l-.085.05c-.083.049-.162.097-.236.143l-.135.082c-.169.102-.383.248-.54.372-.011.005-.022.014-.034.022-.01.008-.022.017-.033.023l-.05.034c-.028.018-.053.034-.074.055-.259.203-.585.484-.821.72l-.068.068-.13.14c-.086.09-.175.184-.241.265-.011.023-.023.034-.034.045-.157.191-.337.439-.472.63-.023.045-.057.101-.09.146-.069.108-.146.25-.21.367l-.027.05c-.01.028-.025.056-.039.084-.014.028-.028.056-.04.084-.067.124-.123.248-.168.36-.034.079-.068.158-.09.236-.045.124-.09.27-.124.394-.006.007-.009.009-.01.013l-.001.01c-.068.258-.101.438-.101.45-.012.056-.023.112-.034.18v.033c0 .012-.003.026-.006.04-.003.014-.005.028-.005.039 0 .03-.003.056-.006.081-.003.023-.006.044-.006.065 0 .034-.002.065-.005.096s-.006.062-.006.096V102.485zm5.31-.169v-.022c0-.011 0-.023.011 0V102.181c.011 0 .011-.011.011-.022.007-.007.01-.009.01-.013.002-.002.002-.005.002-.01s.002-.011.005-.017c.003-.005.006-.011.006-.016.011-.057.034-.113.067-.169l.021-.035c.03-.05.065-.109.092-.145.044-.062.115-.144.176-.214l.049-.056.045-.045c.056-.045.124-.101.169-.146.045-.034.1-.079.157-.124l.048-.039c.03-.025.062-.052.098-.074.113-.077.252-.162.377-.238l.107-.065.085-.048c.085-.048.18-.102.264-.144.006-.005.014-.008.022-.011.009-.003.017-.005.023-.011l.124-.058c.116-.055.241-.115.348-.156.007-.006.017-.009.028-.012.009-.003.019-.005.029-.01.28-.102.663-.237.956-.327.011-.01.011-.01.022-.01.102-.035.315-.09.597-.158.022-.006.047-.012.073-.017l.073-.017.019-.004c.01-.004.024-.007.037-.007l.141-.028c.24-.046.465-.09.691-.119.029-.005.06-.008.09-.01.031-.004.062-.006.09-.012h.034l.06-.008c.135-.02.262-.038.39-.048l.304-.023c.107-.008.214-.017.304-.022.157-.011.37-.023.54-.023h.078c.122-.007.274-.005.419-.002l.2.002c.043 0 .088.003.135.005.053.003.11.007.169.007.052 0 .107.002.16.005.05.003.1.006.144.006.026 0 .056.002.087.005.033.003.069.006.104.006.083.006.166.016.245.026l.171.019c.09.011.194.025.298.04l.298.039c.169.022.394.067.563.1.011.012.022.012.034.012.202.034.393.079.55.124.111.034.255.075.386.112l.12.034c.023 0 .035 0 .057.011.06.023.13.045.2.068l.104.034c.056.011.112.033.169.056.022.011.056.022.09.034.247.101.573.247.81.36.033.022.078.045.123.067.064.032.128.07.188.105l.071.041c.113.068.236.147.326.214.08.056.18.135.26.203.078.067.157.135.224.202.054.045.108.111.156.17l.035.044c.034.056.079.124.124.191l.011.011.034.068c.011 0 .011 0 .011.011.011.023.023.056.034.09.011 0 .011.011.011.023.011.011.011.022.011.033v.012c.012.011.012.022.012.033v.158c-.011.011-.011.022-.011.034 0 .011-.003.019-.006.028-.003.008-.006.017-.006.028v.011c0 .034-.011.056-.022.079 0 .016-.006.027-.014.04l-.009.016c-.017.017-.028.041-.037.061-.002.007-.005.012-.008.018 0 .011-.011.034-.022.045-.023.045-.056.09-.09.135 0 .011-.011.022-.023.034l-.017.022c-.005.008-.01.017-.016.023 0 .005-.003.008-.006.011-.003.003-.006.005-.006.011-.01.023-.033.045-.056.068l-.112.112-.023.023c-.124.112-.292.258-.427.36l-.192.123-.19.124c-.115.073-.249.146-.366.209l-.029.016c-.033.025-.072.044-.118.065l-.05.025c-.09.045-.18.09-.26.124-.016.005-.03.011-.044.017l-.045.016c-.086.036-.195.077-.301.116l-.172.064c-.05.013-.109.033-.17.054-.047.016-.096.033-.145.048-.078.022-.157.045-.225.067l-.113.033c-.138.041-.296.087-.426.113-.136.029-.245.054-.337.075-.091.021-.164.038-.226.049-.011.011-.023.011-.034.011-.092.019-.204.037-.316.056-.093.015-.187.03-.269.046l-.067.01c-.12.019-.233.036-.338.046-.032.005-.064.008-.096.011-.033.003-.066.006-.095.011l-.283.021c-.115.009-.233.018-.336.024-.029 0-.097.003-.198.008-.095.004-.218.01-.364.015h-.529c-.048 0-.096-.003-.146-.005-.056-.003-.115-.006-.18-.006-.158 0-.338-.012-.473-.023-.09-.005-.197-.017-.303-.028-.107-.011-.214-.022-.304-.028h-.011l-.304-.039-.304-.04-.298-.056-.298-.056c-.191-.034-.383-.079-.563-.124-.01-.006-.022-.008-.033-.011-.011-.003-.023-.006-.034-.012-.304-.078-.697-.191-.99-.303-.05-.021-.094-.038-.135-.053l-.067-.026c-.147-.056-.304-.124-.473-.203-.079-.033-.157-.067-.236-.112-.006-.006-.011-.008-.017-.011-.006-.003-.011-.006-.017-.012l-.067-.033c-.023-.023-.045-.034-.068-.045-.064-.032-.127-.07-.187-.105l-.072-.041c-.012-.009-.026-.017-.041-.026-.026-.015-.054-.032-.082-.053l-.01-.001c-.004-.001-.006-.004-.013-.01-.022-.017-.048-.034-.073-.051l-.073-.051c-.006 0-.008-.003-.011-.005-.003-.003-.006-.006-.012-.006-.033-.034-.067-.056-.1-.079-.046-.045-.102-.09-.147-.123-.023-.012-.045-.034-.056-.045l-.023-.023-.135-.135c-.045-.045-.09-.09-.124-.135l-.022-.022-.023-.023c0-.011-.01-.022-.022-.034l-.011-.011c-.006-.006-.012-.014-.017-.022-.006-.009-.011-.017-.017-.023 0-.006-.003-.008-.006-.011-.002-.003-.005-.006-.005-.011-.006-.006-.009-.012-.012-.017-.002-.006-.005-.012-.01-.017-.012 0-.012-.011-.012-.011-.008-.024-.021-.048-.032-.067l-.013-.023-.034-.068-.01-.001-.001-.01c-.011-.023-.023-.056-.034-.09 0-.011-.003-.023-.005-.034-.003-.011-.006-.022-.006-.034v-.045z" clip-rule="evenodd"/>
        <path fill="#FBBE4E" d="M64.045 100.055c0 .113.011.225.034.326-.158-.067-.326-.146-.473-.202-.034-.011-.067-.023-.09-.034-.056-.022-.112-.045-.168-.056-.102-.034-.214-.068-.304-.101-.023-.012-.034-.012-.056-.012-.057-.022-.124-.033-.203-.056-.056-.169-.495-.495-.439-.697.54-2.025 1.249-2.768 2.441-3.431.135-.08.27-.135.405-.18.046.01.08.033.124.045.63.236 1.058.427 1.418.607-.192.045-.394.124-.597.236-1.203.642-2.137 2.25-2.092 3.555zM52.48 96.422c1.036.55 1.89 1.9 1.89 3.014 0 .405-.112.732-.303.945-.079.034-.158.068-.225.102-.011.011-.034.011-.045.022-.113.056-.248.135-.349.191-.146.09-.337.203-.484.304-.022.023-.056.034-.078.056.225-.213.348-.551.348-.99 0-1.113-.855-2.475-1.89-3.026-.438-.236-.843-.292-1.17-.19.102-.057.203-.125.316-.192l.652-.349c.349-.191.821-.169 1.339.113z"/>
        <path fill="#EB7000" d="M46.687 102.215v-.067-.068-.022c0-.068.012-.124.012-.192 0-.045.01-.09.01-.146 0-.022.012-.056.012-.079v-.033c.011-.068.023-.124.034-.18 0-.012.033-.192.101-.45 0-.012 0-.012.011-.023.034-.124.079-.27.124-.394.023-.078.056-.157.09-.236.045-.112.101-.236.169-.36.022-.056.056-.112.078-.169.068-.123.158-.292.237-.416.033-.045.067-.101.09-.146.135-.191.315-.439.472-.63.011-.011.023-.022.034-.045.101-.124.259-.281.371-.405l.068-.067c.236-.237.562-.518.82-.72.035-.023.068-.045.102-.08-1.102 1.092-1.744 2.408-1.732 3.803.033 3.127 3.296 5.816 5.996 7.245 1.777.945 3.825 1.428 5.86 1.518 1.07.045 2.115-.011 3.094-.168h-.022c-.012 0-.023 0-.034.011-.045.011-.079.011-.124.022-.382.068-.641.113-.652.113-.405.056-.686.09-.934.124-.281.033-.529.056-.787.067-.214.011-.878.056-1.744.034-.113 0-.248 0-.394-.011-.146-.012-.326-.012-.529-.034-.202-.011-.45-.034-.663-.056h-.011c-.045 0-.09-.012-.135-.012h-.012c-.247-.022-.585-.067-.843-.112h-.012c-.135-.023-.303-.045-.46-.079-.125-.022-.26-.045-.372-.067H55c-.248-.045-.495-.102-.743-.169-.27-.068-.574-.146-.9-.248 0 0-.27-.078-.652-.213-.012 0-.023-.011-.034-.011-.011 0-.022-.012-.045-.012-.034-.011-.068-.022-.09-.033-.225-.09-.484-.192-.742-.304-.034-.011-.08-.034-.113-.056h-.011c-.282-.113-.653-.304-.911-.45-.057-.034-.102-.057-.158-.09-.09-.045-.169-.102-.247-.147-.18-.101-.417-.258-.585-.371-.034-.022-.08-.056-.113-.09-.022-.011-.045-.034-.067-.045-.08-.056-.158-.112-.237-.18-.09-.067-.18-.135-.247-.202-.135-.113-.315-.27-.45-.405-.023-.023-.045-.057-.079-.079l-.157-.158c-.102-.101-.225-.236-.327-.371-.01-.011-.022-.022-.022-.034-.09-.112-.203-.258-.293-.382-.067-.101-.27-.383-.495-.81 0 0 0-.011-.01-.011-.192-.338-.36-.867-.372-.923-.023-.09-.079-.27-.124-.495-.022-.112-.045-.225-.056-.337l-.034-.293c-.011-.078-.011-.168-.011-.27v-.022-.158c.011-.045.011-.067.011-.101zM65.879 102.609c.011-.011.022-.034.022-.045.012-.023.023-.056.045-.079.012-.022.023-.034.023-.056.011-.023.022-.045.022-.079v-.011c0-.023.012-.034.012-.056 0-.012 0-.023.01-.034v-.011-.023-.079-.045c0-.011 0-.022-.01-.033v-.012c0-.011 0-.022-.012-.033 0-.012 0-.023-.01-.023-.012-.034-.023-.067-.035-.09 0-.011 0-.011-.01-.011l-.035-.068-.01-.011c-.046-.067-.09-.135-.125-.191-.056-.068-.123-.158-.19-.214-.068-.067-.147-.135-.226-.202-.079-.068-.18-.147-.259-.203-.09-.067-.213-.146-.326-.214-.079-.045-.168-.101-.258-.146-.046-.022-.09-.045-.124-.067-.236-.113-.563-.259-.81-.36-.034-.012-.068-.023-.09-.034-.056-.023-.113-.045-.169-.056-.101-.034-.214-.068-.304-.102-.022-.011-.033-.011-.056-.011-.157-.045-.36-.101-.506-.146-.158-.045-.349-.09-.551-.124-.012 0-.023 0-.034-.011-.169-.034-.394-.079-.563-.101-.18-.023-.416-.057-.596-.08-.124-.01-.27-.033-.416-.044-.068 0-.135-.011-.191-.011-.09 0-.203-.011-.304-.011-.113 0-.214-.012-.304-.012-.191 0-.438-.011-.618 0h-.08c-.168 0-.382.011-.54.023-.18.01-.427.033-.607.045-.146.01-.292.033-.45.056h-.033c-.057.011-.124.011-.18.022-.27.034-.54.09-.833.147-.022 0-.045.01-.056.01-.045.012-.101.023-.146.035-.282.067-.495.123-.597.157 0 0 1.575-.529 6.851-1.316.81-.169 1.643-.248 2.475-.101.956.168 2.003.765 2.194 1.732.157.81-.236 1.676-1.024 2.408 0-.012.011-.012.011-.023.012-.045.012-.056.023-.056z"/>
        <path fill="#fff" d="M51.378 103.149c.63-.349 1.193-.383 1.598-.158l1.36.732c-.415-.225-.978-.192-1.596.157-1.25.686-2.262 2.351-2.25 3.724 0 .686.258 1.158.663 1.383l-1.383-.753c-.405-.225-.664-.698-.664-1.384.011-1.35 1.035-3.015 2.272-3.701zM64.956 102.913c.394-.225.957-.203 1.587.135 1.248.663 2.306 2.294 2.35 3.644.023.675-.202 1.148-.596 1.384l-1.327.765c.394-.225.63-.709.608-1.384-.046-1.35-1.103-2.992-2.352-3.656-.63-.337-1.192-.36-1.586-.135l1.316-.753zM51.288 95.747c.405-.214.956-.192 1.575.135 1.226.652 2.228 2.238 2.239 3.554 0 .653-.236 1.125-.641 1.339l-1.35.743c.405-.225.652-.687.652-1.35 0-1.317-1.012-2.925-2.238-3.578-.62-.326-1.182-.36-1.587-.135l1.35-.708zM65.024 95.78c.596-.326 1.147-.36 1.552-.146l1.35.709c-.405-.214-.956-.18-1.552.146-1.181.653-2.126 2.25-2.081 3.566.022.653.28 1.114.686 1.328l-1.361-.72c-.405-.214-.664-.675-.687-1.328-.033-1.305.9-2.902 2.093-3.555z"/>
        <path fill="#F2EDED" d="M64.293 100.055c-.045-1.316.888-2.913 2.08-3.566.653-.36 1.26-.36 1.677-.067l-.225.36c-.349-.26-.877-.26-1.44.056-1.012.562-1.811 1.924-1.777 3.048.022.563.247.957.596 1.137l-.225.371c-.405-.225-.664-.686-.686-1.339z"/>
        <path fill="#CEC2C2" d="M67.24 107.277c-.034-1.158-.934-2.553-2.002-3.127-.44-.236-.833-.293-1.148-.203l-.202-.382c.371-.101.832-.034 1.338.236 1.25.664 2.307 2.295 2.352 3.656.022.822-.315 1.35-.878 1.497l-.202-.394c.46-.135.765-.585.742-1.283z"/>
        <path fill="#F2EDED" d="M50.49 107.615c0-1.361 1.012-3.038 2.25-3.724.618-.348 1.192-.382 1.597-.157l-.225.382c-.349-.191-.833-.157-1.373.135-1.068.585-1.923 2.014-1.923 3.184 0 .585.214.99.574 1.181l-.237.383c-.405-.225-.663-.709-.663-1.384z"/>
        <path fill="#CEC2C2" d="M53.437 100.01c0-1.125-.855-2.497-1.912-3.06-.54-.28-1.024-.303-1.362-.112l-.213-.371c.405-.214.967-.192 1.586.135 1.226.652 2.227 2.25 2.238 3.577 0 .765-.326 1.271-.855 1.429l-.213-.383c.438-.124.73-.551.73-1.215z"/>
        <path fill="#BAAEAE" d="M64.439 98.998c-.113.36-.158.72-.146 1.057.022.653.28 1.114.686 1.328l-1.361-.72c-.405-.214-.664-.675-.687-1.328-.01-.337.045-.697.158-1.046l1.35.709z"/>
        <path fill="#fff" d="M50.838 106.096c-.225.506-.348 1.024-.348 1.508 0 .686.258 1.158.663 1.383l-1.383-.753c-.405-.225-.664-.698-.664-1.384 0-.484.124-1.001.349-1.508l1.383.754z"/>
        <path fill="#BEE9FF" d="M40.452 90.243l.07 21.229 18.716 10.969-.107-21.4-18.679-10.798z" opacity=".2"/>
        <path fill="#EDF9FF" d="M40.453 90.243l18.678 10.799L77.95 90.221 59.163 79.434l-18.71 10.809z" opacity=".502"/>
    </g>
    <defs>
        <linearGradient id="paint0_linear" x1="-68.273" x2="-99.114" y1="163.293" y2="60.185" gradientUnits="userSpaceOnUse">
            <stop stop-color="#99C1D3"/>
            <stop offset=".532" stop-color="#D1D9DF"/>
            <stop offset=".58" stop-color="#D9E1E4" stop-opacity=".832"/>
            <stop offset="1" stop-color="#fff" stop-opacity=".01"/>
        </linearGradient>
        <linearGradient id="paint1_linear" x1="19.863" x2="-11.374" y1="106.192" y2="56.736" gradientUnits="userSpaceOnUse">
            <stop stop-color="#BBE2FF"/>
            <stop offset=".167" stop-color="#A9E8FF" stop-opacity=".832"/>
            <stop offset="1" stop-color="#fff" stop-opacity=".01"/>
        </linearGradient>
        <linearGradient id="paint2_linear" x1="13.823" x2="-6.17" y1="90.791" y2="56.366" gradientUnits="userSpaceOnUse">
            <stop stop-color="#BBE2FF"/>
            <stop offset=".191" stop-color="#A9E8FF" stop-opacity=".832"/>
            <stop offset="1" stop-color="#fff" stop-opacity=".01"/>
        </linearGradient>
        <linearGradient id="paint3_linear" x1="29.015" x2="17.306" y1="86.879" y2="69.053" gradientUnits="userSpaceOnUse">
            <stop stop-color="#D1D9DF"/>
            <stop offset=".167" stop-color="#C5D6DC" stop-opacity=".832"/>
            <stop offset="1" stop-color="#fff" stop-opacity=".01"/>
        </linearGradient>
        <linearGradient id="paint4_linear" x1="25.338" x2="13.887" y1="87.09" y2="71.763" gradientUnits="userSpaceOnUse">
            <stop stop-color="#BBE2FF"/>
            <stop offset=".283" stop-color="#A9E8FF" stop-opacity=".832"/>
            <stop offset="1" stop-color="#fff" stop-opacity=".01"/>
        </linearGradient>
        <linearGradient id="paint5_linear" x1="-2.401" x2="-15.823" y1="82.502" y2="55.49" gradientUnits="userSpaceOnUse">
            <stop stop-color="#D1D9DF"/>
            <stop offset=".488" stop-color="#77BBD4" stop-opacity=".832"/>
            <stop offset="1" stop-color="#fff" stop-opacity=".01"/>
        </linearGradient>
        <linearGradient id="paint6_linear" x1="25.345" x2="31.303" y1="49.126" y2="45.203" gradientUnits="userSpaceOnUse">
            <stop stop-color="#FFF0E5"/>
            <stop offset="1" stop-color="#FFDDC6"/>
        </linearGradient>
        <linearGradient id="paint7_linear" x1="31.639" x2="31.639" y1="48.025" y2="56.05" gradientUnits="userSpaceOnUse">
            <stop stop-color="#E29B6A"/>
            <stop offset="1" stop-color="#F7C9A9"/>
        </linearGradient>
        <linearGradient id="paint8_linear" x1="36.97" x2="33.033" y1="74.556" y2="66.739" gradientUnits="userSpaceOnUse">
            <stop stop-color="#D1D9DF"/>
            <stop offset=".158" stop-color="#C5D6DC" stop-opacity=".832"/>
            <stop offset="1" stop-color="#fff" stop-opacity=".01"/>
        </linearGradient>
        <linearGradient id="paint9_linear" x1="-26.294" x2="-40.892" y1="167.673" y2="118.87" gradientUnits="userSpaceOnUse">
            <stop stop-color="#99C1D3"/>
            <stop offset=".532" stop-color="#D1D9DF"/>
            <stop offset=".58" stop-color="#D9E1E4" stop-opacity=".832"/>
            <stop offset="1" stop-color="#fff" stop-opacity=".01"/>
        </linearGradient>
        <linearGradient id="paint10_linear" x1="24.964" x2="17.472" y1="128.215" y2="103.166" gradientUnits="userSpaceOnUse">
            <stop stop-color="#D1D9DF"/>
            <stop offset=".58" stop-color="#D9E1E4" stop-opacity=".832"/>
            <stop offset="1" stop-color="#fff" stop-opacity=".01"/>
        </linearGradient>
        <linearGradient id="paint11_linear" x1="77.994" x2="40.492" y1="122.405" y2="122.405" gradientUnits="userSpaceOnUse">
            <stop stop-color="#0077BF"/>
            <stop offset="1" stop-color="#005BE0"/>
        </linearGradient>
        <linearGradient id="paint12_linear" x1="77.994" x2="40.492" y1="115.806" y2="115.806" gradientUnits="userSpaceOnUse">
            <stop stop-color="#2CA3EB"/>
            <stop offset="1" stop-color="#2C77E5"/>
        </linearGradient>
        <linearGradient id="paint13_linear" x1="71.342" x2="45.487" y1="110.937" y2="110.937" gradientUnits="userSpaceOnUse">
            <stop stop-color="#0077BF"/>
            <stop offset="1" stop-color="#005BE0"/>
        </linearGradient>
        <clipPath id="clip0">
            <rect width="86" height="118" y=".934" fill="#fff" rx="4"/>
        </clipPath>
    </defs>
</svg>
