<?xml version="1.0" encoding="UTF-8"?>
<svg width="130px" height="43px" viewBox="0 0 130 43" version="1.1" xmlns="http://www.w3.org/2000/svg" xmlns:xlink="http://www.w3.org/1999/xlink">
    <!-- Generator: Sketch 59.1 (86144) - https://sketch.com -->
    <title>fortune-india-logo-edc3e587d1</title>
    <desc>Created with Sketch.</desc>
    <g id="Page-1" stroke="none" stroke-width="1" fill="none" fill-rule="evenodd">
        <g id="fortune-india-logo-edc3e587d1" fill="#000000" fill-rule="nonzero">
            <g id="Group">
                <polygon id="Path" points="105.867816 0.448275862 105.867816 16.362069 100.862069 0.448275862 95.9310345 0.448275862 95.9310345 29.5862069 100.862069 29.5862069 100.862069 15.316092 105.344828 29.5862069 110.798851 29.5862069 110.798851 0.448275862"></polygon>
                <polygon id="Path" points="12.4770115 5.37931034 12.4770115 0.448275862 5.37931034 0.448275862 0.82183908 0.448275862 0.448275862 0.448275862 0.448275862 29.5862069 5.37931034 29.5862069 5.37931034 17.1091954 9.93678161 17.1091954 9.93678161 12.1781609 5.37931034 12.1781609 5.37931034 5.37931034"></polygon>
                <path d="M22.2643678,23.1609195 L22.2643678,6.87356322 C22.2643678,5.82758621 23.0862069,4.93103448 24.2068966,4.93103448 L24.2068966,4.93103448 C25.2528736,4.93103448 26.1494253,5.75287356 26.1494253,6.87356322 L26.1494253,23.1609195 C26.1494253,24.2068966 25.3275862,25.1034483 24.2068966,25.1034483 C23.0862069,25.1034483 22.2643678,24.2068966 22.2643678,23.1609195 M17.2586207,6.87356322 L17.2586207,23.1609195 C17.2586207,26.9712644 20.3218391,30.0344828 24.1321839,30.0344828 L24.1321839,30.0344828 C27.9425287,30.0344828 31.0057471,26.9712644 31.0057471,23.1609195 L31.0057471,6.87356322 C31.0057471,3.06321839 27.9425287,0 24.1321839,0 L24.1321839,0 C20.3965517,0.0747126437 17.2586207,3.13793103 17.2586207,6.87356322" id="Shape"></path>
                <polygon id="Path" points="70.2298851 0.448275862 56.5574713 0.448275862 56.5574713 5.37931034 60.9655172 5.37931034 60.9655172 29.5862069 65.8965517 29.5862069 65.8965517 5.37931034 70.2298851 5.37931034"></polygon>
                <path d="M84.7241379,0.448275862 L84.7241379,23.1609195 C84.7241379,24.2068966 83.9022989,25.1034483 82.7816092,25.1034483 C81.6609195,25.1034483 80.8390805,24.2068966 80.8390805,23.1609195 L80.8390805,0.448275862 L75.908046,0.448275862 L75.908046,23.1609195 C75.908046,26.9712644 78.9712644,30.0344828 82.7816092,30.0344828 C86.591954,30.0344828 89.6551724,26.9712644 89.6551724,23.1609195 L89.6551724,0.448275862 L84.7241379,0.448275862 L84.7241379,0.448275862 Z" id="Path"></path>
                <polygon id="Path" points="117.298851 0.448275862 117.298851 29.5862069 129.327586 29.5862069 129.327586 24.6551724 122.229885 24.6551724 122.229885 17.1091954 126.787356 17.1091954 126.787356 12.1781609 122.229885 12.1781609 122.229885 5.37931034 129.327586 5.37931034 129.327586 0.448275862"></polygon>
                <path d="M51.8505747,29.5862069 L46.7701149,29.5862069 L43.1091954,15.7643678 C43.1091954,15.7643678 46.2471264,15.1666667 46.2471264,11.8793103 L46.2471264,7.32183908 C46.2471264,6.27586207 45.4252874,5.37931034 44.3045977,5.37931034 L42.4367816,5.37931034 L42.4367816,29.5862069 L37.5057471,29.5862069 L37.5057471,0.448275862 L44.3045977,0.448275862 C47.9655172,0.448275862 50.954023,3.36206897 51.1034483,7.02298851 L51.1034483,7.02298851 L51.1034483,11.8045977 L51.1034483,11.8045977 C51.1034483,14.7183908 50.1321839,16.7356322 48.4137931,18.0804598 L51.8505747,29.5862069 L51.8505747,29.5862069 Z" id="Path"></path>
            </g>
            <g id="XMLID_1_" transform="translate(105.344828, 32.126437)">
                <g id="Group">
                    <path d="M22.2643678,0.373563218 L23.9827586,10.0862069 L22.5632184,10.0862069 L22.3390805,8.59195402 L20.6954023,8.59195402 L20.4712644,10.0862069 L19.0517241,10.0862069 L20.7701149,0.373563218 C20.6954023,0.373563218 22.2643678,0.373563218 22.2643678,0.373563218 Z M22.1149425,7.32183908 L21.6666667,3.81034483 L21.591954,2.46551724 L21.5172414,2.46551724 L21.4425287,3.81034483 L20.9195402,7.32183908 L22.1149425,7.32183908 Z" id="Shape"></path>
                    <rect id="Rectangle" x="16.2873563" y="0.373563218" width="1.41954023" height="9.71264368"></rect>
                    <path d="M14.5689655,1.7183908 L14.5689655,8.66666667 C14.5689655,9.04022989 14.4195402,9.4137931 14.1206897,9.71264368 C13.8965517,9.93678161 13.5229885,10.0862069 13.1494253,10.0862069 L10.2356322,10.0862069 L10.2356322,0.373563218 L13.1494253,0.373563218 C13.5229885,0.373563218 13.8965517,0.522988506 14.1206897,0.82183908 C14.4195402,1.04597701 14.5689655,1.34482759 14.5689655,1.7183908 Z M13.2241379,8.51724138 L13.2241379,1.94252874 C13.2241379,1.79310345 13.0747126,1.56896552 12.8505747,1.56896552 L11.6551724,1.56896552 L11.6551724,8.81609195 L12.8505747,8.81609195 C13,8.81609195 13.2241379,8.66666667 13.2241379,8.51724138 Z" id="Shape"></path>
                    <polygon id="Path" points="8.51724138 0.373563218 8.51724138 10.0862069 7.17241379 10.0862069 5.37931034 4.55747126 5.00574713 3.13793103 4.93103448 3.13793103 5.15517241 7.09770115 5.15517241 10.0862069 3.81034483 10.0862069 3.81034483 0.373563218 5.15517241 0.373563218 6.94827586 5.90229885 7.32183908 7.32183908 7.39655172 7.32183908 7.17241379 3.36206897 7.17241379 0.373563218"></polygon>
                    <rect id="Rectangle" x="0.672413793" y="0.373563218" width="1.41954023" height="9.71264368"></rect>
                </g>
            </g>
        </g>
    </g>
</svg>