<?xml version="1.0" encoding="UTF-8"?>
<svg width="24px" height="24px" viewBox="0 0 24 24" version="1.1" xmlns="http://www.w3.org/2000/svg" xmlns:xlink="http://www.w3.org/1999/xlink">
    <!-- Generator: Sketch 53.1 (72631) - https://sketchapp.com -->
    <title>hdfc</title>
    <desc>Created with Sketch.</desc>
    <g id="hdfc" stroke="none" stroke-width="1" fill="none" fill-rule="evenodd">
        <g id="HDFC" transform="translate(2.000000, 2.000000)">
            <polygon id="Fill-1" fill="#ED232A" points="0 10.9737307 0 19.9485274 8.9768811 19.9485274 8.9768811 16.4593245 3.49128723 16.4593245 3.49128723 10.9737307"></polygon>
            <polygon id="Fill-2" fill="#ED232A" points="0 0 0 8.97979919 3.49128723 8.97979919 3.49128723 3.49128723 8.9768811 3.49128723 8.9768811 0"></polygon>
            <polygon id="Fill-3" fill="#ED232A" points="10.9714796 0 10.9714796 3.49128723 16.4595746 3.49128723 16.4595746 8.97979919 19.9483607 8.97979919 19.9483607 0"></polygon>
            <polygon id="Fill-4" fill="#ED232A" points="16.459658 10.9737307 16.459658 16.4593245 10.9715629 16.4593245 10.9715629 19.9485274 19.948444 19.9485274 19.948444 10.9737307"></polygon>
            <polygon id="Fill-5" fill="#004C8F" points="6.98299133 12.9675787 12.9675787 12.9675787 12.9675787 6.98299133 6.98299133 6.98299133"></polygon>
        </g>
    </g>
</svg>