<svg xmlns="http://www.w3.org/2000/svg" xmlns:xlink="http://www.w3.org/1999/xlink" width="80" height="80" viewBox="0 0 80 80">
    <defs>
        <rect id="ajki55r8ja" width="80" height="80" x="0" y="0" rx="8"/>
    </defs>
    <g fill="none" fill-rule="evenodd">
        <g>
            <g>
                <g>
                    <g>
                        <g transform="translate(-941 -407) translate(0 57) translate(340 326) translate(577) translate(24 24)">
                            <mask id="vkeq9mek2b" fill="#fff">
                                <use xlink:href="#ajki55r8ja"/>
                            </mask>
                            <use fill="#27BC94" fill-rule="nonzero" xlink:href="#ajki55r8ja"/>
                            <g mask="url(#vkeq9mek2b)">
                                <g>
                                    <g fill-rule="nonzero">
                                        <g fill="#FFF">
                                            <path d="M41.743 19.721l-4.135-4.806.576-6.36c.047-.528-.296-1.01-.804-1.127l-6.117-1.417-3.2-5.493c-.267-.457-.826-.642-1.306-.432l-5.756 2.522L15.244.086c-.48-.21-1.04-.025-1.305.432l-3.201 5.493-6.114 1.4c-.51.116-.854.598-.806 1.126l.576 6.359L.256 19.72c-.342.398-.341.992 0 1.39l4.138 4.806-.577 6.381c-.048.527.296 1.008.804 1.126l6.117 1.417 3.2 5.491c.266.458.827.643 1.307.43L21 38.226l5.756 2.521c.48.21 1.04.025 1.305-.432l3.201-5.493 6.117-1.417c.508-.117.851-.599.804-1.126l-.576-6.36 4.135-4.807c.343-.398.343-.992 0-1.39z" transform="translate(21 20)"/>
                                        </g>
                                        <path fill="#27BC94" d="M19.077 24.567l4.584 6.458c.223.315.153.755-.157.983-.118.086-.26.133-.405.133h-1.667c-.443 0-.858-.215-1.12-.579L14.9 24.015c-.086-.12-.133-.266-.133-.415v-.402c0-.349.278-.632.622-.632h2.051c3.432 0 5.743-1.328 6.105-3.51h-7.68c-.606 0-1.098-.5-1.098-1.115 0-.616.492-1.116 1.098-1.116h7.68c-.328-2.181-2.156-3.477-4.95-3.477h-2.576c-.682 0-1.234-.562-1.234-1.255 0-.693.552-1.254 1.234-1.254h12.163c.624 0 1.13.514 1.13 1.148 0 .634-.506 1.148-1.13 1.148h-3.654c1.155.754 1.914 2.263 2.069 3.69h1.617c.606 0 1.098.5 1.098 1.116 0 .616-.492 1.115-1.098 1.115h-1.651c-.483 3.117-3.587 5.511-7.157 5.511h-.328z" transform="translate(21 20)"/>
                                    </g>
                                    <g transform="translate(21 20) rotate(-91 35.18 6.705)">
                                        <g>
                                            <g fill="#FFF">
                                                <path d="M.866 0h11.167c.23 0 .45.093.612.258l3.265 3.318c.338.343.338.9 0 1.244l-3.265 3.318c-.162.165-.382.258-.612.258H.866c-.478 0-.866-.394-.866-.88V.88C0 .394.388 0 .866 0z" transform="rotate(1 .086 10.153) translate(.866 .88)"/>
                                            </g>
                                            <path stroke="#27BC94" stroke-width="1.752" d="M1.731 0H12.9c.459 0 .9.185 1.224.515l3.265 3.318c.676.688.676 1.802 0 2.49L14.123 9.64c-.325.33-.765.516-1.224.516H1.73C.775 10.156 0 9.368 0 8.396V1.76C0 .788.775 0 1.731 0z" transform="rotate(1 .086 10.153)"/>
                                        </g>
                                        <ellipse cx="12.33" cy="5.273" fill="#27BC94" fill-rule="nonzero" rx="1.033" ry="1.049"/>
                                    </g>
                                </g>
                            </g>
                            <g mask="url(#vkeq9mek2b)" opacity=".2">
                                <g>
                                    <g>
                                        <g fill="#FFF" fill-rule="nonzero">
                                            <path d="M1 0h10.586c.265 0 .52.105.707.293l3 3c.39.39.39 1.024 0 1.414l-3 3c-.188.188-.442.293-.707.293H1c-.552 0-1-.448-1-1V1c0-.552.448-1 1-1z" transform="rotate(-69 45.903 -37.549) rotate(1 .07 8)"/>
                                        </g>
                                    </g>
                                    <g transform="rotate(-69 45.903 -37.549) translate(10.086 3.174)">
                                        <g fill="#39C0FF">
                                            <circle cx="1" cy="1" r="1"/>
                                        </g>
                                        <circle cx="1" cy="1" r="1" stroke="#FFF"/>
                                    </g>
                                </g>
                            </g>
                            <g mask="url(#vkeq9mek2b)" opacity=".3">
                                <g>
                                    <g>
                                        <g fill="#FFF" fill-rule="nonzero">
                                            <path d="M1 0h8.221c.265 0 .52.105.707.293l2.212 2.212c.39.39.39 1.023 0 1.414L9.928 6.13c-.187.187-.442.293-.707.293H1c-.552 0-1-.448-1-1V1c0-.552.448-1 1-1z" transform="rotate(-124 30.465 32.234) rotate(1 .056 6.423)"/>
                                        </g>
                                    </g>
                                    <g transform="rotate(-124 30.465 32.234) translate(7.901 2.352)">
                                        <g fill="#39C0FF">
                                            <circle cx="1" cy="1" r="1"/>
                                        </g>
                                        <circle cx="1" cy="1" r="1" stroke="#FFF"/>
                                    </g>
                                </g>
                            </g>
                            <path fill="#FFF" fill-rule="nonzero" d="M23.542-21.793L36.65-2.568c.311.457.194 1.079-.263 1.39-.166.113-.362.174-.563.174H9.608c-.552 0-1-.448-1-1 0-.201.06-.398.174-.564L21.89-21.793c.31-.456.933-.574 1.39-.263.103.07.192.16.262.263z" mask="url(#vkeq9mek2b)" opacity=".2" transform="rotate(43 22.716 -11.617)"/>
                            <circle cx="76.508" cy="81.825" r="12" fill="#FFF" fill-rule="nonzero" mask="url(#vkeq9mek2b)" opacity=".2"/>
                            <path fill="#FFF" fill-rule="nonzero" d="M-.3 24.474l6.163 11.445c.13.243.04.546-.203.677-.073.04-.155.06-.237.06H-6.903c-.276 0-.5-.224-.5-.5 0-.083.02-.164.06-.237l6.162-11.445c.131-.243.435-.334.678-.203.086.046.157.117.203.203z" mask="url(#vkeq9mek2b)" opacity=".3" transform="rotate(-18 -.74 30.433)"/>
                            <path fill="#27BC94" fill-rule="nonzero" d="M78.7 34.566l6.163 11.446c.13.243.04.546-.203.677-.073.04-.155.06-.237.06H72.097c-.276 0-.5-.224-.5-.5 0-.083.02-.164.06-.237l6.162-11.446c.131-.243.435-.334.678-.203.086.047.157.117.203.203z" mask="url(#vkeq9mek2b)" opacity=".3" transform="rotate(-18 78.26 40.526)"/>
                        </g>
                    </g>
                </g>
            </g>
        </g>
    </g>
</svg>
