<?xml version="1.0" encoding="UTF-8"?>
<svg width="24px" height="24px" viewBox="0 0 24 24" version="1.1" xmlns="http://www.w3.org/2000/svg" xmlns:xlink="http://www.w3.org/1999/xlink">
    <!-- Generator: Sketch 57.1 (83088) - https://sketch.com -->
    <title>atom/icons/broker/IIFL-logo</title>
    <desc>Created with Sketch.</desc>
    <g id="atom/icons/broker/IIFL-logo" stroke="none" stroke-width="1" fill="none" fill-rule="evenodd">
        <g id="logo" transform="translate(1.000000, 1.000000)" fill="#F37021" fill-rule="nonzero">
            <path d="M11,0 C17.0770026,0 22,4.92299742 22,11 C22,17.0770026 17.0770026,22 11,22 C4.92299742,22 0,17.0770026 0,11 C0,4.92299742 4.92868217,0 11,0 Z M9.5162791,11.4490956 L9.9653747,10.4031008 L8.78863049,10.4031008 L9.5162791,11.4490956 Z M9.3286822,9.3002584 L9.9653747,10.4031008 L10.4372093,9.3002584 L9.3286822,9.3002584 Z M9.3286822,9.3002584 L9.9824289,7.97002584 L8.56692506,7.97002584 L9.3286822,9.3002584 Z M5.73591731,7.96434109 L7.14573643,10.7043928 L8.56124031,7.96434109 L5.73591731,7.96434109 Z M7.14573643,10.7043928 L5.6620155,13.569509 L8.6124031,13.569509 L7.90749354,12.1881137 L7.14573643,10.7043928 Z M7.87338501,9.3002584 L8.57829457,10.8351421 L8.78863049,10.4031008 L9.3286822,9.3002584 L7.87338501,9.3002584 Z M8.57829457,10.8294574 L7.91317829,12.1937984 L9.2036176,12.1937984 L8.57829457,10.8294574 Z M9.5162791,11.4490956 L9.1979328,12.1937984 L10.0392765,12.1937984 L9.5162791,11.4490956 Z M8.61808786,13.569509 L9.8289406,13.569509 L9.1979328,12.1881137 L8.61808786,13.569509 Z M9.9312661,16.1276486 L8.6124031,13.569509 L7.52093023,16.1276486 L9.9312661,16.1276486 Z M11,13.569509 L11.9664083,12.1881137 L10.0335917,12.1881137 L10.7896641,13.2682171 L11,13.569509 Z M7.34470284,5.87235142 L9.3457364,3.2630491 L5.83255814,3.2630491 L7.34470284,5.87235142 Z M9.6470284,5.87235142 L7.33901809,5.87235142 L8.55555556,7.96434109 L9.6470284,5.87235142 Z M5.73591731,7.96434109 L7.33901809,5.87235142 L4.66149871,5.87235142 L5.73591731,7.96434109 Z M5.73591731,7.96434109 L1.574677,7.96434109 L3.60413437,10.7498708 L5.73591731,7.96434109 Z M5.6620155,13.569509 L4.3374677,16.1276486 L7.52661499,16.1276486 L5.6620155,13.569509 Z M1.43824289,13.569509 L5.6620155,13.569509 L3.60413437,10.744186 L1.43824289,13.569509 Z M6.63410853,18.2139535 L9.0387597,18.2139535 L7.52093023,16.1333333 L6.63410853,18.2139535 Z M12.4837209,11.4490956 L13.2113695,10.4031008 L12.0346253,10.4031008 L12.4837209,11.4490956 Z M12.6770026,9.3002584 L11.5684755,9.3002584 L12.0403101,10.4031008 L12.6770026,9.3002584 Z M12.6770026,9.3002584 L13.4387597,7.97002584 L12.0232558,7.97002584 L12.6770026,9.3002584 Z M16.2640827,7.96434109 L13.4387597,7.96434109 L14.8542636,10.7043928 L16.2640827,7.96434109 Z M14.8599483,10.7043928 L14.0925065,12.1881137 L13.3875969,13.569509 L16.3436693,13.569509 L14.8599483,10.7043928 Z M14.1322997,9.3002584 L12.6770026,9.3002584 L13.2170543,10.4031008 L13.4273902,10.8351421 L14.1322997,9.3002584 Z M13.4273902,10.8294574 L12.8020672,12.1937984 L14.0925065,12.1937984 L13.4273902,10.8294574 Z M12.4837209,11.4490956 L11.9607235,12.1937984 L12.8020672,12.1937984 L12.4837209,11.4490956 Z M13.3875969,13.569509 L12.8077519,12.1881137 L12.1767442,13.569509 L13.3875969,13.569509 Z M12.0744186,16.1276486 L14.4847545,16.1276486 L13.3932817,13.569509 L12.0744186,16.1276486 Z M10.4315245,9.3002584 L11.5684755,9.3002584 L11,7.97002584 L10.4315245,9.3002584 Z M11,12.1937984 L11.1421189,11.9436693 L12.0346253,10.397416 L9.9653747,10.397416 L11,12.1937984 Z M11,16.1276486 L12.1710594,13.569509 L9.8346253,13.569509 L10.7385013,15.5421189 L11,16.1276486 Z M14.6609819,5.87235142 L16.1731266,3.25736434 L12.6599483,3.25736434 L14.6609819,5.87235142 Z M12.3529716,5.87235142 L13.4444444,7.96434109 L14.6609819,5.87235142 L12.3529716,5.87235142 Z M16.2640827,7.96434109 L17.344186,5.87235142 L14.6609819,5.87235142 L16.2640827,7.96434109 Z M16.2640827,7.96434109 L18.3958656,10.7498708 L20.425323,7.96434109 L16.2640827,7.96434109 Z M16.3436693,13.569509 L14.4790698,16.1276486 L17.6682171,16.1276486 L16.3436693,13.569509 Z M20.5674419,13.569509 L18.4015504,10.744186 L16.3436693,13.569509 L20.5674419,13.569509 Z M15.3715762,18.2139535 L14.4847545,16.1333333 L12.9669251,18.2139535 L15.3715762,18.2139535 Z M9.3514212,3.25736434 L12.6599483,3.25736434 L11.0056848,1.09715762 L9.3514212,3.25736434 Z M9.6470284,5.87235142 L12.3529716,5.87235142 L11,3.2630491 L9.6470284,5.87235142 Z M9.9824289,7.96434109 L12.0289406,7.96434109 L11.4093023,6.70232558 L11.0056848,5.87235142 L9.9824289,7.96434109 Z M11,18.2082687 L11.278553,17.6682171 L12.0744186,16.1219638 L9.9312661,16.1219638 L11,18.2082687 Z M11,20.9028424 L12.9612403,18.2139535 L9.0387597,18.2139535 L11,20.9028424 Z" id="iifl"></path>
        </g>
    </g>
</svg>