<?xml version="1.0" encoding="UTF-8"?>
<svg width="130px" height="31px" viewBox="0 0 130 31" version="1.1" xmlns="http://www.w3.org/2000/svg" xmlns:xlink="http://www.w3.org/1999/xlink">
    <!-- Generator: Sketch 59.1 (86144) - https://sketch.com -->
    <title>Untitled 4</title>
    <desc>Created with Sketch.</desc>
    <g id="Page-1" stroke="none" stroke-width="1" fill="none" fill-rule="evenodd">
        <path d="M52.8166465,30.3884009 L40.7120064,30.3884009 L40.7120064,26.2993862 L41.9204893,26.2993862 C42.4553916,26.2993862 42.6336923,25.9987087 42.6336923,25.4975793 L42.6336923,15.2542959 C42.6336923,14.7531666 42.4355804,14.452489 41.9204893,14.452489 L40.7120064,14.452489 L40.7120064,10.2430028 L51.4496743,10.2430028 L51.4496743,13.289869 C52.7374017,10.9044935 54.7977661,9.82205422 57.6902009,9.82205422 C61.6128174,9.82205422 63.0194122,11.3254421 63.47507,13.6709277 C64.6835526,11.0047193 66.8231617,9.82205422 69.8740861,9.82205422 C74.866507,9.82205422 75.8174443,12.24752 75.8174443,15.8356059 L75.8174443,25.4975793 C75.8174443,25.9987087 76.0551787,26.2993862 76.6495148,26.2993862 L77.679697,26.2993862 L77.679697,30.3884009 L65.7731683,30.3884009 L65.7731683,26.2993862 L66.2684483,26.2993862 C66.7637283,26.2993862 66.9816513,25.9987087 66.9816513,25.4975793 L66.9816513,16.7576838 C66.9816513,15.0939345 66.6052387,14.5729605 65.4561891,14.5729605 C63.9307274,14.5729605 63.6335596,15.8356059 63.6335596,17.8000327 L63.6335596,25.4572885 C63.6335596,25.9987087 63.8712939,26.2993862 64.3467626,26.2993862 L65.0005317,26.2993862 L65.0005317,30.3884009 L53.5892835,30.3884009 L53.5892835,26.2993862 L54.084563,26.2993862 C54.579843,26.2993862 54.7977661,25.9987087 54.7977661,25.4975793 L54.7977661,16.7576838 C54.7977661,15.0939345 54.4213535,14.5729605 53.2723043,14.5729605 C51.7468422,14.5729605 51.4496743,15.8356059 51.4496743,17.8000327 L51.4496743,25.4572885 C51.4496743,25.9987087 51.6477861,26.2993862 52.1628774,26.2993862 L52.8166465,26.2993862 L52.8166465,30.3884009 Z" id="Fill-1" fill="#F7941D" fill-rule="nonzero"></path>
        <path d="M84.6136152,0.120291079 C87.0503922,0.120291079 89.0315117,2.1248083 89.0315117,4.59036448 C89.0315117,7.0158303 87.0503922,9.02034757 84.6136152,9.02034757 C82.2164604,9.02034757 80.2353409,7.0158303 80.2353409,4.59036448 C80.2353409,2.1248083 82.2164604,0.120291079 84.6136152,0.120291079 Z M80.2749635,15.2543961 C80.2749635,14.7532668 80.0768513,14.4525892 79.5617604,14.4525892 L78.3532774,14.4525892 L78.3532774,10.243103 L89.0909452,10.243103 L89.0909452,25.4573888 C89.0909452,25.9986084 89.2890574,26.299286 89.8041483,26.299286 L90.9531978,26.299286 L90.9531978,30.3885011 L78.3532774,30.3885011 L78.3532774,26.299286 L79.5617604,26.299286 C80.0966626,26.299286 80.2749635,25.9986084 80.2749635,25.4974791 L80.2749635,15.2543961 Z" id="Fill-3" fill="#F7941D" fill-rule="nonzero"></path>
        <path d="M115.281306,10.2431031 L117.420915,10.122832 L117.757706,5.5324876 L125.900305,5.5324876 L125.900305,10.2230579 L129.327444,10.2230579 L129.327444,14.3724086 L125.900305,14.3724086 L125.900305,23.1121037 C125.900305,25.4974791 126.355764,26.2591957 128.951031,26.2591957 L129.525556,26.2591957 L129.525556,30.3484108 C127.821793,30.5488625 126.018974,30.608998 124.315409,30.608998 C119.600147,30.608998 117.460538,29.1857908 117.123747,25.136666 L117.123747,14.4124989 L115.301315,14.4124989 L115.301315,10.2431031 L115.281306,10.2431031 Z" id="Fill-7" fill="#F7941D" fill-rule="nonzero"></path>
        <path d="M103.711687,30.3884009 L91.6068483,30.3884009 L91.6068483,26.2993862 L92.8155291,26.2993862 C93.3502335,26.2993862 93.5287322,25.9987087 93.5287322,25.4975793 L93.5287322,15.2542959 C93.5287322,14.7531666 93.3306204,14.452489 92.8155291,14.452489 L91.6068483,14.452489 L91.6068483,10.2430028 L102.344714,10.2430028 L102.344714,13.3299593 C103.552999,10.9044935 105.573741,9.82205422 108.882409,9.82205422 C113.478606,9.82205422 114.667278,12.24752 114.667278,15.8356059 L114.667278,25.4975793 C114.667278,25.9987087 114.86539,26.2993862 115.459726,26.2993862 L116.529332,26.2993862 L116.529332,30.3884009 L104.464512,30.3884009 L104.464512,26.2993862 L105.118282,26.2993862 C105.613561,26.2993862 105.831287,25.9987087 105.831287,25.4975793 L105.831287,16.7576838 C105.831287,15.0939345 105.41545,14.5729605 104.306023,14.5729605 C102.78056,14.5729605 102.324903,15.8356059 102.324903,17.8000327 L102.324903,25.4572885 C102.324903,25.9987087 102.523015,26.2993862 103.038106,26.2993862 L103.691677,26.2993862 L103.691677,30.3884009 L103.711687,30.3884009 Z" id="Fill-5" fill="#F7941D" fill-rule="nonzero"></path>
        <path d="M4.89338504,26.9006612 C4.89338504,27.6623777 4.89338504,28.2236426 4.95281865,28.6646363 C5.091497,29.205856 5.38866496,29.4664433 5.70564404,29.6468498 C5.96318961,29.7671208 6.24054635,29.8272563 6.49809187,29.8473015 L6.49809187,30.1078888 L1.98111953e-05,30.1078888 L1.98111953e-05,29.8473015 C0.25756535,29.8272563 0.574544474,29.7671208 0.752845235,29.6468498 C1.12925794,29.4664433 1.40661468,29.205856 1.48585946,28.784707 C1.60472663,28.2637329 1.60472663,27.7225133 1.60472663,26.9006612 L1.60472663,13.4703958 C1.60472663,13.029402 1.60472663,12.0471886 1.54529305,11.6663303 C1.42642587,11.2654269 1.28774751,11.0048397 1.05001317,10.8244331 C0.77265643,10.6239813 0.534922087,10.583891 0.0792645926,10.5638459 L0.0792645926,10.3233038 L4.7150843,10.3233038 C4.85376265,10.3233038 4.91319626,10.343349 4.91319626,10.5638459 C4.91319626,11.1451558 4.89338504,11.8467369 4.89338504,12.909131 L4.89338504,26.9006612 Z" id="Fill-10" fill="#000000" fill-rule="nonzero"></path>
        <path d="M8.99424304,13.149653 C8.99424304,12.0872589 9.74706848,11.2654068 10.8763066,11.2654068 C12.0055447,11.2654068 12.7583702,12.1073041 12.7583702,13.149653 C12.7583702,14.192002 12.0055447,15.0338992 10.8763066,15.0338992 C9.74706848,15.0338992 8.99424304,14.192002 8.99424304,13.149653 Z M12.5602582,27.0209122 C12.5602582,27.7425384 12.5800694,28.2637129 12.6791254,28.6646163 C12.8178037,29.2459263 13.0753493,29.4664232 13.4319508,29.6468297 C13.6300627,29.7671008 13.9272307,29.8272363 14.2045874,29.8472815 L14.2045874,30.1078687 L7.70651535,30.1078687 L7.70651535,29.8472815 C7.96406091,29.8272363 8.28104,29.7671008 8.47915196,29.6468297 C8.8159423,29.4664232 9.11311022,29.1857908 9.192355,28.8049325 C9.31122217,28.3438936 9.33103339,27.7826287 9.33103339,27.000867 L9.33103339,20.2656892 C9.33103339,19.8046502 9.33103339,18.7823464 9.27159978,18.4215333 C9.192355,18.040675 9.01405426,17.7600427 8.7565087,17.6197264 C8.51877435,17.4393199 8.26122883,17.3591392 7.74613774,17.3591392 L7.74613774,17.098552 L12.4017687,17.098552 C12.540447,17.098552 12.5998806,17.1185971 12.5998806,17.2990037 C12.5800694,17.9003588 12.540447,18.5418043 12.540447,19.6442888 L12.540447,27.0209122 L12.5602582,27.0209122 Z" id="Fill-12" fill="#000000" fill-rule="nonzero"></path>
        <path d="M26.7252629,17.5796561 C26.4677173,17.7598622 26.229983,17.920424 26.0714934,18.3012823 C25.8337591,18.6420503 25.4969687,19.4037668 25.1601784,20.3859802 L21.6932193,30.187869 L20.147946,30.187869 L16.9187212,21.0073806 C16.5819309,20.0853027 16.2253293,19.1231344 16.0668398,18.7422761 C15.8092943,18.1607657 15.6111823,17.8402433 15.2942032,17.6197465 C15.0168464,17.4192947 14.6998673,17.3589588 14.3828882,17.2990237 L14.3828882,17.0582812 L21.1979394,17.0582812 L21.1979394,17.2990237 C20.8017155,17.3190689 20.4253027,17.4192947 20.1677572,17.5395658 C19.9300229,17.679882 19.7913445,18.0406951 19.7913445,18.4015082 C19.7913445,18.8623467 19.9696453,19.4438571 20.2866244,20.4260706 L22.2875551,26.8004353 L22.3469887,26.8004353 L24.5460314,20.5463416 C24.9224441,19.5039927 25.0413113,18.9226827 25.0413113,18.501734 C25.0413113,17.960314 24.8035769,17.6999272 24.5460314,17.5395658 C24.2884858,17.3992496 24.0111291,17.339114 23.7139612,17.2990237 L23.7139612,17.0582812 L27.4978995,17.0582812 L27.4978995,17.2990237 C27.2601651,17.3589588 26.9828084,17.4393399 26.7252629,17.5796561" id="Fill-14" fill="#000000" fill-rule="nonzero"></path>
        <path d="M30.9252759,22.370332 L35.2441165,22.370332 C35.9771307,22.370332 36.1950539,22.1698803 36.1950539,21.1277318 C36.1950539,19.5439627 35.9375083,18.5016138 35.4422284,17.9205042 C35.0460045,17.5196008 34.590347,17.3191491 33.8375216,17.3191491 C33.1837522,17.3191491 32.6092275,17.5594907 32.15357,18.0405748 C31.5196117,18.6619752 31.0639543,20.3457696 30.9252759,22.370332 M33.9167664,30.3884009 C31.9752693,30.3884009 30.4498072,29.7870457 29.3403803,28.7048069 C27.993219,27.4018707 27.4186943,25.6176499 27.4186943,23.6732682 C27.4186943,19.5842535 30.3111288,16.8180198 33.7978992,16.8180198 C37.6016487,16.8180198 39.2657891,19.4840277 39.2657891,21.7892225 C39.2657891,22.1097448 39.2657891,22.5707837 39.2063555,22.891707 L30.8856535,22.891707 L30.8856535,23.4930621 C30.8856535,25.9584178 31.3214998,27.6622575 32.0347028,28.4640644 C32.6686611,29.1656454 33.5403537,29.5066138 34.5705358,29.5066138 C37.0865577,29.5066138 38.3148517,27.7426386 38.8299428,25.8984828 L39.3252227,26.038799 C38.6120197,28.5241999 36.9280681,30.3884009 33.9167664,30.3884009" id="Fill-16" fill="#000000" fill-rule="nonzero"></path>
    </g>
</svg>