<?xml version="1.0" encoding="utf-8"?>
<!-- Generator: Adobe Illustrator 22.0.1, SVG Export Plug-In . SVG Version: 6.00 Build 0)  -->
<svg version="1.1" id="Layer_1" xmlns="http://www.w3.org/2000/svg" xmlns:xlink="http://www.w3.org/1999/xlink" x="0px" y="0px"
	 viewBox="0 0 107.7 30" style="enable-background:new 0 0 107.7 30;" xml:space="preserve">
<style type="text/css">
	.st0{fill:#1F7AE0;}
</style>
<title>logo (1)</title>
<desc>Created with Sketch.</desc>
<g id="icons_x2F_smalltalk-logo">
	<g id="Group-2">
		<path id="Fill-1" class="st0" d="M9.3,16.7l-6.8-3.5c-0.1,0-0.2,0-0.2,0s-0.1,0.1-0.1,0.2v6.1c0,0.1,0,0.2,0.1,0.2l2.1,1.1L6.3,24
			c0.1,0.2,0.4,0.1,0.4-0.1V22l2.4,1.2c0.1,0,0.2,0,0.2,0c0.1,0,0.1-0.1,0.1-0.2v-6.1C9.4,16.8,9.4,16.7,9.3,16.7"/>
		<path id="Fill-3" class="st0" d="M25.2,6.7c0.2-0.1,0.3-0.3,0.3-0.5s-0.1-0.4-0.3-0.4L13.3,0.1C13.2,0,13,0,12.8,0.1l-12,6.1
			C0.7,6.3,0.6,6.4,0.6,6.6S0.7,7,0.9,7l11.9,5.8c0.1,0.1,0.3,0.1,0.5,0l0,0L25.2,6.7z"/>
		<path id="Fill-6" class="st0" d="M26.6,8.5c-0.2-0.1-0.3-0.1-0.5,0L14,14.6c-0.2,0.1-0.3,0.3-0.3,0.4v13.6c0,0.2,0.1,0.3,0.2,0.4
			c0.2,0.1,0.3,0.1,0.5,0l12.1-6.2c0.2-0.1,0.3-0.3,0.3-0.4V8.9C26.8,8.7,26.7,8.5,26.6,8.5"/>
	</g>
</g>
<path id="smalltalk" class="st0" d="M40,28.9c-1.7,0-2.8-0.6-3.6-1.7l1.2-1.1c0.6,0.8,1.4,1.3,2.5,1.3s1.6-0.4,1.6-1.2
	c0-0.6-0.3-1-1.3-1.1L39.7,25c-1.8-0.2-2.9-1-2.9-2.6c0-1.7,1.3-2.7,3.3-2.7c1.6,0,2.5,0.5,3.3,1.4l-1.1,1.1c-0.5-0.5-1.2-1-2.2-1
	s-1.5,0.4-1.5,1.1s0.4,1,1.4,1.1l0.8,0.1c1.9,0.3,2.8,1.1,2.8,2.6C43.5,27.8,42.2,28.9,40,28.9z M47.5,28.7h-1.9v-8.8h1.9v1.5h0.1
	c0.4-0.9,1-1.7,2.4-1.7c1.2,0,2.2,0.6,2.6,1.8h0.1c0.3-1,1.2-1.8,2.7-1.8c1.8,0,2.8,1.3,2.8,3.4v5.6h-1.9v-5.4
	c0-1.4-0.5-2.1-1.6-2.1c-0.9,0-1.8,0.5-1.8,1.5v5.9H51v-5.4c0-1.4-0.5-2.1-1.6-2.1c-0.9,0-1.8,0.5-1.8,1.5L47.5,28.7L47.5,28.7z
	 M68.1,28.7h-1c-1,0-1.5-0.6-1.6-1.5h-0.1c-0.3,1.1-1.3,1.7-2.6,1.7c-1.8,0-2.9-1-2.9-2.6c0-1.8,1.3-2.7,3.8-2.7h1.6v-0.7
	c0-1.1-0.6-1.7-1.8-1.7c-1,0-1.7,0.5-2.1,1.2l-1.1-1c0.6-1,1.6-1.7,3.3-1.7c2.3,0,3.6,1.1,3.6,3.1v4.4h0.9V28.7z M63.4,27.5
	c1.1,0,2-0.5,2-1.4v-1.3h-1.6c-1.3,0-1.9,0.4-1.9,1.2v0.3C61.9,27.1,62.4,27.5,63.4,27.5z M73,28.7h-1.2c-1.3,0-1.9-0.7-1.9-1.8
	V16.2h1.9v11.1H73V28.7z M77.8,28.7h-1.2c-1.3,0-1.9-0.7-1.9-1.8V16.2h1.9v11.1h1.2V28.7z M83.5,28.7h-1.6c-1.3,0-2-0.7-2-1.9v-5.4
	h-1.4v-1.5h0.7c0.6,0,0.8-0.3,0.8-0.9v-1.5h1.7v2.4h1.9v1.5h-1.9v5.8h1.7v1.5H83.5z M93.2,28.7h-1c-1,0-1.5-0.6-1.6-1.5h-0.1
	c-0.3,1.1-1.3,1.7-2.6,1.7c-1.8,0-2.9-1-2.9-2.6c0-1.8,1.3-2.7,3.8-2.7h1.6v-0.7c0-1.1-0.6-1.7-1.8-1.7c-1,0-1.7,0.5-2.1,1.2l-1.1-1
	c0.6-1,1.6-1.7,3.3-1.7c2.3,0,3.6,1.1,3.6,3.1v4.4h0.9C93.2,27.2,93.2,28.7,93.2,28.7z M88.4,27.5c1.1,0,2-0.5,2-1.4v-1.3h-1.6
	c-1.3,0-1.9,0.4-1.9,1.2v0.3C86.9,27.1,87.5,27.5,88.4,27.5z M98.1,28.7h-1.2c-1.3,0-1.9-0.7-1.9-1.8V16.2h1.9v11.1h1.2V28.7z
	 M99.8,28.7V16.2h1.9v7.7h0.1l1.2-1.6l2.1-2.4h2.2l-3.1,3.4l3.5,5.4h-2.2l-2.5-4.2l-1.2,1.3v2.9C101.8,28.7,99.8,28.7,99.8,28.7z"/>
<g>
	<path class="st0" d="M45.8,3.5L45.8,3.5l-1,1.9l-2.6,4.8l-2.6-4.7l-1-1.9h-0.1v9.1h-1.8v-12H39l3.2,6h0.1l3.2-6h2.3v11.9H46V3.5
		H45.8z"/>
	<path class="st0" d="M56.9,12.6c-1,0-1.5-0.6-1.6-1.5h-0.1c-0.3,1.1-1.3,1.7-2.6,1.7c-1.8,0-2.9-1-2.9-2.6c0-1.8,1.3-2.7,3.8-2.7
		h1.6V6.7c0-1.1-0.6-1.7-1.8-1.7c-1,0-1.7,0.5-2.1,1.2l-1.1-1c0.6-1,1.6-1.7,3.3-1.7c2.3,0,3.6,1.1,3.6,3.1V11h1v1.6H56.9L56.9,12.6
		z M55.2,9.9V8.7h-1.6c-1.3,0-1.9,0.4-1.9,1.2v0.3c0,0.8,0.6,1.2,1.5,1.2C54.3,11.3,55.2,10.8,55.2,9.9z"/>
	<path class="st0" d="M59.8,0h1.9v7.7h0.1L63,6.1l2.1-2.4h2.2l-3.1,3.4l3.5,5.4h-2.2L63,8.3l-1.4,1.4v2.9h-1.9V0H59.8z"/>
	<path class="st0" d="M68.9,1.2V0.9c0-0.6,0.3-1,1.1-1s1.1,0.4,1.1,1v0.3c0,0.6-0.3,1-1.1,1S68.9,1.7,68.9,1.2z M69.1,3.7H71v8.8
		h-1.9V3.7z"/>
	<path class="st0" d="M73.6,12.6V3.7h1.9v1.5h0.1c0.4-1,1.1-1.7,2.5-1.7c1.8,0,2.9,1.3,2.9,3.4v5.6h-2V7.2c0-1.4-0.5-2.1-1.7-2.1
		c-1,0-1.9,0.5-1.9,1.5v5.9L73.6,12.6L73.6,12.6z"/>
	<path class="st0" d="M86.7,16.2c-2.9,0-4-0.8-4-2.1c0-1,0.6-1.5,1.5-1.7v-0.2c-0.6-0.2-1-0.7-1-1.4c0-0.9,0.7-1.4,1.6-1.6l0,0
		c-1-0.5-1.6-1.4-1.6-2.6c0-1.8,1.3-3,3.5-3c0.6,0,1.1,0.1,1.6,0.3V3.5c0-0.8,0.4-1.3,1.2-1.3h1.4v1.5H89v0.4
		c0.8,0.5,1.2,1.4,1.2,2.4c0,1.8-1.3,3-3.5,3c-0.4,0-0.8-0.1-1.2-0.1c-0.4,0.2-0.9,0.4-0.9,0.9s0.5,0.7,1.2,0.7H88
		c2.2,0,3.1,0.9,3.1,2.4C91.2,15.2,89.9,16.2,86.7,16.2z M87.8,12.6h-3c-0.4,0.2-0.6,0.6-0.6,1c0,0.7,0.5,1.2,1.9,1.2h1.2
		c1.4,0,2.2-0.4,2.2-1.2C89.5,13,89,12.6,87.8,12.6z M88.4,6.7V6.4c0-1-0.6-1.5-1.7-1.5S85,5.3,85,6.4v0.3c0,1,0.6,1.5,1.7,1.5
		S88.4,7.7,88.4,6.7z"/>
</g>
</svg>
