<svg height="580" width="395" xmlns="http://www.w3.org/2000/svg" xmlns:xlink="http://www.w3.org/1999/xlink"><defs><linearGradient id="a" x1="50%" x2="50%" y1="95.39%" y2="-4.779%"><stop offset="0" stop-color="#131619"/><stop offset="1" stop-color="#05080b"/></linearGradient><path id="b" d="m39.301 0h222.398c13.666 0 18.621 1.329 23.617 3.824s8.917 6.156 11.59 10.822c2.67 4.664 4.094 9.293 4.094 22.054v522.598c0 12.762-1.423 17.39-4.095 22.055-2.672 4.666-6.593 8.327-11.589 10.822s-9.951 3.824-23.617 3.824h-222.398c-13.666 0-18.621-1.329-23.617-3.824s-8.917-6.156-11.59-10.822c-2.67-4.663-4.094-9.292-4.094-22.053v-522.599c0-12.762 1.423-17.39 4.095-22.055 2.672-4.666 6.593-8.327 11.589-10.822s9.951-3.824 23.616-3.824z"/><filter id="c" height="125.3%" width="150.2%" x="-25.1%" y="-11%"><feOffset dy="10" in="SourceAlpha" result="shadowOffsetOuter1"/><feGaussianBlur in="shadowOffsetOuter1" result="shadowBlurOuter1" stdDeviation="23.5"/><feColorMatrix in="shadowBlurOuter1" values="0 0 0 0 0 0 0 0 0 0.0823529412 0 0 0 0 0.160784314 0 0 0 0.180366848 0"/></filter></defs><g fill="none" fill-rule="evenodd" transform="translate(47 37)"><use fill="#000" filter="url(#c)" xlink:href="#b"/><use fill="url(#a)" xlink:href="#b"/><circle cx="150" cy="16" fill="#fff" opacity=".2" r="3"/><path d="m18 33h267c5.523 0 10 4.477 10 10v500h-287v-500c0-5.523 4.477-10 10-10z" fill="#282c32"/></g></svg>