<svg width="17" height="14" xmlns="http://www.w3.org/2000/svg"><path d="M14.556 2.118A3.386 3.386 0 0 0 16.046.25a6.735 6.735 0 0 1-2.151.82 3.388 3.388 0 0 0-5.856 2.306c0 .264.027.522.087.77a9.608 9.608 0 0 1-6.98-3.53A3.37 3.37 0 0 0 2.2 5.124a3.306 3.306 0 0 1-1.54-.42v.041a3.379 3.379 0 0 0 2.717 3.309 3.43 3.43 0 0 1-.89.118c-.218 0-.43-.02-.637-.062a3.39 3.39 0 0 0 3.164 2.344A6.802 6.802 0 0 1 0 11.849a9.488 9.488 0 0 0 5.182 1.526c6.234 0 9.64-5.144 9.64-9.607l-.01-.435A6.874 6.874 0 0 0 16.5 1.585a6.844 6.844 0 0 1-1.944.533z" fill="#29A3F0" fill-rule="evenodd"/></svg>