<?xml version="1.0" encoding="UTF-8"?>
<svg width="130px" height="33px" viewBox="0 0 130 33" version="1.1" xmlns="http://www.w3.org/2000/svg" xmlns:xlink="http://www.w3.org/1999/xlink">
    <!-- Generator: Sketch 59.1 (86144) - https://sketch.com -->
    <title>forbes-2</title>
    <desc>Created with Sketch.</desc>
    <g id="Page-1" stroke="none" stroke-width="1" fill="none" fill-rule="evenodd">
        <g id="forbes-2" transform="translate(0.000000, 0.000000)" fill="#2C598E" fill-rule="nonzero">
            <path d="M79.2067368,9.27834384 C77.1161941,9.27834384 75.4741176,9.72681011 73.8311786,10.6220178 C73.8311786,5.8432647 73.8311786,1.51297789 73.9812424,0.020102673 L63.9744075,1.81138045 L63.9744075,2.70745055 L65.0196789,2.85665183 C66.3624904,3.15505439 66.8126815,3.90106078 67.1084968,5.69406342 C67.4094866,9.27834384 67.2585605,28.3942186 67.1084968,31.5308952 C69.7967071,32.1285627 72.6349811,32.577029 75.4732551,32.577029 C83.3886848,32.577029 88.1674379,27.6482122 88.1674379,19.8819838 C88.1674379,13.7595568 84.2847549,9.27834384 79.2067368,9.27834384 L79.2067368,9.27834384 Z M75.7716577,30.9332276 C75.1739901,30.9332276 74.4262589,30.9332276 73.9795175,30.7848888 C73.8294538,28.694346 73.6811149,19.8819838 73.8294538,12.1166179 C74.7255239,11.8173529 75.322329,11.6681516 76.0700602,11.6681516 C79.357663,11.6681516 81.1498032,15.5508346 81.1498032,20.3287252 C81.1489408,26.3045383 78.9083343,30.9332276 75.7716577,30.9332276 L75.7716577,30.9332276 Z M26.3377382,0.616907786 L0.0524401959,0.616907786 L0.0524401959,1.96058173 L1.54617785,2.109783 C3.4866569,2.40818556 4.23438816,3.60265822 4.53192828,6.44006981 C4.98125699,11.8164904 4.83119328,21.5249228 4.53192828,26.1527497 C4.23352573,28.9910237 3.48751934,30.3355601 1.54617785,30.4830365 L0.0524401959,30.7831639 L0.0524401959,31.9776366 L16.9285709,31.9776366 L16.9285709,30.7831639 L15.1364307,30.4830365 C13.1950892,30.3346976 12.4482204,28.9910237 12.1498178,26.1527497 C11.9997541,24.2105458 11.8505528,21.0738692 11.8505528,17.1920486 L15.4348333,17.3412499 C17.6754397,17.3412499 18.7198487,19.1333901 19.168315,21.6715367 L20.5128513,21.6715367 L20.5128513,11.0713465 L19.168315,11.0713465 C18.7189862,13.6103555 17.6754397,15.4016333 15.4348333,15.4016333 L11.8514153,15.551697 C11.8514153,10.4736789 12.0006165,5.69492586 12.1506803,2.85751427 L17.3770372,2.85751427 C21.4106463,2.85751427 23.5011891,5.39566087 24.9940643,9.87687382 L26.4878019,9.42840755 L26.3377382,0.616907786 L26.3377382,0.616907786 Z" id="Shape"></path>
            <path d="M34.8508354,8.97994128 C42.3186613,8.97994128 46.052143,14.0579594 46.052143,20.7780539 C46.052143,27.1997459 41.870195,32.5778914 34.4023692,32.5778914 C26.9354058,32.5778914 23.2019241,27.4990109 23.2019241,20.7780539 C23.2019241,14.3563619 27.3830096,8.97994128 34.8508354,8.97994128 Z M34.4023692,10.4736789 C31.1164913,10.4736789 30.2204212,14.9540295 30.2204212,20.7780539 C30.2204212,26.4528771 31.7141589,31.0824289 34.7016342,31.0824289 C38.134126,31.0824289 39.031921,26.6020784 39.031921,20.7780539 C39.031921,15.1032307 37.5399082,10.4736789 34.4023692,10.4736789 Z M90.1079169,20.9281176 C90.1079169,14.8048282 93.9905999,8.97994128 101.607627,8.97994128 C107.878393,8.97994128 110.866731,13.6103555 110.866731,19.7327825 L96.9772128,19.7327825 C96.8271491,25.2584044 99.5153594,29.2911511 104.892642,29.2911511 C107.28245,29.2911511 108.476923,28.6952085 109.971523,27.6490746 L110.567466,28.395081 C109.073728,30.4856238 105.788713,32.5778914 101.607627,32.5778914 C94.88667,32.577029 90.1079169,27.7982759 90.1079169,20.9281176 L90.1079169,20.9281176 Z M96.9772128,18.090706 L103.996572,17.9406423 C103.996572,14.9540295 103.548106,10.4736789 101.009959,10.4736789 C98.4718129,10.4736789 97.1255516,14.6547645 96.9772128,18.090706 L96.9772128,18.090706 Z M128.641519,10.1752764 C126.849379,9.42754512 124.460433,8.97994128 121.772223,8.97994128 C116.247463,8.97994128 112.810659,12.2649567 112.810659,16.1485021 C112.810659,20.0320475 115.347081,21.674124 118.935674,22.8694591 C122.668293,24.2122706 123.714427,25.2584044 123.714427,27.0505447 C123.714427,28.8426849 122.36989,30.4847614 119.980083,30.4847614 C117.143534,30.4847614 115.051266,28.8426849 113.409189,24.3614719 L112.363056,24.6615993 L112.513119,31.2324926 C114.305259,31.978499 117.590275,32.577029 120.428549,32.577029 C126.253436,32.577029 129.98778,29.5886913 129.98778,24.9600019 C129.98778,21.8233253 128.343979,20.0320475 124.461296,18.5374474 C120.278485,16.8953709 118.786472,15.8500996 118.786472,13.9078956 C118.786472,11.9665542 120.132734,10.6220178 121.924874,10.6220178 C124.611359,10.6220178 126.4035,12.2649567 127.749761,16.2977034 L128.79417,15.9993008 L128.641519,10.1752764 L128.641519,10.1752764 Z M65.4664203,9.57760883 C62.9282737,8.08559605 58.4470607,8.83074001 56.0581154,14.2080231 L56.2064542,8.98080372 L46.2013442,10.9221452 L46.2013442,11.8182153 L47.2466156,11.9674166 C48.5920144,12.1174803 49.1879571,12.8634867 49.3380208,14.8056906 C49.6364234,18.389971 49.4872221,24.6633242 49.3380208,27.7991384 C49.1879571,29.5895537 48.5920144,30.4856238 47.2466156,30.6356875 L46.2013442,30.7857512 L46.2013442,31.9802239 L60.0899996,31.9802239 L60.0899996,30.7857512 L58.2978594,30.6356875 C56.8049842,30.4856238 56.3565179,29.5895537 56.2064542,27.7991384 C55.9080517,24.9608643 55.9080517,19.2860411 56.0581154,15.7017607 C56.8041218,14.6556269 60.0899996,13.7604192 63.0766125,15.7017607 L65.4664203,9.57760883 Z" id="Shape"></path>
        </g>
    </g>
</svg>