<?xml version="1.0" encoding="UTF-8"?>
<svg width="24px" height="24px" viewBox="0 0 24 24" version="1.1" xmlns="http://www.w3.org/2000/svg" xmlns:xlink="http://www.w3.org/1999/xlink">
    <!-- Generator: Sketch 53.2 (72643) - https://sketchapp.com -->
    <title>kotak</title>
    <desc>Created with Sketch.</desc>
    <g id="kotak" stroke="none" stroke-width="1" fill="none" fill-rule="evenodd">
        <path d="M1.16547653e-14,11.6789405 C1.16547653e-14,5.97909993 5.37208792,1.35888278 11.9998394,1.35888278 C18.6279216,1.35888278 24,5.97909993 24,11.6789405 C24,17.3794425 18.6279216,22 11.9998394,22 C5.37208792,22 -1.77635684e-15,17.3794425 -1.77635684e-15,11.6789405" id="path33091" fill="#1F4578" fill-rule="nonzero"></path>
        <polygon id="path33093" fill="#ED3338" fill-rule="nonzero" points="10.5431181 4.6724277 13.3305179 3.75117996 13.3442223 18.8231589 10.533147 19.7650766"></polygon>
        <path d="M12.1978916,14.0722395 C10.9862334,15.5319568 9.8152631,17.0243473 7.62167975,17.0243473 C4.52286863,17.0243473 3.05514605,14.0288958 3.05514605,11.5245627 C3.05514605,9.11859895 4.20311186,6.27018144 7.22024472,6.27018144 C8.52959167,6.27018144 9.79125677,7.07105727 10.5411144,7.91761128 L10.5392241,9.960484 C9.91239423,9.53770792 8.5063509,9.12293709 7.58843949,9.10825921 C5.67460552,9.07593572 3.98649723,9.90513712 4.01683595,11.794634 C4.03649468,13.0953141 5.32451002,13.9802121 6.60685458,13.9802121 C8.57103568,13.9802121 9.76002018,12.186079 10.7549409,10.8240504 C11.0320155,10.4686243 11.8148961,9.42234521 11.9365912,9.25497192 C13.0412132,7.71222482 14.3195505,6.30252383 16.5127935,6.30252383 C19.0958087,6.30252383 20.5458574,8.38573475 20.9566398,10.5299728 L19.791671,10.5299728 C19.3228765,9.83479101 18.4206354,9.4093402 17.5307282,9.4093402 C15.5008604,9.4093402 14.2882099,11.2765036 13.2736116,12.6511969 C13.2736116,12.6511969 12.4837371,13.7281456 12.1979956,14.0722395 L12.1978916,14.0722395 Z M21.0242262,12.719218 C20.7624815,14.8754498 19.5538383,17.052361 16.9128014,17.05703 C15.3720581,17.0598654 14.1670724,16.0040782 13.3325216,14.7127454 L13.3325216,13.2173494 C14.3767971,13.73582 15.3520495,14.2906309 16.5357035,14.3086357 C17.9934172,14.3302792 19.3114311,13.7691548 19.8565826,12.719218 L21.0242262,12.719218 Z" id="path33095" fill="#FFFFFF" fill-rule="nonzero"></path>
    </g>
</svg>