<?xml version="1.0" encoding="UTF-8"?>
<svg width="130px" height="28px" viewBox="0 0 130 28" version="1.1" xmlns="http://www.w3.org/2000/svg" xmlns:xlink="http://www.w3.org/1999/xlink">
    <!-- Generator: Sketch 59.1 (86144) - https://sketch.com -->
    <title>Untitled</title>
    <desc>Created with Sketch.</desc>
    <g id="Page-1" stroke="none" stroke-width="1" fill="none" fill-rule="evenodd">
        <path d="M96.5436123,24.1988987 C85.7427313,24.1988987 74.9418502,24.1988987 64.1409692,24.1988987 C63.7671878,24.2047246 63.3993975,24.2937377 63.0643172,24.4594714 C60.1620024,25.9038515 57.0097801,26.7786588 53.7781938,27.0365639 C49.5947137,27.3801762 45.4742291,26.9162996 41.3422907,26.269163 C37.1187225,25.6277533 32.9037445,24.9118943 28.6629956,24.339207 C25.9742291,23.9870044 23.2511013,23.8552863 20.5365639,23.7235683 C13.8332599,23.4028634 7.2530837,24.2561674 0.778854626,25.9856828 C0.0114537445,26.1889868 0.00572687225,26.1889868 0.00572687225,25.4129956 C0.00190895742,18.0157856 0,10.6262115 0,3.24427313 C0,2.74603524 0.125991189,2.50837004 0.641409692,2.38524229 C4.20929165,1.4501376 7.84144399,0.780175381 11.5081498,0.380837004 C14.763353,0.00952440748 18.0440965,-0.086263723 21.3154185,0.0944933921 C25.0865639,0.329295154 28.8491189,0.767400881 32.5944934,1.26277533 C36.5689427,1.78964758 40.5090308,2.55704846 44.4834802,3.08964758 C46.7074664,3.38824456 48.9485786,3.5412868 51.192511,3.54779736 C55.4184058,3.61207463 59.5950852,2.634533 63.3535242,0.70154185 C63.6695907,0.574991146 64.0105902,0.523057315 64.35,0.549779736 C78.7129956,0.549779736 93.0750367,0.549779736 107.436123,0.549779736 L128.911894,0.549779736 C129.802423,0.549779736 129.805286,0.549779736 129.805286,1.40881057 C129.805286,8.74302496 129.805286,16.0762849 129.805286,23.4085903 C129.805286,24.2017621 129.805286,24.2017621 128.994934,24.2017621 L96.5436123,24.1988987 Z" id="Path" fill="#54AF46" fill-rule="nonzero"></path>
        <path d="M63.3535242,0.704405286 C63.6695907,0.577854582 64.0105902,0.525920752 64.35,0.552643172 C78.7129956,0.552643172 93.0750367,0.552643172 107.436123,0.552643172 L128.911894,0.552643172 C129.802423,0.552643172 129.805286,0.552643172 129.805286,1.41167401 C129.805286,8.7458884 129.805286,16.0791483 129.805286,23.4114537 C129.805286,24.2046256 129.805286,24.2046256 128.994934,24.2046256 L96.5436123,24.2046256 C85.7427313,24.2046256 74.9418502,24.2046256 64.1409692,24.2046256 C63.7671878,24.2104515 63.3993975,24.2994646 63.0643172,24.4651982 L63.3535242,0.704405286 Z" id="Path" fill="#026BA4" fill-rule="nonzero"></path>
        <path d="M7.46784141,9.34911894 C8.88237885,7.95462555 11.476652,7.80859031 12.7795154,9.63546256 C12.8911894,9.53810573 13.0028634,9.44933921 13.1059471,9.34911894 C14.1719107,8.27139809 15.7906757,7.95970336 17.1806167,8.56453744 C18.4519824,9.08568282 19.1220264,10.1823789 19.1248899,11.7601322 C19.1248899,13.6270925 19.1248899,15.4825991 19.1248899,17.3581498 C19.1248899,17.8248899 18.9931718,18.0196035 18.5121145,17.9852423 C18.0565758,17.9494477 17.5989308,17.9494477 17.1433921,17.9852423 C16.6222467,18.0253304 16.4933921,17.7991189 16.4991189,17.3180617 C16.5220264,15.6601322 16.519163,14.0050661 16.4991189,12.3471366 C16.4991189,11.2017621 15.7918502,10.6290749 14.680837,10.7865639 C13.9162996,10.8953744 13.3894273,11.5682819 13.3837004,12.4874449 C13.3837004,14.0852423 13.3579295,15.6859031 13.3837004,17.2837004 C13.3837004,17.8563877 13.2004405,18.0281938 12.6621145,17.9852423 C12.1853526,17.9550529 11.7071584,17.9550529 11.2303965,17.9852423 C10.8094714,18.0052863 10.6577093,17.8334802 10.6577093,17.4125551 C10.6577093,15.7746696 10.6577093,14.1367841 10.6577093,12.4988987 C10.6577093,11.3535242 10.1623348,10.780837 9.16585903,10.780837 C8.16938326,10.780837 7.53942731,11.4222467 7.53656388,12.553304 C7.53656388,14.1167401 7.53656388,15.6773128 7.53656388,17.2378855 C7.53656388,17.9823789 7.53656388,17.9852423 6.76343612,17.9852423 C6.34537445,17.9852423 5.9215859,17.9594714 5.50638767,17.9852423 C4.98810573,18.0253304 4.81057269,17.8420705 4.81616593,17.3066079 C4.84207048,14.9099119 4.81616593,12.5103524 4.81616593,10.110793 C4.81616593,8.52731278 4.81616593,8.52731278 6.41696035,8.52731278 L6.58876652,8.52731278 C7.39911894,8.53017621 7.39911894,8.53017621 7.46784141,9.34911894 Z" id="Path" fill="#FFFFFF" fill-rule="nonzero"></path>
        <path d="M45.4370044,14.030837 C45.3625551,14.9270925 46.2731278,15.6773128 46.9746696,15.8462555 C47.9539648,16.0781938 48.9218062,15.8118943 49.334141,15.0387665 C49.6204846,14.5319383 49.9068282,14.5290749 50.3420705,14.6980176 C50.6982313,14.8320069 51.0626396,14.9429554 51.4330396,15.0301762 C51.8138767,15.1218062 51.8625551,15.3165198 51.7193833,15.6601322 C51.2701579,16.7719452 50.3533869,17.6289952 49.2138767,18.0024229 C47.0004405,18.7640969 44.535022,17.9337004 43.3867841,15.960793 C41.8319383,13.2834802 42.7625551,9.12577093 46.3848018,8.39559471 C50.0070485,7.6654185 52.2176211,10.1136564 52,13.6099119 C51.9742291,14.030837 51.6707048,14.030837 51.3900881,14.030837 C50.0585903,14.030837 48.7270925,14.030837 47.3955947,14.030837 C46.754185,14.030837 46.1013216,14.030837 45.4370044,14.030837 Z M45.5171806,12.0121145 L49.2825991,12.0121145 C49.039207,10.8667401 48.4006608,10.4515419 47.0977974,10.5403084 C46.2780566,10.5615264 45.6038302,11.1926908 45.5286344,12.0092511 L45.5171806,12.0121145 Z" id="Shape" fill="#FFFFFF" fill-rule="nonzero"></path>
        <path d="M30.6387665,13.2605727 C30.6387665,16.1240088 28.5198238,18.2944934 25.7079295,18.2773128 C24.3790348,18.2916062 23.1012162,17.7660639 22.1669045,16.8209571 C21.2325927,15.8758503 20.7217637,14.5920789 20.7513216,13.2634361 C20.7129041,11.9438519 21.2152594,10.6658536 22.141959,9.7256375 C23.0686585,8.78542135 24.339249,8.26461399 25.6592511,8.2839207 C28.6085903,8.27819383 30.6387665,10.30837 30.6387665,13.2605727 Z M27.9328194,13.2605727 C27.9328194,12.0522026 27.457489,11.1931718 26.5297357,10.8867841 C24.9118943,10.3627753 23.3255507,11.3220264 23.4801762,13.5297357 C23.577533,14.8411894 24.339207,15.6429515 25.3814978,15.7374449 C26.9621145,15.8806167 27.9385463,14.9385463 27.9414097,13.2748899 L27.9328194,13.2605727 Z" id="Shape" fill="#FFFFFF" fill-rule="nonzero"></path>
        <path d="M110.648899,13.5411894 C110.5187,10.8702785 112.548263,8.58560638 115.215905,8.40012616 C117.883547,8.21464594 120.209758,10.1964626 120.450441,12.8596916 C120.673789,15.7718062 118.732379,18.0482379 115.803084,18.2372247 C114.484648,18.3480013 113.179653,17.9045807 112.201637,17.0134987 C111.22362,16.1224167 110.660981,14.8642155 110.648899,13.5411894 L110.648899,13.5411894 Z M117.807489,13.2548458 C117.807489,11.8431718 117.020044,10.8495595 115.834581,10.7436123 C114.488767,10.623348 113.543833,11.3707048 113.294714,12.7279736 C113.045595,14.0852423 113.669824,15.3050661 114.749339,15.7030837 C116.35859,16.2986784 117.821806,15.127533 117.810352,13.2662996 L117.807489,13.2548458 Z" id="Shape" fill="#FFFFFF" fill-rule="nonzero"></path>
        <path d="M79.6522026,18.2429515 C76.9605727,18.4491189 74.7385463,16.4647577 74.4980176,13.6471366 C74.3727509,12.3430104 74.7784534,11.0434448 75.6234156,10.0422077 C76.4683778,9.04097055 77.6812587,8.4225975 78.9878855,8.32687225 C81.834141,8.09779736 84.0991189,10.0764317 84.3167401,12.9828194 C84.5257709,15.7889868 82.5471366,18.022467 79.6522026,18.2429515 Z M77.1381057,13.1718062 C77.1209251,14.2685022 77.4244493,15.0845815 78.335022,15.5828194 C79.1422021,16.0306149 80.1427663,15.9289594 80.8433921,15.3279736 C81.7797357,14.5061674 81.8169604,13.4381057 81.5449339,12.3385463 C81.3298119,11.4816583 80.6024211,10.850338 79.7237885,10.7579295 C78.1718062,10.5947137 77.1409692,11.6055066 77.1381057,13.1718062 Z" id="Shape" fill="#FFFFFF" fill-rule="nonzero"></path>
        <path d="M35.054185,9.39493392 C35.8676626,8.54775169 37.0435592,8.15115382 38.2039648,8.33259912 C39.8311091,8.5272281 41.0491629,9.91823074 41.0273128,11.5568282 C41.0817181,13.5354626 41.0273128,15.5140969 41.0530837,17.4927313 C41.0530837,17.8764317 40.884141,17.9909692 40.5319383,17.9795154 C39.9993392,17.9795154 39.4667401,17.9566079 38.934141,17.9795154 C38.4874449,18.0024229 38.3299559,17.8306167 38.3356828,17.3867841 C38.3509545,15.7317181 38.3509545,14.0756975 38.3356828,12.4187225 C38.3356828,11.2303965 37.6169604,10.623348 36.4572687,10.7779736 C35.6640969,10.8839207 35.1229075,11.6112335 35.1143172,12.6363436 C35.1143172,14.1797357 35.0828194,15.7202643 35.1143172,17.260793 C35.1314978,17.8592511 34.922467,18.0310573 34.3612335,17.9823789 C33.867188,17.9551646 33.3720191,17.9551646 32.8779736,17.9823789 C32.5372247,17.9823789 32.3969163,17.8334802 32.3969163,17.504185 L32.3969163,8.9969163 C32.3969163,8.65903084 32.5629956,8.5215859 32.8922907,8.52731278 C33.3692173,8.55174749 33.8470822,8.55174749 34.3240088,8.52731278 C34.8823789,8.47863436 35.1830396,8.64185022 35.054185,9.39493392 Z" id="Path" fill="#FFFFFF" fill-rule="nonzero"></path>
        <path d="M88.6634361,8.60462555 C88.6863436,8.94537445 88.7006608,9.17731278 88.7178414,9.50947137 C89.4759989,8.66093322 90.6050642,8.24276089 91.7330396,8.39273128 C93.3623348,8.57885463 94.4618943,9.6154185 94.6279736,11.2561674 C94.7310573,12.2927313 94.7081498,13.3436123 94.722467,14.3887665 C94.7367841,15.4339207 94.722467,16.4447137 94.722467,17.4726872 C94.722467,17.8363436 94.5993392,17.9881057 94.2242291,17.9709251 C93.7303577,17.9379866 93.2348405,17.9379866 92.7409692,17.9709251 C92.2255507,18.0110132 92.0451542,17.8506608 92.0537445,17.3094714 C92.0881057,15.6715859 92.0795154,14.0365639 92.0537445,12.3986784 C92.0537445,11.253304 91.3951542,10.6806167 90.2726872,10.7522026 C89.430837,10.8008811 88.8094714,11.4594714 88.7922907,12.4044053 C88.7636564,14.0022026 88.7779736,15.6028634 88.7751101,17.2006608 C88.7751101,17.9594714 88.7751101,17.9594714 88.0363436,17.9623348 C87.5610132,17.9623348 87.0828194,17.9623348 86.6046256,17.9623348 C86.2667401,17.9623348 86.1264317,17.8506608 86.1264317,17.504185 C86.1264317,14.6865639 86.1264317,11.8718062 86.1464758,9.05418502 C86.1464758,8.89955947 86.3612335,8.62180617 86.4872247,8.61321586 C87.2002203,8.59030837 87.907489,8.60462555 88.6634361,8.60462555 Z" id="Path" fill="#FFFFFF" fill-rule="nonzero"></path>
        <path d="M54.1189427,21.6303965 C54.5513216,20.6625551 54.9006608,19.8665198 55.2643172,19.073348 C55.5363436,18.4662996 55.7969163,17.8506608 56.1004405,17.2579295 C56.2849287,16.9224117 56.2794914,16.5146207 56.0861233,16.184141 C54.9407489,13.8790749 53.838326,11.5625551 52.7187225,9.24889868 C52.6299559,9.06563877 52.5497797,8.87951542 52.3894273,8.53017621 C52.9621145,8.53017621 53.3887665,8.53017621 53.8211454,8.53017621 C55.7138767,8.57599119 55.204185,8.20947137 56.0059471,9.93612335 C56.5786344,11.1759912 57.1513216,12.4244493 57.7669604,13.7759912 C58.053304,13.1174009 58.2938326,12.553304 58.5343612,11.9863436 C58.9581498,10.9870044 59.3933921,9.98193833 59.7914097,8.98546256 C59.8731369,8.68298199 60.1647453,8.48654282 60.4757709,8.52444934 C61.211674,8.54162996 61.9475771,8.52444934 62.7922907,8.52444934 C62.6748899,8.86806167 62.6147577,9.09713656 62.5059471,9.31189427 C60.7420705,13.2348018 58.9781938,17.1577093 57.2143172,21.0806167 C57.1035169,21.4515247 56.7387547,21.6861883 56.3552863,21.6332599 C55.6852423,21.6046256 54.9779736,21.6303965 54.1189427,21.6303965 Z" id="Path" fill="#FFFFFF" fill-rule="nonzero"></path>
        <path d="M71.2594714,12.3127753 C70.4348018,10.9325991 69.7189427,10.5488987 68.5907489,10.8524229 C67.534141,11.1387665 66.8955947,12.0378855 66.8726872,13.269163 C66.8497797,14.5004405 67.5284141,15.4625551 68.5821586,15.7488987 C69.7676211,16.0696035 70.5092511,15.69163 71.3396476,14.2914097 L73.6303965,15.0530837 C73.4438437,15.4989849 73.2266583,15.9314422 72.9803965,16.3473568 C71.7977974,18.0396476 70.0854626,18.514978 68.1497797,18.1398678 C66.2140969,17.7647577 64.8940529,16.5048458 64.4273128,14.5548458 C63.7515419,11.7830396 65.2290749,9.19162996 67.8061674,8.49008811 C70.1169604,7.86299559 72.4449339,8.87665198 73.3268722,10.8810573 C73.5244493,11.339207 73.515859,11.6055066 72.9632159,11.7400881 C72.4105727,11.8746696 71.814978,12.1180617 71.2594714,12.3127753 Z" id="Path" fill="#FFFFFF" fill-rule="nonzero"></path>
        <path d="M96.0568282,8.7277533 C96.1015708,8.69522558 96.1495485,8.66739852 96.2,8.64471366 C97.8436123,8.35837004 97.9180617,8.29537445 97.9180617,6.59735683 C97.9180617,5.82995595 97.9180617,5.82995595 98.6711454,5.82709251 C99.069163,5.82709251 99.4700441,5.82709251 99.8680617,5.82709251 C100.211674,5.82709251 100.340529,5.97312775 100.334802,6.31101322 C100.334802,7.0469163 100.334802,7.78568282 100.334802,8.60176211 L102.181718,8.60176211 C102.181718,9.33480176 102.198899,9.97907489 102.164537,10.6204846 C102.164537,10.7378855 101.946916,10.9068282 101.809471,10.9354626 C101.488485,10.9774872 101.163719,10.9822914 100.84163,10.9497797 C100.432159,10.9182819 100.323348,11.0986784 100.329075,11.4823789 C100.349119,12.5103524 100.329075,13.538326 100.329075,14.5662996 C100.329075,15.5284141 100.555286,15.7431718 101.505947,15.7345815 C101.694934,15.7345815 101.883921,15.7345815 102.164537,15.7345815 C102.164537,16.3874449 102.181718,17.0288546 102.147357,17.6645374 C102.147357,17.7704846 101.929736,17.9222467 101.789427,17.9508811 C99.785022,18.4147577 97.6718062,17.6817181 97.6975771,15.0072687 C97.6975771,13.8475771 97.6975771,12.685022 97.6975771,11.5253304 C97.6975771,11.1301762 97.6202643,10.9526432 97.164978,10.9526432 C96.0482379,10.9526432 96.0482379,10.9297357 96.0482379,9.7814978 L96.0568282,8.7277533 Z" id="Path" fill="#FFFFFF" fill-rule="nonzero"></path>
        <path d="M124.923128,4.24933921 L124.923128,4.91365639 C124.923128,9.04273128 124.923128,13.1718062 124.923128,17.3008811 C124.923128,17.8105727 124.802863,18.0396476 124.258811,17.9795154 C123.877328,17.9578052 123.494919,17.9578052 123.113436,17.9795154 C122.254405,17.9795154 122.254405,17.9795154 122.254405,17.0975771 L122.254405,14.9786344 C122.254405,11.6484581 122.254405,8.31828194 122.254405,4.98810573 C122.254405,4.4154185 122.394714,4.19493392 122.984581,4.23788546 C123.574449,4.280837 124.24163,4.24933921 124.923128,4.24933921 Z" id="Path" fill="#FFFFFF" fill-rule="nonzero"></path>
        <path d="M104.143172,8.60462555 C104.847577,8.60462555 105.549119,8.58744493 106.247797,8.62180617 C106.365198,8.62180617 106.534141,8.82511013 106.577093,8.9654185 C106.608003,9.20016158 106.608003,9.43794415 106.577093,9.67268722 C107.214439,8.90526162 108.174857,8.48123584 109.171366,8.52731278 C109.620925,8.52731278 109.84141,8.65044053 109.809912,9.14295154 C109.778414,9.63546256 109.809912,10.2081498 109.809912,10.7407489 C109.809912,11.0671806 109.735463,11.207489 109.346035,11.1674009 C107.627974,10.9955947 106.677313,11.857489 106.651542,13.5927313 C106.631498,14.8469163 106.620044,16.1039648 106.651542,17.3581498 C106.665859,17.8792952 106.485463,18.0196035 105.998678,17.9823789 C105.511894,17.9451542 104.973568,17.9651982 104.45815,17.9823789 C104.188987,17.9823789 104.034361,17.9193833 104.034361,17.6044053 C104.034361,14.6751101 104.034361,11.7486784 104.051542,8.81938326 C104.073033,8.74426469 104.103815,8.67212144 104.143172,8.60462555 L104.143172,8.60462555 Z" id="Path" fill="#FFFFFF" fill-rule="nonzero"></path>
    </g>
</svg>