<svg width="24" height="27" viewBox="0 0 24 27" fill="none" xmlns="http://www.w3.org/2000/svg">
<path d="M4.13906 9.82083L4.13419 9.70306L4.01861 9.67994C1.81688 9.23959 0.15 7.28907 0.15 4.96216C0.15 2.32068 2.32068 0.15 4.96216 0.15H19.0378C21.6793 0.15 23.85 2.32068 23.85 4.96216C23.85 7.28869 22.1832 9.24054 19.9794 9.71279L19.8657 9.73714L19.8609 9.85327C19.7018 13.7034 16.7423 16.8542 12.9554 17.2997L12.823 17.3153V17.4486V21.7622V21.9122H12.973H16.5405C17.009 21.9122 17.3635 22.2666 17.3635 22.7351C17.3635 23.2036 17.009 23.5581 16.5405 23.5581H7.45946C6.99095 23.5581 6.63649 23.2036 6.63649 22.7351C6.63649 22.2666 6.99095 21.9122 7.45946 21.9122H11.027H11.177V21.7622V17.4162V17.2828L11.0446 17.2672C7.25773 16.8217 4.29816 13.6709 4.13906 9.82083ZM4.13919 2.10811V1.90177L3.94291 1.96542C2.68055 2.37484 1.79595 3.56797 1.79595 4.96216C1.79595 6.35892 2.68261 7.51614 3.93947 7.95774L4.13919 8.02791V7.81622V2.10811ZM5.93513 1.79595H5.78513V1.94595V9.47027C5.78513 12.8937 8.57662 15.6851 12 15.6851C15.4234 15.6851 18.2149 12.8937 18.2149 9.47027V1.94595V1.79595H18.0649H5.93513ZM19.8608 7.81622V8.02791L20.0605 7.95774C21.3174 7.51614 22.2041 6.35892 22.2041 4.96216C22.2041 3.56541 21.3174 2.40819 20.0605 1.96659L19.8608 1.89642V2.10811V7.81622Z" fill="black" stroke="white" stroke-width="0.3"/>
<path d="M5.12434 24.3771H18.8757C19.3085 24.3771 19.6662 24.7282 19.6662 25.2C19.6662 25.6685 19.3118 26.023 18.8433 26.023H5.12434C4.65583 26.023 4.30137 25.6685 4.30137 25.2C4.30137 24.7315 4.65583 24.3771 5.12434 24.3771Z" fill="black" stroke="white" stroke-width="0.3"/>
</svg>
