<svg width="24" height="24" viewBox="0 0 24 24" fill="none" xmlns="http://www.w3.org/2000/svg">
<mask id="path-1-inside-1" fill="white">
<path d="M9.46001 10.0314H0.571429C0.419877 10.0314 0.274532 9.97124 0.167368 9.86407C0.0602041 9.75691 0 9.61156 0 9.46001V0.571429C0 0.419877 0.0602041 0.274532 0.167368 0.167368C0.274532 0.0602041 0.419877 0 0.571429 0H9.46001C9.61156 0 9.75691 0.0602041 9.86407 0.167368C9.97124 0.274532 10.0314 0.419877 10.0314 0.571429V9.46001C10.0314 9.61156 9.97124 9.75691 9.86407 9.86407C9.75691 9.97124 9.61156 10.0314 9.46001 10.0314ZM1.14286 8.88858H8.88858V1.14286H1.14286V8.88858Z"/>
</mask>
<path d="M9.46001 10.0314H0.571429C0.419877 10.0314 0.274532 9.97124 0.167368 9.86407C0.0602041 9.75691 0 9.61156 0 9.46001V0.571429C0 0.419877 0.0602041 0.274532 0.167368 0.167368C0.274532 0.0602041 0.419877 0 0.571429 0H9.46001C9.61156 0 9.75691 0.0602041 9.86407 0.167368C9.97124 0.274532 10.0314 0.419877 10.0314 0.571429V9.46001C10.0314 9.61156 9.97124 9.75691 9.86407 9.86407C9.75691 9.97124 9.61156 10.0314 9.46001 10.0314ZM1.14286 8.88858H8.88858V1.14286H1.14286V8.88858Z" fill="black"/>
<path d="M0.571429 0V1.5V0ZM1.14286 8.88858H-0.357141V10.3886H1.14286V8.88858ZM8.88858 8.88858V10.3886H10.3886V8.88858H8.88858ZM8.88858 1.14286H10.3886V-0.357141H8.88858V1.14286ZM1.14286 1.14286V-0.357141H-0.357141V1.14286H1.14286ZM9.46001 8.53144H0.571429V11.5314H9.46001V8.53144ZM0.571429 8.53144C0.817706 8.53144 1.05389 8.62928 1.22803 8.80341L-0.893292 10.9247C-0.504827 11.3132 0.0220474 11.5314 0.571429 11.5314V8.53144ZM1.22803 8.80341C1.40217 8.97755 1.5 9.21374 1.5 9.46001H-1.5C-1.5 10.0094 -1.28176 10.5363 -0.893292 10.9247L1.22803 8.80341ZM1.5 9.46001V0.571429H-1.5V9.46001H1.5ZM1.5 0.571429C1.5 0.817703 1.40217 1.05389 1.22803 1.22803L-0.893292 -0.893292C-1.28176 -0.504825 -1.5 0.022051 -1.5 0.571429H1.5ZM1.22803 1.22803C1.05389 1.40217 0.817703 1.5 0.571429 1.5V-1.5C0.022051 -1.5 -0.504825 -1.28176 -0.893292 -0.893292L1.22803 1.22803ZM0.571429 1.5H9.46001V-1.5H0.571429V1.5ZM9.46001 1.5C9.21374 1.5 8.97755 1.40217 8.80341 1.22803L10.9247 -0.893292C10.5363 -1.28176 10.0094 -1.5 9.46001 -1.5V1.5ZM8.80341 1.22803C8.62928 1.05389 8.53144 0.817706 8.53144 0.571429H11.5314C11.5314 0.0220474 11.3132 -0.504827 10.9247 -0.893292L8.80341 1.22803ZM8.53144 0.571429V9.46001H11.5314V0.571429H8.53144ZM8.53144 9.46001C8.53144 9.21373 8.62928 8.97755 8.80341 8.80341L10.9247 10.9247C11.3132 10.5363 11.5314 10.0094 11.5314 9.46001H8.53144ZM8.80341 8.80341C8.97755 8.62928 9.21373 8.53144 9.46001 8.53144V11.5314C10.0094 11.5314 10.5363 11.3132 10.9247 10.9247L8.80341 8.80341ZM1.14286 10.3886H8.88858V7.38858H1.14286V10.3886ZM10.3886 8.88858V1.14286H7.38858V8.88858H10.3886ZM8.88858 -0.357141H1.14286V2.64286H8.88858V-0.357141ZM-0.357141 1.14286V8.88858H2.64286V1.14286H-0.357141Z" fill="black" mask="url(#path-1-inside-1)"/>
<mask id="path-3-inside-2" fill="white">
<path d="M23.4286 10.0314H14.54C14.3884 10.0314 14.2431 9.97124 14.1359 9.86407C14.0288 9.75691 13.9686 9.61156 13.9686 9.46001V0.571429C13.9686 0.419877 14.0288 0.274532 14.1359 0.167368C14.2431 0.0602041 14.3884 0 14.54 0H23.4286C23.5801 0 23.7255 0.0602041 23.8326 0.167368C23.9398 0.274532 24 0.419877 24 0.571429V9.46001C24 9.61156 23.9398 9.75691 23.8326 9.86407C23.7255 9.97124 23.5801 10.0314 23.4286 10.0314ZM15.1114 8.88858H22.8572V1.14286H15.1114V8.88858Z"/>
</mask>
<path d="M23.4286 10.0314H14.54C14.3884 10.0314 14.2431 9.97124 14.1359 9.86407C14.0288 9.75691 13.9686 9.61156 13.9686 9.46001V0.571429C13.9686 0.419877 14.0288 0.274532 14.1359 0.167368C14.2431 0.0602041 14.3884 0 14.54 0H23.4286C23.5801 0 23.7255 0.0602041 23.8326 0.167368C23.9398 0.274532 24 0.419877 24 0.571429V9.46001C24 9.61156 23.9398 9.75691 23.8326 9.86407C23.7255 9.97124 23.5801 10.0314 23.4286 10.0314ZM15.1114 8.88858H22.8572V1.14286H15.1114V8.88858Z" fill="black"/>
<path d="M14.54 0V1.5V0ZM15.1114 8.88858H13.6114V10.3886H15.1114V8.88858ZM22.8572 8.88858V10.3886H24.3572V8.88858H22.8572ZM22.8572 1.14286H24.3572V-0.357141H22.8572V1.14286ZM15.1114 1.14286V-0.357141H13.6114V1.14286H15.1114ZM23.4286 8.53144H14.54V11.5314H23.4286V8.53144ZM14.54 8.53144C14.7863 8.53144 15.0225 8.62928 15.1966 8.80341L13.0753 10.9247C13.4637 11.3132 13.9906 11.5314 14.54 11.5314V8.53144ZM15.1966 8.80341C15.3707 8.97755 15.4686 9.21373 15.4686 9.46001H12.4686C12.4686 10.0094 12.6868 10.5363 13.0753 10.9247L15.1966 8.80341ZM15.4686 9.46001V0.571429H12.4686V9.46001H15.4686ZM15.4686 0.571429C15.4686 0.817706 15.3707 1.05389 15.1966 1.22803L13.0753 -0.893292C12.6868 -0.504827 12.4686 0.0220474 12.4686 0.571429H15.4686ZM15.1966 1.22803C15.0225 1.40217 14.7863 1.5 14.54 1.5V-1.5C13.9906 -1.5 13.4637 -1.28176 13.0753 -0.893292L15.1966 1.22803ZM14.54 1.5H23.4286V-1.5H14.54V1.5ZM23.4286 1.5C23.1823 1.5 22.9461 1.40217 22.772 1.22803L24.8933 -0.893292C24.5048 -1.28176 23.978 -1.5 23.4286 -1.5V1.5ZM22.772 1.22803C22.5978 1.05389 22.5 0.817699 22.5 0.571429H25.5C25.5 0.0220547 25.2818 -0.504822 24.8933 -0.893292L22.772 1.22803ZM22.5 0.571429V9.46001H25.5V0.571429H22.5ZM22.5 9.46001C22.5 9.21374 22.5978 8.97755 22.772 8.80341L24.8933 10.9247C25.2818 10.5363 25.5 10.0094 25.5 9.46001H22.5ZM22.772 8.80341C22.9461 8.62927 23.1823 8.53144 23.4286 8.53144V11.5314C23.978 11.5314 24.5048 11.3132 24.8933 10.9247L22.772 8.80341ZM15.1114 10.3886H22.8572V7.38858H15.1114V10.3886ZM24.3572 8.88858V1.14286H21.3572V8.88858H24.3572ZM22.8572 -0.357141H15.1114V2.64286H22.8572V-0.357141ZM13.6114 1.14286V8.88858H16.6114V1.14286H13.6114Z" fill="black" mask="url(#path-3-inside-2)"/>
<mask id="path-5-inside-3" fill="white">
<path d="M23.4286 24.0002H14.54C14.3884 24.0002 14.2431 23.94 14.1359 23.8328C14.0288 23.7257 13.9686 23.5803 13.9686 23.4288V14.5402C13.9686 14.3886 14.0288 14.2433 14.1359 14.1361C14.2431 14.029 14.3884 13.9688 14.54 13.9688H23.4286C23.5801 13.9688 23.7255 14.029 23.8326 14.1361C23.9398 14.2433 24 14.3886 24 14.5402V23.4288C24 23.5803 23.9398 23.7257 23.8326 23.8328C23.7255 23.94 23.5801 24.0002 23.4286 24.0002ZM15.1114 22.8573H22.8572V15.1116H15.1114V22.8573Z"/>
</mask>
<path d="M23.4286 24.0002H14.54C14.3884 24.0002 14.2431 23.94 14.1359 23.8328C14.0288 23.7257 13.9686 23.5803 13.9686 23.4288V14.5402C13.9686 14.3886 14.0288 14.2433 14.1359 14.1361C14.2431 14.029 14.3884 13.9688 14.54 13.9688H23.4286C23.5801 13.9688 23.7255 14.029 23.8326 14.1361C23.9398 14.2433 24 14.3886 24 14.5402V23.4288C24 23.5803 23.9398 23.7257 23.8326 23.8328C23.7255 23.94 23.5801 24.0002 23.4286 24.0002ZM15.1114 22.8573H22.8572V15.1116H15.1114V22.8573Z" fill="black"/>
<path d="M15.1114 22.8573H13.6114V24.3573H15.1114V22.8573ZM22.8572 22.8573V24.3573H24.3572V22.8573H22.8572ZM22.8572 15.1116H24.3572V13.6116H22.8572V15.1116ZM15.1114 15.1116V13.6116H13.6114V15.1116H15.1114ZM23.4286 22.5002H14.54V25.5002H23.4286V22.5002ZM14.54 22.5002C14.7863 22.5002 15.0225 22.598 15.1966 22.7722L13.0753 24.8935C13.4637 25.282 13.9906 25.5002 14.54 25.5002V22.5002ZM15.1966 22.7722C15.3707 22.9463 15.4686 23.1825 15.4686 23.4288H12.4686C12.4686 23.9781 12.6868 24.505 13.0753 24.8935L15.1966 22.7722ZM15.4686 23.4288V14.5402H12.4686V23.4288H15.4686ZM15.4686 14.5402C15.4686 14.7865 15.3707 15.0226 15.1966 15.1968L13.0753 13.0755C12.6868 13.4639 12.4686 13.9908 12.4686 14.5402H15.4686ZM15.1966 15.1968C15.0225 15.3709 14.7863 15.4688 14.54 15.4688V12.4688C13.9906 12.4688 13.4637 12.687 13.0753 13.0755L15.1966 15.1968ZM14.54 15.4688H23.4286V12.4688H14.54V15.4688ZM23.4286 15.4688C23.1823 15.4688 22.9461 15.3709 22.772 15.1968L24.8933 13.0755C24.5048 12.687 23.978 12.4688 23.4286 12.4688V15.4688ZM22.772 15.1968C22.5978 15.0226 22.5 14.7865 22.5 14.5402H25.5C25.5 13.9908 25.2818 13.4639 24.8933 13.0755L22.772 15.1968ZM22.5 14.5402V23.4288H25.5V14.5402H22.5ZM22.5 23.4288C22.5 23.1825 22.5978 22.9463 22.772 22.7722L24.8933 24.8935C25.2818 24.505 25.5 23.9781 25.5 23.4288H22.5ZM22.772 22.7722C22.9461 22.598 23.1823 22.5002 23.4286 22.5002V25.5002C23.978 25.5002 24.5048 25.282 24.8933 24.8935L22.772 22.7722ZM15.1114 24.3573H22.8572V21.3573H15.1114V24.3573ZM24.3572 22.8573V15.1116H21.3572V22.8573H24.3572ZM22.8572 13.6116H15.1114V16.6116H22.8572V13.6116ZM13.6114 15.1116V22.8573H16.6114V15.1116H13.6114Z" fill="black" mask="url(#path-5-inside-3)"/>
<mask id="path-7-inside-4" fill="white">
<path d="M9.46001 24.0002H0.571429C0.419877 24.0002 0.274532 23.94 0.167368 23.8328C0.0602041 23.7257 0 23.5803 0 23.4288V14.5402C0 14.3886 0.0602041 14.2433 0.167368 14.1361C0.274532 14.029 0.419877 13.9688 0.571429 13.9688H9.46001C9.61156 13.9688 9.75691 14.029 9.86407 14.1361C9.97124 14.2433 10.0314 14.3886 10.0314 14.5402V23.4288C10.0314 23.5803 9.97124 23.7257 9.86407 23.8328C9.75691 23.94 9.61156 24.0002 9.46001 24.0002ZM1.14286 22.8573H8.88858V15.1116H1.14286V22.8573Z"/>
</mask>
<path d="M9.46001 24.0002H0.571429C0.419877 24.0002 0.274532 23.94 0.167368 23.8328C0.0602041 23.7257 0 23.5803 0 23.4288V14.5402C0 14.3886 0.0602041 14.2433 0.167368 14.1361C0.274532 14.029 0.419877 13.9688 0.571429 13.9688H9.46001C9.61156 13.9688 9.75691 14.029 9.86407 14.1361C9.97124 14.2433 10.0314 14.3886 10.0314 14.5402V23.4288C10.0314 23.5803 9.97124 23.7257 9.86407 23.8328C9.75691 23.94 9.61156 24.0002 9.46001 24.0002ZM1.14286 22.8573H8.88858V15.1116H1.14286V22.8573Z" fill="black"/>
<path d="M1.14286 22.8573H-0.357141V24.3573H1.14286V22.8573ZM8.88858 22.8573V24.3573H10.3886V22.8573H8.88858ZM8.88858 15.1116H10.3886V13.6116H8.88858V15.1116ZM1.14286 15.1116V13.6116H-0.357141V15.1116H1.14286ZM9.46001 22.5002H0.571429V25.5002H9.46001V22.5002ZM0.571429 22.5002C0.817699 22.5002 1.05389 22.598 1.22803 22.7722L-0.893292 24.8935C-0.504822 25.282 0.0220547 25.5002 0.571429 25.5002V22.5002ZM1.22803 22.7722C1.40217 22.9463 1.5 23.1825 1.5 23.4288H-1.5C-1.5 23.9781 -1.28176 24.505 -0.893292 24.8935L1.22803 22.7722ZM1.5 23.4288V14.5402H-1.5V23.4288H1.5ZM1.5 14.5402C1.5 14.7865 1.40217 15.0226 1.22803 15.1968L-0.893292 13.0755C-1.28176 13.4639 -1.5 13.9908 -1.5 14.5402H1.5ZM1.22803 15.1968C1.05389 15.3709 0.817706 15.4688 0.571429 15.4688V12.4688C0.0220474 12.4688 -0.504827 12.687 -0.893292 13.0755L1.22803 15.1968ZM0.571429 15.4688H9.46001V12.4688H0.571429V15.4688ZM9.46001 15.4688C9.21373 15.4688 8.97755 15.3709 8.80341 15.1968L10.9247 13.0755C10.5363 12.687 10.0094 12.4688 9.46001 12.4688V15.4688ZM8.80341 15.1968C8.62928 15.0226 8.53144 14.7865 8.53144 14.5402H11.5314C11.5314 13.9908 11.3132 13.4639 10.9247 13.0755L8.80341 15.1968ZM8.53144 14.5402V23.4288H11.5314V14.5402H8.53144ZM8.53144 23.4288C8.53144 23.1825 8.62927 22.9463 8.80341 22.7722L10.9247 24.8935C11.3132 24.505 11.5314 23.9781 11.5314 23.4288H8.53144ZM8.80341 22.7722C8.97755 22.598 9.21374 22.5002 9.46001 22.5002V25.5002C10.0094 25.5002 10.5363 25.282 10.9247 24.8935L8.80341 22.7722ZM1.14286 24.3573H8.88858V21.3573H1.14286V24.3573ZM10.3886 22.8573V15.1116H7.38858V22.8573H10.3886ZM8.88858 13.6116H1.14286V16.6116H8.88858V13.6116ZM-0.357141 15.1116V22.8573H2.64286V15.1116H-0.357141Z" fill="black" mask="url(#path-7-inside-4)"/>
</svg>
