<svg width="24" height="24" viewBox="0 0 24 24" fill="none" xmlns="http://www.w3.org/2000/svg">
<path d="M12 24C9.62663 24 7.30655 23.2962 5.33316 21.9776C3.35977 20.6591 1.8217 18.7849 0.913451 16.5922C0.00519937 14.3995 -0.232441 11.9867 0.230582 9.65892C0.693604 7.33115 1.83649 5.19295 3.51472 3.51472C5.19295 1.83649 7.33115 0.693604 9.65892 0.230582C11.9867 -0.232441 14.3995 0.00519937 16.5922 0.913451C18.7849 1.8217 20.6591 3.35977 21.9776 5.33316C23.2962 7.30655 24 9.62663 24 12C24 15.1826 22.7357 18.2348 20.4853 20.4853C18.2348 22.7357 15.1826 24 12 24ZM12 1.37143C9.89787 1.37143 7.84295 1.99479 6.09509 3.16267C4.34723 4.33055 2.98494 5.99051 2.18049 7.93263C1.37603 9.87474 1.16555 12.0118 1.57566 14.0735C1.98576 16.1353 2.99804 18.0291 4.48447 19.5155C5.9709 21.002 7.86473 22.0142 9.92647 22.4243C11.9882 22.8345 14.1253 22.624 16.0674 21.8195C18.0095 21.0151 19.6695 19.6528 20.8373 17.9049C22.0052 16.1571 22.6286 14.1021 22.6286 12C22.6286 9.18113 21.5088 6.47771 19.5155 4.48447C17.5223 2.49123 14.8189 1.37143 12 1.37143Z" fill="black"/>
<path d="M9.94286 17.2802C9.64162 17.2791 9.34598 17.1987 9.08571 17.047C8.82346 16.8985 8.60569 16.6825 8.45498 16.4215C8.30427 16.1604 8.2261 15.8638 8.22857 15.5624V8.43788C8.22858 8.13696 8.3078 7.84135 8.45826 7.58075C8.60872 7.32015 8.82513 7.10375 9.08573 6.95329C9.34634 6.80284 9.64195 6.72363 9.94287 6.72363C10.2438 6.72363 10.5394 6.80285 10.8 6.9533L16.9714 10.5156C17.232 10.6661 17.4484 10.8825 17.5988 11.1431C17.7493 11.4036 17.8285 11.6993 17.8285 12.0002C17.8285 12.3011 17.7493 12.5967 17.5988 12.8573C17.4484 13.1179 17.232 13.3343 16.9714 13.4847L10.8 17.047C10.5397 17.1987 10.2441 17.2791 9.94286 17.2802ZM9.94286 8.09159C9.88249 8.09222 9.82335 8.10877 9.77143 8.13959C9.71911 8.1698 9.6757 8.21329 9.64559 8.26567C9.61549 8.31805 9.59976 8.37746 9.6 8.43788V15.5624C9.59976 15.6229 9.61549 15.6823 9.64559 15.7346C9.6757 15.787 9.71911 15.8305 9.77143 15.8607C9.82355 15.8908 9.88267 15.9067 9.94286 15.9067C10.003 15.9067 10.0622 15.8908 10.1143 15.8607L16.2857 12.2984C16.3385 12.2685 16.3824 12.2252 16.4129 12.1728C16.4434 12.1204 16.4595 12.0608 16.4595 12.0002C16.4595 11.9395 16.4434 11.8799 16.4129 11.8275C16.3824 11.7751 16.3385 11.7318 16.2857 11.7019L10.1143 8.13959C10.0624 8.10877 10.0032 8.09222 9.94286 8.09159Z" fill="black"/>
</svg>
