<svg width="122" height="37" viewBox="0 0 122 37" fill="none" xmlns="http://www.w3.org/2000/svg">
<path d="M121.013 12.4467C121.013 20.4222 121.013 28.3756 121.013 36.3622C119.172 36.3622 117.352 36.3622 115.498 36.3622C115.498 28.395 115.498 20.4444 115.498 12.4467C117.313 12.4467 119.133 12.4467 121.013 12.4467Z" fill="white"/>
<path d="M0 12.0097C1.83067 12.0097 3.66393 12.0097 5.55416 12.0097C5.55416 13.2932 5.55416 14.5434 5.55416 15.9572C7.03009 12.6584 9.51586 11.4608 12.5972 11.5329C15.7044 11.6049 18.0633 13.0964 19.4641 16.1069C19.9587 15.4305 20.4093 14.6931 20.9711 14.0749C22.4057 12.4948 24.2078 11.7408 26.2405 11.5606C27.5844 11.4414 28.9075 11.5661 30.1892 12.0291C32.5585 12.8801 34.0163 14.6987 34.8527 17.1493C35.4534 18.9096 35.6217 20.7476 35.6243 22.6077C35.6295 26.9378 35.6269 31.2679 35.6269 35.5981C35.6269 35.7062 35.6139 35.8171 35.6036 35.9695C33.7936 35.9695 31.9914 35.9695 30.1271 35.9695C30.1271 35.7533 30.1271 35.5399 30.1271 35.3264C30.1271 31.3068 30.1478 27.2899 30.1116 23.2702C30.1038 22.3471 30.0028 21.3935 29.7646 20.5092C29.2752 18.6989 28.1255 17.5374 26.3441 17.3212C24.3269 17.0772 22.6102 17.7009 21.4994 19.6636C20.9556 20.6228 20.6863 21.6873 20.676 22.8017C20.6371 26.9461 20.6216 31.0905 20.6009 35.2377C20.6009 35.4733 20.6009 35.709 20.6009 35.9806C18.7365 35.9806 16.9136 35.9806 15.0312 35.9806C15.0312 35.7505 15.0312 35.5343 15.0312 35.3209C15.0286 31.0268 15.0389 26.7327 15.0105 22.4386C15.0001 21.0525 14.6661 19.7357 13.7779 18.6795C12.4004 17.0412 10.6578 16.9857 8.86335 17.5984C6.8074 18.2997 5.90372 20.0157 5.6655 22.1974C5.58264 22.9598 5.58005 23.736 5.57746 24.5038C5.56969 28.0994 5.57487 31.6976 5.57487 35.2931C5.57487 35.5094 5.57487 35.7284 5.57487 36.0167C3.69241 36.0167 1.84621 36.0167 0.00258941 36.0167C5.93234e-08 28.0106 0 20.0102 0 12.0097Z" fill="white"/>
<path d="M57.3912 14.8541C57.3912 14.028 57.3912 13.0522 57.3912 12.0431C59.253 12.0431 61.0629 12.0431 62.9143 12.0431C62.9143 19.9965 62.9143 27.9637 62.9143 35.9697C61.107 35.9697 59.2866 35.9697 57.4197 35.9697C57.4197 34.969 57.4197 33.9682 57.4197 32.9342C57.3265 32.9675 57.267 32.9675 57.2436 33.0008C55.7703 35.1353 53.6807 36.1167 51.3192 36.4188C47.6993 36.8846 44.5481 35.7286 42.0105 32.8871C40.1824 30.8412 39.2554 28.3407 38.9913 25.5408C38.7091 22.5608 39.1027 19.7027 40.5708 17.1301C42.8572 13.1243 46.2803 11.3307 50.633 11.5497C52.645 11.6523 54.4886 12.3093 56.0836 13.6676C56.5471 14.0641 56.9899 14.4882 57.3912 14.8541ZM50.8039 17.0663C47.2436 17.0691 44.5455 20.0215 44.5403 23.9191C44.5351 27.8501 47.2798 30.9244 50.8091 30.9355C54.4316 30.9494 57.3058 27.8473 57.3006 23.9358C57.2928 20.1157 54.4057 17.0635 50.8039 17.0663Z" fill="white"/>
<path d="M105.05 14.8668C105.05 14.024 105.05 13.0454 105.05 12.0391C106.912 12.0391 108.722 12.0391 110.571 12.0391C110.571 20.0008 110.571 27.968 110.571 35.9713C108.756 35.9713 106.935 35.9713 105.068 35.9713C105.068 34.9622 105.068 33.9642 105.068 32.8637C104.633 33.3544 104.294 33.8062 103.893 34.1777C102.07 35.8632 99.8871 36.5368 97.5334 36.5202C94.4314 36.498 91.7514 35.2921 89.6204 32.8443C87.7819 30.7291 86.8549 28.1787 86.6245 25.3151C86.3811 22.2906 86.8316 19.4103 88.3852 16.8433C90.6872 13.0427 94.0378 11.3406 98.2377 11.5457C100.268 11.6455 102.13 12.2997 103.738 13.6719C104.201 14.0684 104.639 14.4925 105.05 14.8668ZM98.4475 17.0651C94.8897 17.0706 92.1916 20.0258 92.189 23.9234C92.1864 27.8516 94.9363 30.9259 98.463 30.9342C102.088 30.9426 104.96 27.8405 104.949 23.929C104.942 20.1089 102.054 17.0595 98.4475 17.0651Z" fill="white"/>
<path d="M83.6775 18.9737C81.9245 18.9737 80.1844 18.9737 78.4496 18.9737C77.8851 16.5037 75.5055 15.4725 73.5298 16.8253C72.0824 17.8177 72.116 19.7998 73.667 20.5622C74.6329 21.039 75.7049 21.2718 76.738 21.5851C78.3305 22.0675 79.9592 22.4223 81.4014 23.3621C84.5371 25.4051 85.4123 29.6937 83.2917 32.8623C82.1549 34.5588 80.5185 35.4986 78.6723 36.0281C75.6608 36.893 72.7323 36.7128 69.9876 35.0135C67.7659 33.6357 66.4945 31.5677 66.2951 28.7927C66.29 28.7234 66.3029 28.6514 66.3081 28.5516C68.03 28.5516 69.7364 28.5516 71.4868 28.5516C71.6655 30.1982 72.5821 31.1657 74.0554 31.5483C75.2569 31.8588 76.4402 31.7451 77.5562 31.1546C78.5091 30.6501 78.926 29.824 78.8328 28.8066C78.7577 27.9943 78.2942 27.4815 77.6443 27.2265C76.7173 26.8633 75.7566 26.5944 74.8012 26.32C73.2683 25.8792 71.7302 25.4744 70.3086 24.665C66.8337 22.6856 66.2641 18.605 67.507 15.9354C68.3848 14.0476 69.8529 12.8334 71.681 12.1736C74.8581 11.0287 77.9654 11.2366 80.8551 13.1494C82.7583 14.4107 83.6438 16.3568 83.7163 18.7353C83.7215 18.8074 83.6982 18.8767 83.6775 18.9737Z" fill="white"/>
<path d="M121.011 12.0586H115.498V28.1982L121.011 20.9268V12.0586Z" fill="#D71920"/>
<path d="M118.231 6.65875C119.948 6.65875 121.341 5.16814 121.341 3.32937C121.341 1.49061 119.948 0 118.231 0C116.513 0 115.121 1.49061 115.121 3.32937C115.121 5.16814 116.513 6.65875 118.231 6.65875Z" fill="white"/>
</svg>
