<svg width="24" height="29" viewBox="0 0 24 29" fill="none" xmlns="http://www.w3.org/2000/svg">
<path d="M20.7982 28.8887H3.20183C2.3534 28.8863 1.54041 28.5482 0.94047 27.9482C0.340533 27.3483 0.00242066 26.5353 0 25.6869V6.9621C0 6.11292 0.337336 5.29852 0.937796 4.69806C1.53826 4.0976 2.35266 3.76026 3.20183 3.76026H7.59633C7.76261 2.7119 8.29744 1.75725 9.10466 1.06797C9.91188 0.378687 10.9385 0 12 0C13.0615 0 14.0881 0.378687 14.8953 1.06797C15.7026 1.75725 16.2374 2.7119 16.4037 3.76026H20.7982C21.6473 3.76026 22.4617 4.0976 23.0622 4.69806C23.6627 5.29852 24 6.11292 24 6.9621V25.6869C23.9976 26.5353 23.6595 27.3483 23.0595 27.9482C22.4596 28.5482 21.6466 28.8863 20.7982 28.8887ZM3.20183 5.13641C2.7152 5.13641 2.24849 5.32972 1.90439 5.67383C1.56029 6.01793 1.36697 6.48463 1.36697 6.97127V25.6869C1.36697 26.1735 1.56029 26.6402 1.90439 26.9843C2.24849 27.3284 2.7152 27.5217 3.20183 27.5217H20.7982C21.2848 27.5217 21.7515 27.3284 22.0956 26.9843C22.4397 26.6402 22.633 26.1735 22.633 25.6869V6.9621C22.633 6.47546 22.4397 6.00876 22.0956 5.66465C21.7515 5.32055 21.2848 5.12723 20.7982 5.12723H15.7706C15.5889 5.12486 15.4153 5.0516 15.2867 4.92307C15.1582 4.79455 15.0849 4.62091 15.0826 4.43916C15.0826 3.62161 14.7578 2.83755 14.1797 2.25946C13.6016 1.68136 12.8175 1.35659 12 1.35659C11.1825 1.35659 10.3984 1.68136 9.82029 2.25946C9.2422 2.83755 8.91743 3.62161 8.91743 4.43916C8.91505 4.62091 8.8418 4.79455 8.71327 4.92307C8.58474 5.0516 8.41111 5.12486 8.22936 5.12723L3.20183 5.13641Z" fill="black"/>
<path d="M12.0001 5.36611C12.5068 5.36611 12.9175 4.95536 12.9175 4.44868C12.9175 3.942 12.5068 3.53125 12.0001 3.53125C11.4934 3.53125 11.0826 3.942 11.0826 4.44868C11.0826 4.95536 11.4934 5.36611 12.0001 5.36611Z" fill="black"/>
<path d="M5.57805 12.6044C6.08473 12.6044 6.49548 12.1936 6.49548 11.687C6.49548 11.1803 6.08473 10.7695 5.57805 10.7695C5.07136 10.7695 4.66061 11.1803 4.66061 11.687C4.66061 12.1936 5.07136 12.6044 5.57805 12.6044Z" fill="black"/>
<path d="M18.4221 12.3742H9.24777C9.06528 12.3742 8.89026 12.3017 8.76122 12.1727C8.63219 12.0436 8.55969 11.8686 8.55969 11.6861C8.55969 11.5036 8.63219 11.3286 8.76122 11.1996C8.89026 11.0705 9.06528 10.998 9.24777 10.998H18.4221C18.6046 10.998 18.7796 11.0705 18.9086 11.1996C19.0377 11.3286 19.1102 11.5036 19.1102 11.6861C19.1102 11.8686 19.0377 12.0436 18.9086 12.1727C18.7796 12.3017 18.6046 12.3742 18.4221 12.3742Z" fill="black"/>
<path d="M5.57805 18.1083C6.08473 18.1083 6.49548 17.6976 6.49548 17.1909C6.49548 16.6842 6.08473 16.2734 5.57805 16.2734C5.07136 16.2734 4.66061 16.6842 4.66061 17.1909C4.66061 17.6976 5.07136 18.1083 5.57805 18.1083Z" fill="black"/>
<path d="M18.4221 17.8791H9.24777C9.06528 17.8791 8.89026 17.8066 8.76122 17.6775C8.63219 17.5485 8.55969 17.3735 8.55969 17.191C8.55969 17.0085 8.63219 16.8335 8.76122 16.7045C8.89026 16.5754 9.06528 16.5029 9.24777 16.5029H18.4221C18.6046 16.5029 18.7796 16.5754 18.9086 16.7045C19.0377 16.8335 19.1102 17.0085 19.1102 17.191C19.1102 17.3735 19.0377 17.5485 18.9086 17.6775C18.7796 17.8066 18.6046 17.8791 18.4221 17.8791Z" fill="black"/>
<path d="M5.57805 23.6132C6.08473 23.6132 6.49548 23.2024 6.49548 22.6958C6.49548 22.1891 6.08473 21.7783 5.57805 21.7783C5.07136 21.7783 4.66061 22.1891 4.66061 22.6958C4.66061 23.2024 5.07136 23.6132 5.57805 23.6132Z" fill="black"/>
<path d="M18.4221 23.384H9.24777C9.06528 23.384 8.89026 23.3115 8.76122 23.1824C8.63219 23.0534 8.55969 22.8784 8.55969 22.6959C8.55969 22.5134 8.63219 22.3384 8.76122 22.2093C8.89026 22.0803 9.06528 22.0078 9.24777 22.0078H18.4221C18.6046 22.0078 18.7796 22.0803 18.9086 22.2093C19.0377 22.3384 19.1102 22.5134 19.1102 22.6959C19.1102 22.8784 19.0377 23.0534 18.9086 23.1824C18.7796 23.3115 18.6046 23.384 18.4221 23.384Z" fill="black"/>
</svg>
