<svg width="22" height="24" viewBox="0 0 22 24" fill="none" xmlns="http://www.w3.org/2000/svg">
<path d="M14.6416 20.8142C14.4281 22.6081 12.8791 24 11 24C9.1209 24 7.57194 22.6081 7.35844 20.8142H2.37682C1.06411 20.8142 0 19.7687 0 18.4779C0 17.1889 1.06326 16.1416 2.37345 16.1416C2.49092 16.1416 2.58824 16.0457 2.58824 15.9285V10.8315C2.58824 7.19824 4.98208 4.03709 8.41177 2.94805V2.54904C8.41177 1.1419 9.57207 0 11 0C12.4302 0 13.5882 1.13951 13.5882 2.54904V2.94811C17.0178 4.03729 19.4118 7.19901 19.4118 10.8315V15.9285C19.4118 16.048 19.5068 16.1416 19.6265 16.1416C20.9347 16.1416 22 17.1885 22 18.4779C22 19.7672 20.9349 20.8142 19.6232 20.8142H14.6416ZM13.3334 20.8142H8.66657C8.86943 21.9016 9.83699 22.7257 11 22.7257C12.163 22.7257 13.1306 21.9016 13.3334 20.8142ZM9.22004 4.04368C6.10125 4.83376 3.88235 7.614 3.88235 10.8315V15.9285C3.88235 16.7493 3.20582 17.4159 2.37345 17.4159C1.77806 17.4159 1.29412 17.8926 1.29412 18.4779C1.29412 19.0642 1.77818 19.5398 2.37682 19.5398H19.6232C20.2207 19.5398 20.7059 19.0629 20.7059 18.4779C20.7059 17.8929 20.2206 17.4159 19.6265 17.4159C18.7922 17.4159 18.1176 16.752 18.1176 15.9285V10.8315C18.1176 7.61476 15.8986 4.83387 12.7799 4.0437L12.2941 3.92061V2.54904C12.2941 1.84351 11.7157 1.27434 11 1.27434C10.2866 1.27434 9.70588 1.84586 9.70588 2.54904V3.9206L9.22004 4.04368Z" fill="white"/>
</svg>
