<svg width="25" height="24" viewBox="0 -2 28 28" fill="none" xmlns="http://www.w3.org/2000/svg">
<path d="M1 0H25V24H1V0Z" fill="none"/>
<path d="M16.3439 -0.00013099C14.6135 -0.00013099 13.2743 1.33919 13.2743 3.06963C13.2743 4.26381 13.982 5.20579 14.9486 5.72951V6.9766H9.92568C8.85862 6.9766 7.97232 7.863 7.97232 8.93008V13.9533H6.73402C6.21047 12.986 5.2603 12.2789 4.06559 12.2789C2.37156 12.2789 1.07232 13.669 0.996022 15.3312C0.992545 15.4072 0.996022 15.5751 0.996022 15.6277C0.99602 17.3582 2.33533 18.6975 4.06559 18.6975C5.25594 18.6975 6.20056 17.985 6.7253 17.0231H7.97232L7.98976 22.0463C7.99271 23.1095 8.85855 23.9998 9.92568 23.9998H15.2277C15.3738 23.9998 15.5067 23.8669 15.5067 23.7207V22.0463C15.5074 21.9417 15.4438 21.8392 15.3497 21.7934C14.4579 21.3691 13.8324 20.5688 13.8324 19.5347C13.8325 18.0852 14.8945 17.0231 16.3439 17.0231C16.4369 17.0231 16.5299 17.0231 16.6229 17.0231C18.0311 17.0747 19.1344 18.1314 19.1344 19.5347C19.1344 20.5686 18.5089 21.3691 17.617 21.7934C17.5229 21.8392 17.4593 21.9417 17.4601 22.0463V23.7207C17.4601 23.8669 17.593 23.9998 17.7391 23.9998H23.0411C24.1082 23.9998 24.9945 23.1134 24.9945 22.0463V8.93008C24.9945 7.86295 24.1082 6.9766 23.0411 6.9766H18.0182V5.72951C18.9848 5.20579 19.6925 4.2638 19.6925 3.06963C19.6925 1.36651 18.2948 0.0667144 16.6229 -0.00013099C16.5312 -0.000245408 16.4367 -0.000136571 16.3439 -0.00013099H16.3439ZM16.8699 0.572979C18.1412 0.746948 19.1344 1.76351 19.1344 3.06963C19.1344 4.10359 18.5088 4.90405 17.617 5.32835C17.5229 5.37414 17.4593 5.4766 17.4601 5.58125V7.25567C17.4601 7.40178 17.593 7.53472 17.7391 7.53474H23.0411C23.7967 7.53474 24.4364 8.17451 24.4364 8.93008V22.0463C24.4364 22.8019 23.7967 23.4417 23.0411 23.4417H18.0182V22.1946C18.9848 21.6709 19.6924 20.7288 19.6925 19.5347C19.6926 17.8313 18.3179 16.5216 16.6316 16.465C16.5365 16.4649 16.4396 16.465 16.3439 16.465C14.6136 16.465 13.2744 17.8043 13.2743 19.5347C13.2743 20.729 13.982 21.6709 14.9486 22.1946V23.4417H9.92568C9.17005 23.4417 8.54997 22.7971 8.54786 22.0376L8.53042 16.7353C8.52593 16.5921 8.39461 16.4649 8.25137 16.465H6.57706C6.47241 16.465 6.36995 16.5278 6.32417 16.6219C5.89995 17.5138 5.0996 18.1393 4.06559 18.1394C2.61632 18.1393 1.55412 17.0772 1.55412 15.6277C1.55412 15.5837 1.55322 15.3771 1.55412 15.3574C1.61795 13.9668 2.67671 12.8371 4.06559 12.8371C5.09954 12.8371 5.89983 13.4539 6.32417 14.3458C6.36743 14.4431 6.47056 14.5107 6.57706 14.5115H8.25137C8.39747 14.5114 8.5304 14.3785 8.53042 14.2324V8.93008C8.53042 8.17457 9.17018 7.53474 9.92568 7.53474H15.2277C15.3738 7.53472 15.5067 7.40178 15.5067 7.25567V5.58125C15.5074 5.4766 15.4438 5.37414 15.3497 5.32835C14.4579 4.90405 13.8324 4.10358 13.8324 3.06963C13.8324 1.62019 14.8945 0.558007 16.3439 0.558007C16.3831 0.558007 16.5673 0.557979 16.6055 0.558007C16.6918 0.553989 16.7992 0.566488 16.8699 0.572962L16.8699 0.572979Z" fill="black" stroke="black" stroke-width="0.5"/>
</svg>
