<?xml version="1.0" encoding="UTF-8"?>
<svg width="130px" height="12px" viewBox="0 0 130 12" version="1.1" xmlns="http://www.w3.org/2000/svg" xmlns:xlink="http://www.w3.org/1999/xlink">
    <!-- Generator: Sketch 59.1 (86144) - https://sketch.com -->
    <title>Untitled 3</title>
    <desc>Created with Sketch.</desc>
    <g id="Page-1" stroke="none" stroke-width="1" fill="none" fill-rule="evenodd">
        <polygon id="Path" fill="#000000" fill-rule="nonzero" points="15.5664516 4.32774194 14.2345806 4.32774194 14.2345806 4.64812903 15.5664516 4.64812903 15.5664516 7.69096774 11.991871 7.69096774 11.991871 4.64812903 13.3270968 4.64812903 13.3270968 4.32774194 11.991871 4.32774194 10.504 4.32774194 9.17212903 4.32774194 9.17212903 4.64812903 10.504 4.64812903 10.504 11.3729032 9.17212903 11.3729032 9.17212903 11.6932903 10.504 11.6932903 11.991871 11.6932903 13.3270968 11.6932903 13.3270968 11.3729032 11.991871 11.3729032 11.991871 8.01135484 15.5664516 8.01135484 15.5664516 11.3729032 14.2345806 11.3729032 14.2345806 11.6932903 15.5664516 11.6932903 17.056 11.6932903 18.3912258 11.6932903 18.3912258 11.3729032 17.056 11.3729032 17.056 4.64812903 18.3912258 4.64812903 18.3912258 4.32774194 17.056 4.32774194"></polygon>
        <polygon id="Path" fill="#000000" fill-rule="nonzero" points="80.6301935 4.32774194 79.3 4.32774194 79.3 4.64812903 80.6301935 4.64812903 80.6301935 11.3729032 79.3 11.3729032 79.3 11.6932903 80.6301935 11.6932903 82.1197419 11.6932903 83.2637419 11.6932903 83.2637419 11.3729032 82.1197419 11.3729032 82.1197419 4.64812903 83.2637419 4.64812903 83.2637419 4.32774194 82.1197419 4.32774194"></polygon>
        <polygon id="Path" fill="#000000" fill-rule="nonzero" points="102.995226 4.32774194 101.663355 4.32774194 101.663355 4.64812903 102.995226 4.64812903 102.995226 11.3729032 101.663355 11.3729032 101.663355 11.6932903 102.995226 11.6932903 104.483097 11.6932903 105.628774 11.6932903 105.628774 11.3729032 104.483097 11.3729032 104.483097 4.64812903 105.628774 4.64812903 105.628774 4.32774194 104.483097 4.32774194"></polygon>
        <polygon id="Path" fill="#000000" fill-rule="nonzero" points="62.9585806 4.32774194 60.184129 4.32774194 60.184129 4.64812903 61.5210323 4.64812903 61.5210323 9.49083871 57.8659355 4.32774194 57.8189677 4.32774194 57.8189677 4.32774194 55.0461935 4.32774194 55.0461935 4.64812903 56.2170323 4.64812903 56.2170323 11.3729032 55.0461935 11.3729032 55.0461935 11.6932903 57.6814194 11.6932903 57.6814194 11.3729032 56.5374194 11.3729032 56.5374194 4.64812903 56.6028387 4.64812903 61.5210323 11.5943226 61.5914839 11.6932903 61.8397419 11.6932903 61.8397419 9.94206452 61.8397419 4.64812903 62.9585806 4.64812903"></polygon>
        <polygon id="Path" fill="#000000" fill-rule="nonzero" points="75.7489032 4.32774194 75.7489032 4.35793548 74.0261935 9.37677419 72.3739355 4.32774194 72.3739355 4.32774194 72.3286452 4.32774194 72.3286452 4.32774194 69.5541935 4.32774194 69.5541935 4.64812903 70.7250323 4.64812903 70.7250323 11.3729032 69.5541935 11.3729032 69.5541935 11.6932903 72.1894194 11.6932903 72.1894194 11.3729032 71.0454194 11.3729032 71.0454194 4.81587097 73.2629677 11.5993548 73.2931613 11.6932903 73.5498065 11.6932903 74.1821935 9.85316129 75.7489032 5.29058065 75.7489032 11.3729032 74.8011613 11.3729032 74.8011613 11.6932903 75.7489032 11.6932903 75.7489032 11.6932903 77.2367742 11.6932903 77.2367742 11.6932903 77.4095484 11.6932903 78.3572903 11.6932903 78.3572903 11.3729032 77.4095484 11.3729032 77.2367742 11.3729032 77.2367742 4.64812903 78.3572903 4.64812903 78.3572903 4.32774194 77.2367742 4.32774194"></polygon>
        <polygon id="Path" fill="#000000" fill-rule="nonzero" points="112.806452 4.32774194 112.806452 4.35793548 111.083742 9.37677419 109.433161 4.32774194 109.433161 4.32774194 109.386194 4.32774194 109.386194 4.32774194 106.613419 4.32774194 106.613419 4.64812903 107.784258 4.64812903 107.784258 11.3729032 106.613419 11.3729032 106.613419 11.6932903 109.248645 11.6932903 109.248645 11.3729032 108.104645 11.3729032 108.104645 4.81587097 110.322194 11.5993548 110.352387 11.6932903 110.609032 11.6932903 111.239742 9.85316129 112.806452 5.29058065 112.806452 11.3729032 111.860387 11.3729032 111.860387 11.6932903 112.806452 11.6932903 112.806452 11.6932903 114.296 11.6932903 114.296 11.6932903 114.468774 11.6932903 115.414839 11.6932903 115.414839 11.3729032 114.468774 11.3729032 114.296 11.3729032 114.296 4.64812903 115.414839 4.64812903 115.414839 4.32774194 114.296 4.32774194"></polygon>
        <path d="M7.76309677,0.503225806 C9.72903226,0.503225806 10.1316129,4.02580645 10.1316129,4.02580645 L10.5828387,4.02580645 L10.2557419,0.0335483871 L0.325419355,0.0335483871 L0,4.02580645 L0.451225806,4.02580645 C0.451225806,4.02580645 0.85716129,0.503225806 2.81974194,0.503225806 L4.22541935,0.503225806 L4.22541935,11.2387097 L2.16051613,11.2387097 L2.16051613,11.7016774 L8.43909677,11.7016774 L8.43909677,11.2387097 L6.30877419,11.2387097 L6.30877419,0.503225806 L7.76309677,0.503225806 Z" id="Path" fill="#000000" fill-rule="nonzero"></path>
        <path d="M51.9127742,3.91341935 C49.9166452,3.91341935 48.2979355,5.65625806 48.2979355,7.80335484 C48.2979355,9.95045161 49.9166452,11.6932903 51.9127742,11.6932903 C53.9089032,11.6932903 55.5225806,9.95212903 55.5225806,7.80335484 C55.5225806,5.65458065 53.9089032,3.91341935 51.9127742,3.91341935 Z M53.8300645,9.49922581 C53.8300645,10.558116 52.9716644,11.4165161 51.9127742,11.4165161 C50.853884,11.4165161 49.9954839,10.558116 49.9954839,9.49922581 L49.9954839,6.10748387 C49.9954839,5.04859366 50.853884,4.19019355 51.9127742,4.19019355 C52.9716644,4.19019355 53.8300645,5.04859366 53.8300645,6.10748387 L53.8300645,9.49922581 Z" id="Shape" fill="#000000" fill-rule="nonzero"></path>
        <path d="M65.9393548,3.91341935 C63.9432258,3.91341935 62.3245161,5.65625806 62.3245161,7.80335484 C62.3245161,9.95045161 63.9432258,11.6932903 65.9393548,11.6932903 C67.9354839,11.6932903 69.5541935,9.95212903 69.5541935,7.80335484 C69.5541935,5.65458065 67.9354839,3.91341935 65.9393548,3.91341935 Z M67.8566452,9.49922581 C67.8566452,10.558116 66.998245,11.4165161 65.9393548,11.4165161 C64.8804646,11.4165161 64.0220645,10.558116 64.0220645,9.49922581 L64.0220645,6.10748387 C64.0220645,5.04859366 64.8804646,4.19019355 65.9393548,4.19019355 C66.998245,4.19019355 67.8566452,5.04859366 67.8566452,6.10748387 L67.8566452,9.49922581 Z" id="Shape" fill="#000000" fill-rule="nonzero"></path>
        <path d="M45.0588387,3.91341935 C43.0610323,3.91341935 41.444,5.65625806 41.444,7.80335484 C41.444,9.95045161 43.0610323,11.6932903 45.0588387,11.6932903 C45.7626018,11.6932903 46.4491879,11.4759157 47.0247742,11.0709677 L47.6387097,11.6932903 L47.6387097,9.25096774 L47.4390968,9.25096774 L47.4390968,9.49922581 C47.4399894,10.0079959 47.2382763,10.496185 46.878521,10.8559403 C46.5187656,11.2156957 46.0305766,11.4174087 45.5218065,11.4165161 L45.0571613,11.4165161 C43.9982711,11.4165161 43.139871,10.558116 43.139871,9.49922581 L43.139871,6.10748387 C43.1417222,5.04924887 44.0006025,4.19262093 45.0588387,4.19354839 L45.5234839,4.19354839 C46.5823741,4.19354839 47.4407742,5.0519485 47.4407742,6.11083871 L47.4407742,6.35909677 L47.6387097,6.35909677 L47.6387097,3.91341935 L47.0230968,4.53909677 C46.4483734,4.13328701 45.7623916,3.91478043 45.0588387,3.91341935 Z" id="Path" fill="#000000" fill-rule="nonzero"></path>
        <path d="M87.3449032,3.91341935 C85.3470968,3.91341935 83.7300645,5.65625806 83.7300645,7.80335484 C83.7300645,9.95045161 85.3470968,11.6932903 87.3449032,11.6932903 C88.0486663,11.6932566 88.7352524,11.4759157 89.3108387,11.0709677 L89.9264516,11.6966452 L89.9264516,9.25096774 L89.7268387,9.25096774 L89.7268387,9.49922581 C89.7277313,10.0079959 89.5260183,10.496185 89.1662629,10.8559403 C88.8065076,11.2156957 88.3183185,11.4174087 87.8095484,11.4165161 L87.3449032,11.4165161 C86.286013,11.4165161 85.4276129,10.558116 85.4276129,9.49922581 L85.4276129,6.10748387 C85.4294634,5.04990405 86.2873218,4.19354677 87.3449032,4.19354839 L87.8095484,4.19354839 C88.8684386,4.19354839 89.7268387,5.0519485 89.7268387,6.11083871 L89.7268387,6.35909677 L89.9264516,6.35909677 L89.9264516,3.91341935 L89.3108387,4.53909677 C88.7357461,4.13275925 88.049063,3.91421592 87.3449032,3.91341935 Z" id="Path" fill="#000000" fill-rule="nonzero"></path>
        <path d="M24.8409032,11.3729032 L22.1419355,11.3729032 L22.1419355,8.01806452 L23.2993548,8.01806452 C23.2993548,8.01806452 24.1162581,8.16567742 24.1162581,9.32812903 L24.4903226,9.32812903 L24.4903226,6.37419355 L24.1162581,6.37419355 C24.1162581,7.53664516 23.2993548,7.68425806 23.2993548,7.68425806 L22.1419355,7.68425806 L22.1419355,4.64812903 L24.9264516,4.64812903 C24.9264516,4.64812903 26.0670968,5.22012903 26.0670968,6.37419355 L26.280129,6.37419355 L26.280129,4.32774194 L19.3255484,4.32774194 L19.3255484,4.64812903 L20.6557419,4.64812903 L20.6557419,11.3729032 L19.3255484,11.3729032 L19.3255484,11.6932903 L26.5183226,11.6932903 L26.5183226,9.24090323 L26.2834839,9.24090323 C26.2834839,10.5190968 24.8409032,11.3729032 24.8409032,11.3729032 Z" id="Path" fill="#000000" fill-rule="nonzero"></path>
        <path d="M122.238581,11.3729032 L119.542968,11.3729032 L119.542968,8.01806452 L120.702065,8.01806452 C120.702065,8.01806452 121.51729,8.16567742 121.51729,9.32812903 L121.893032,9.32812903 L121.893032,6.37419355 L121.51729,6.37419355 C121.51729,7.53664516 120.702065,7.68425806 120.702065,7.68425806 L119.542968,7.68425806 L119.542968,4.64812903 L122.329161,4.64812903 C122.329161,4.64812903 123.458065,5.22012903 123.458065,6.37419355 L123.672774,6.37419355 L123.672774,4.32774194 L116.723226,4.32774194 L116.723226,4.64812903 L118.053419,4.64812903 L118.053419,11.3729032 L116.723226,11.3729032 L116.723226,11.6932903 L123.917677,11.6932903 L123.917677,9.24090323 L123.681161,9.24090323 C123.681161,10.5190968 122.238581,11.3729032 122.238581,11.3729032 Z" id="Path" fill="#000000" fill-rule="nonzero"></path>
        <path d="M100.252645,0.503225806 C102.216903,0.503225806 102.622839,4.02580645 102.622839,4.02580645 L103.074065,4.02580645 L102.746968,0.0335483871 L92.8166452,0.0335483871 L92.4912258,4.02580645 L92.9424516,4.02580645 C92.9424516,4.02580645 93.3483871,0.503225806 95.3109677,0.503225806 L96.7149677,0.503225806 L96.7149677,11.2387097 L94.6517419,11.2387097 L94.6517419,11.7016774 L100.930323,11.7016774 L100.930323,11.2387097 L98.8,11.2387097 L98.8,0.503225806 L100.252645,0.503225806 Z" id="Path" fill="#000000" fill-rule="nonzero"></path>
        <path d="M37.2051613,11.1850323 L34.2193548,11.1850323 L34.2193548,5.84580645 L36.0645161,5.84580645 C36.0645161,5.84580645 37.3594839,6.08064516 37.3594839,7.92580645 L37.9549677,7.92580645 L37.9549677,3.26090323 L37.3594839,3.26090323 C37.3594839,5.10606452 36.0645161,5.33922581 36.0645161,5.33922581 L34.2193548,5.33922581 L34.2193548,0.503225806 L38.6477419,0.503225806 C38.6477419,0.503225806 40.4509677,1.41070968 40.4509677,3.25587097 L40.7864516,3.25587097 L40.7864516,0 L29.7490323,0 L29.7490323,0.503225806 L31.8709677,0.503225806 L31.8709677,11.1850323 L29.7574194,11.1850323 L29.7574194,11.6882581 L41.1772903,11.6882581 L41.1772903,7.8 L40.7948387,7.8 C40.7948387,9.79948387 39.3220645,11.1833548 37.2051613,11.1850323 Z" id="Path" fill="#000000" fill-rule="nonzero"></path>
        <path d="M125.974194,6.54193548 C124.551742,5.95316129 125.06671,4.33612903 126.858194,4.33612903 C128.913032,4.33612903 129.186452,6.13935484 129.186452,6.13935484 L129.407871,6.12929032 L129.407871,3.89664516 L128.696645,4.48709677 C126.784387,3.07974194 124.670839,4.48709677 124.578581,5.73845161 C124.439355,8.50451613 127.148387,7.88387097 128.44671,8.69070968 C129.745032,9.49754839 129.132774,11.4886452 127.257419,11.4886452 C125.382065,11.4886452 124.501419,9.31974194 124.501419,9.31974194 L124.501419,11.668129 L125.150581,11.0910968 C126.953806,12.4900645 129.942968,11.5825806 129.942968,9.10503226 C129.942968,6.62748387 127.391613,7.12232258 125.974194,6.54193548 Z" id="Path" fill="#000000" fill-rule="nonzero"></path>
    </g>
</svg>