<svg xmlns="http://www.w3.org/2000/svg" viewBox="0 0 275.65 276.4"><defs><style>.cls-1{fill:#5367fc;}.cls-2{fill:#00d9a4;}.cls-2,.cls-5{isolation:isolate;}.cls-3{fill:#00ffc3;}.cls-4{fill:#00ebb2;}.cls-5{fill:#01c897;}</style></defs><g id="Layer_2" data-name="Layer 2"><g id="Layer_1-2" data-name="Layer 1"><path class="cls-1" d="M0,138.2v.37a138,138,0,0,0,5.27,37.88l.19-.12A137.9,137.9,0,0,1,0,138.2Z"/><path class="cls-2" d="M275.64,138.2q0,6.3-.59,12.46l.07-.07c.34-4,.53-8,.53-12C275.65,138.45,275.64,138.32,275.64,138.2Z"/><path class="cls-1" d="M137.82,0A137.83,137.83,0,0,0,0,137.82v.38a137.9,137.9,0,0,0,5.46,38.13l72.45-46.49,83.25,31.24L256.8,69l.28-.27A137.76,137.76,0,0,0,137.82,0Z"/><path class="cls-3" d="M257.08,68.71l-.28.27-95.64,92.1L77.91,129.84,5.46,176.33l-.19.12A136.83,136.83,0,0,0,15,201.07l.29-.18,69.3-44.48,83.25,31.24,99.66-96,.2-.19A136.81,136.81,0,0,0,257.08,68.71Z"/><path class="cls-4" d="M267.66,91.49l-.2.19-99.66,96L84.55,156.41l-69.3,44.48-.29.18a138,138,0,0,0,15.16,23.49l.39-.26,54-34.68,83.25,31.25L274.18,118.43l.09-.09A137.06,137.06,0,0,0,267.66,91.49Z"/><path class="cls-2" d="M274.27,118.34l-.09.09L167.8,220.87,84.55,189.62l-54,34.68-.39.26a138.7,138.7,0,0,0,20,20.33l.52-.34L84.52,222.8,167.73,254,275.05,150.66q.57-6.15.59-12.46c0-.13,0-.25,0-.38A139.14,139.14,0,0,0,274.27,118.34Z"/><path class="cls-5" d="M275.05,150.66,167.73,254,84.52,222.8,50.63,244.55l-.52.34a137.83,137.83,0,0,0,225-94.3Z"/></g></g></svg>