<svg width="24px" height="24px" viewBox="0 0 24 24" version="1.1" xmlns="http://www.w3.org/2000/svg" xmlns:xlink="http://www.w3.org/1999/xlink">
                                        <defs>
                                            <path d="M6.409713,1.51739676e-15 L17.590287,2.58960077e-16 C19.8190838,-1.50463262e-16 20.6272994,0.232064028 21.4421143,0.667831759 C22.2569291,1.10359949 22.8964005,1.74307093 23.3321682,2.55788574 C23.767936,3.37270056 24,4.18091615 24,6.409713 L24,17.590287 C24,19.8190838 23.767936,20.6272994 23.3321682,21.4421143 C22.8964005,22.2569291 22.2569291,22.8964005 21.4421143,23.3321682 C20.6272994,23.767936 19.8190838,24 17.590287,24 L6.409713,24 C4.18091615,24 3.37270056,23.767936 2.55788574,23.3321682 C1.74307093,22.8964005 1.10359949,22.2569291 0.667831759,21.4421143 C0.232064028,20.6272994 1.87666568e-15,19.8190838 1.60371679e-15,17.590287 L1.72640051e-16,6.409713 C-1.00308841e-16,4.18091615 0.232064028,3.37270056 0.667831759,2.55788574 C1.10359949,1.74307093 1.74307093,1.10359949 2.55788574,0.667831759 C3.37270056,0.232064028 4.18091615,1.9268201e-15 6.409713,1.51739676e-15 Z" id="path-1"></path>
                                        </defs>
                                        <g id="broker-landing" stroke="none" stroke-width="1" fill="none" fill-rule="evenodd">
                                            <g id="smallcase-broker-landing" transform="translate(-264.000000, -3224.000000)">
                                                <g id="benefits" transform="translate(0.000000, 2669.000000)">
                                                    <g id="Group-10-Copy" transform="translate(240.000000, 530.000000)">
                                                        <g id="Group-21" transform="translate(24.000000, 25.000000)">
                                                            <mask id="mask-2" fill="white">
                                                                <use xlink:href="#path-1"></use>
                                                            </mask>
                                                            <use id="Rectangle-4" fill="#FF784F" fill-rule="nonzero" xlink:href="#path-1"></use>
                                                            <polyline id="Path-2" stroke="#FFFFFF" stroke-width="2" stroke-linecap="round" fill-rule="nonzero" mask="url(#mask-2)" points="-2 20 6.73809524 13.5 15.6666667 16 24 9"></polyline>
                                                            <path d="M15.5,11 C15.45,11 15.4,10.9744792 15.35,10.9489583 C15.275,10.8979167 13,8.440625 13,6.55208333 C13,5.1484375 14.125,4 15.5,4 C16.875,4 18,5.1484375 18,6.55208333 C18,8.440625 15.725,10.8979167 15.65,10.9489583 C15.6,10.9744792 15.55,11 15.5,11 Z" id="Path" fill="#FFFFFF" mask="url(#mask-2)"></path>
                                                        </g>
                                                    </g>
                                                </g>
                                            </g>
                                        </g>
                                    </svg>