<svg width="24" height="24" viewBox="0 0 24 14" fill="none" xmlns="http://www.w3.org/2000/svg">
<path fill-rule="evenodd" clip-rule="evenodd" d="M19.3356 0.66571C17.7717 0.66571 16.7454 1.25218 16.11 2.083V0.861208H14.2529V13.6657H16.11V8.68074C16.7943 9.56044 17.8206 10.0981 19.3356 10.0981C21.9259 10.0981 23.9296 8.19204 23.9296 5.45518C23.9296 2.66946 21.9259 0.66571 19.3356 0.66571ZM19.1401 8.43639C17.3807 8.43639 16.11 7.11684 16.11 5.45518C16.11 3.79354 17.3807 2.37623 19.1401 2.37623C20.8995 2.37623 22.0725 3.79354 22.0725 5.45518C22.0725 7.11684 20.8995 8.43639 19.1401 8.43639ZM4.57621 5.69956C4.86945 5.50406 5.1138 5.30856 5.35818 5.06421C5.79803 4.62436 6.189 4.08677 6.48223 3.54916V5.94391C6.48223 7.45896 7.31305 8.28978 8.68148 8.28978C10.0988 8.28978 11.2228 7.41008 11.2228 5.94391V0.861208H13.08V9.90256H11.2228V8.77851C10.9296 9.21836 10.0499 10.0981 8.38825 10.0981C5.89576 10.0981 4.57621 8.53413 4.57621 6.33488V5.69956ZM0.470947 6.72587V4.91759C1.54614 4.91759 2.62132 4.47774 3.40328 3.74466C3.79425 3.35369 4.08748 2.91384 4.28298 2.42511C4.47848 1.93638 4.57621 1.39879 4.57621 0.861208H6.43335C6.43335 1.64315 6.28673 2.42511 5.9935 3.10931C5.70027 3.8424 5.26042 4.47774 4.72283 5.01533C3.5499 6.13941 2.03485 6.72587 0.470947 6.72587Z" fill="#5A298B"/>
</svg>
